<svg width="24" height="24" viewBox="0 0 24 24" fill="none" xmlns="http://www.w3.org/2000/svg">
<circle cx="12" cy="12" r="11.5" fill="white" stroke="#E9AF00"/>
<g clip-path="url(#clip0_430_218)">
<path fill-rule="evenodd" clip-rule="evenodd" d="M16.7431 6.84343C16.4149 6.51536 15.9699 6.33105 15.5058 6.33105C15.0418 6.33105 14.5968 6.51536 14.2686 6.84343L13.8562 7.25643L16.7437 10.1439L17.1555 9.73151C17.318 9.56901 17.447 9.37608 17.5349 9.16374C17.6229 8.9514 17.6682 8.72381 17.6682 8.49397C17.6682 8.26413 17.6229 8.03655 17.5349 7.82421C17.447 7.61187 17.318 7.41894 17.1555 7.25643L16.7431 6.84343ZM15.9183 10.9688L13.0308 8.08126L7.72827 13.3843C7.61223 13.5004 7.53117 13.6468 7.49435 13.8067L6.8941 16.4054C6.87173 16.5019 6.8743 16.6025 6.90155 16.6977C6.92881 16.7929 6.97985 16.8796 7.04988 16.9496C7.11991 17.0197 7.20662 17.0707 7.30183 17.098C7.39704 17.1252 7.49762 17.1278 7.5941 17.1054L10.1934 16.5058C10.3532 16.4688 10.4993 16.3878 10.6152 16.2718L15.9183 10.9688Z" fill="#757575"/>
</g>
<defs>
<clipPath id="clip0_430_218">
<rect width="14" height="14" fill="white" transform="translate(5 5)"/>
</clipPath>
</defs>
</svg>
