<svg width="340" height="255" viewBox="0 0 340 255" fill="none" xmlns="http://www.w3.org/2000/svg">
<line x1="8" y1="41.6348" x2="331" y2="41.6348" stroke="#8A8A8A"/>
<line x1="8" y1="140.478" x2="331" y2="140.478" stroke="#8A8A8A"/>
<line y1="-0.5" x2="322.884" y2="-0.5" transform="matrix(1 0 -0.000859704 1 8.04401 91.4775)" stroke="#8A8A8A"/>
<line x1="8" y1="189.927" x2="331" y2="189.927" stroke="#8A8A8A"/>
<line x1="7" y1="235.5" x2="330" y2="235.5" stroke="#AAAAAA"/>
<line x1="82.5" y1="236.021" x2="82.5" y2="42.0309" stroke="#8A8A8A"/>
<line x1="250.617" y1="236" x2="250.617" y2="42.1348" stroke="#8A8A8A"/>
<line x1="165.5" y1="236.083" x2="165.5" y2="42.0524" stroke="#8A8A8A"/>
<path d="M20.1214 71.9084C19.7971 71.9037 19.4775 71.8445 19.1626 71.7309C18.8501 71.6172 18.5661 71.4278 18.3104 71.1627C18.0547 70.8975 17.8499 70.5412 17.696 70.0938C17.5445 69.6463 17.4688 69.0876 17.4688 68.4177C17.4688 67.7832 17.5315 67.2197 17.657 66.7273C17.7848 66.2349 17.9683 65.8194 18.2074 65.4809C18.4465 65.14 18.7353 64.8807 19.0739 64.7032C19.4124 64.5256 19.7924 64.4368 20.2138 64.4368C20.647 64.4368 21.0317 64.5221 21.3679 64.6925C21.7041 64.863 21.9763 65.0985 22.1847 65.3992C22.3954 65.6999 22.5291 66.0419 22.5859 66.4255H21.5028C21.4295 66.1224 21.2839 65.875 21.0661 65.6833C20.8482 65.4915 20.5642 65.3956 20.2138 65.3956C19.6811 65.3956 19.2656 65.6276 18.9673 66.0917C18.6714 66.5557 18.5223 67.2008 18.5199 68.027H18.5732C18.6986 67.8211 18.8525 67.6459 19.0348 67.5015C19.2195 67.3547 19.4254 67.2422 19.6527 67.1641C19.8823 67.0836 20.1238 67.0434 20.3771 67.0434C20.7985 67.0434 21.1797 67.1463 21.5206 67.3523C21.8639 67.5559 22.1373 67.8376 22.3409 68.1975C22.5445 68.5573 22.6463 68.9693 22.6463 69.4333C22.6463 69.8973 22.541 70.3175 22.3303 70.6939C22.1219 71.0704 21.8284 71.3686 21.4496 71.5888C21.0708 71.8066 20.6281 71.9132 20.1214 71.9084ZM20.1179 70.9851C20.3973 70.9851 20.647 70.9165 20.8672 70.7792C21.0874 70.6419 21.2614 70.4572 21.3892 70.2252C21.517 69.9932 21.581 69.7339 21.581 69.4475C21.581 69.1681 21.5182 68.9136 21.3928 68.684C21.2696 68.4544 21.0992 68.2721 20.8814 68.1371C20.666 68.0022 20.4197 67.9347 20.1428 67.9347C19.9321 67.9347 19.7367 67.9749 19.5568 68.0554C19.3793 68.1359 19.223 68.2472 19.0881 68.3892C18.9531 68.5313 18.8466 68.6946 18.7685 68.8793C18.6927 69.0616 18.6548 69.2545 18.6548 69.4581C18.6548 69.7304 18.7176 69.9825 18.843 70.2145C18.9709 70.4465 19.1449 70.6336 19.3651 70.7756C19.5876 70.9153 19.8385 70.9851 20.1179 70.9851ZM24.6536 70.907C24.4595 70.907 24.2926 70.8383 24.1529 70.701C24.0132 70.5614 23.9434 70.3933 23.9434 70.1968C23.9434 70.0026 24.0132 69.8369 24.1529 69.6996C24.2926 69.5599 24.4595 69.4901 24.6536 69.4901C24.8477 69.4901 25.0146 69.5599 25.1543 69.6996C25.294 69.8369 25.3638 70.0026 25.3638 70.1968C25.3638 70.327 25.3307 70.4465 25.2644 70.5554C25.2005 70.662 25.1152 70.7472 25.0087 70.8111C24.9022 70.875 24.7838 70.907 24.6536 70.907ZM24.6536 67.2635C24.4595 67.2635 24.2926 67.1949 24.1529 67.0576C24.0132 66.9179 23.9434 66.7498 23.9434 66.5533C23.9434 66.3592 24.0132 66.1935 24.1529 66.0561C24.2926 65.9165 24.4595 65.8466 24.6536 65.8466C24.8477 65.8466 25.0146 65.9165 25.1543 66.0561C25.294 66.1935 25.3638 66.3592 25.3638 66.5533C25.3638 66.6835 25.3307 66.8031 25.2644 66.912C25.2005 67.0185 25.1152 67.1037 25.0087 67.1677C24.9022 67.2316 24.7838 67.2635 24.6536 67.2635ZM29.3038 71.9297C28.7427 71.9274 28.2633 71.7794 27.8656 71.4858C27.4679 71.1923 27.1636 70.765 26.9529 70.2039C26.7422 69.6428 26.6369 68.9669 26.6369 68.1762C26.6369 67.3878 26.7422 66.7143 26.9529 66.1556C27.166 65.5969 27.4714 65.1707 27.8691 64.8772C28.2692 64.5836 28.7475 64.4368 29.3038 64.4368C29.8601 64.4368 30.3372 64.5848 30.7349 64.8807C31.1326 65.1743 31.4368 65.6004 31.6475 66.1591C31.8606 66.7155 31.9672 67.3878 31.9672 68.1762C31.9672 68.9693 31.8618 69.6463 31.6511 70.2074C31.4404 70.7661 31.1362 71.1935 30.7385 71.4894C30.3407 71.7829 29.8625 71.9297 29.3038 71.9297ZM29.3038 70.9816C29.7962 70.9816 30.1809 70.7413 30.4579 70.2607C30.7373 69.7801 30.877 69.0853 30.877 68.1762C30.877 67.5725 30.813 67.0623 30.6852 66.6456C30.5597 66.2266 30.3786 65.9094 30.1419 65.6939C29.9075 65.4761 29.6281 65.3672 29.3038 65.3672C28.8137 65.3672 28.429 65.6087 28.1497 66.0917C27.8703 66.5746 27.7295 67.2695 27.7271 68.1762C27.7271 68.7822 27.7898 69.2948 27.9153 69.7138C28.0431 70.1305 28.2243 70.4465 28.4586 70.662C28.693 70.875 28.9747 70.9816 29.3038 70.9816ZM35.7589 71.9297C35.1978 71.9274 34.7184 71.7794 34.3207 71.4858C33.9229 71.1923 33.6187 70.765 33.408 70.2039C33.1973 69.6428 33.092 68.9669 33.092 68.1762C33.092 67.3878 33.1973 66.7143 33.408 66.1556C33.6211 65.5969 33.9265 65.1707 34.3242 64.8772C34.7243 64.5836 35.2025 64.4368 35.7589 64.4368C36.3152 64.4368 36.7923 64.5848 37.19 64.8807C37.5877 65.1743 37.8919 65.6004 38.1026 66.1591C38.3157 66.7155 38.4222 67.3878 38.4222 68.1762C38.4222 68.9693 38.3169 69.6463 38.1062 70.2074C37.8955 70.7661 37.5913 71.1935 37.1935 71.4894C36.7958 71.7829 36.3176 71.9297 35.7589 71.9297ZM35.7589 70.9816C36.2513 70.9816 36.636 70.7413 36.913 70.2607C37.1924 69.7801 37.332 69.0853 37.332 68.1762C37.332 67.5725 37.2681 67.0623 37.1403 66.6456C37.0148 66.2266 36.8337 65.9094 36.5969 65.6939C36.3626 65.4761 36.0832 65.3672 35.7589 65.3672C35.2688 65.3672 34.8841 65.6087 34.6048 66.0917C34.3254 66.5746 34.1845 67.2695 34.1822 68.1762C34.1822 68.7822 34.2449 69.2948 34.3704 69.7138C34.4982 70.1305 34.6793 70.4465 34.9137 70.662C35.1481 70.875 35.4298 70.9816 35.7589 70.9816ZM42.4315 68.9752C42.422 68.5656 42.4824 68.2294 42.6126 67.9667C42.7451 67.7039 42.9227 67.5097 43.1452 67.3843C43.3678 67.2564 43.6128 67.1925 43.8803 67.1925C44.1171 67.1925 44.3361 67.2434 44.5373 67.3452C44.7385 67.4446 44.9682 67.608 45.2262 67.8353C45.3872 67.9749 45.5186 68.0767 45.6204 68.1407C45.7222 68.2022 45.8358 68.233 45.9613 68.233C46.1531 68.233 46.3058 68.162 46.4194 68.0199C46.5354 67.8755 46.591 67.6624 46.5863 67.3807H47.4847C47.4942 67.7927 47.4326 68.13 47.3001 68.3928C47.1699 68.6556 46.9923 68.8497 46.7674 68.9752C46.5449 69.1007 46.301 69.1634 46.0359 69.1634C45.7968 69.1634 45.5766 69.1125 45.3754 69.0107C45.1741 68.9065 44.9457 68.7432 44.69 68.5206C44.5243 68.3762 44.3917 68.2744 44.2923 68.2152C44.1928 68.1537 44.0804 68.1229 43.9549 68.1229C43.7726 68.1229 43.6211 68.1892 43.5004 68.3218C43.382 68.452 43.3252 68.6698 43.3299 68.9752H42.4315ZM51.8801 71.809L55.0549 65.5306V65.4773H51.383V64.5363H56.1912V65.5093L53.0272 71.809H51.8801ZM57.7981 70.907C57.604 70.907 57.4371 70.8383 57.2974 70.701C57.1577 70.5614 57.0879 70.3933 57.0879 70.1968C57.0879 70.0026 57.1577 69.8369 57.2974 69.6996C57.4371 69.5599 57.604 69.4901 57.7981 69.4901C57.9922 69.4901 58.1592 69.5599 58.2988 69.6996C58.4385 69.8369 58.5083 70.0026 58.5083 70.1968C58.5083 70.327 58.4752 70.4465 58.4089 70.5554C58.345 70.662 58.2598 70.7472 58.1532 70.8111C58.0467 70.875 57.9283 70.907 57.7981 70.907ZM57.7981 67.2635C57.604 67.2635 57.4371 67.1949 57.2974 67.0576C57.1577 66.9179 57.0879 66.7498 57.0879 66.5533C57.0879 66.3592 57.1577 66.1935 57.2974 66.0561C57.4371 65.9165 57.604 65.8466 57.7981 65.8466C57.9922 65.8466 58.1592 65.9165 58.2988 66.0561C58.4385 66.1935 58.5083 66.3592 58.5083 66.5533C58.5083 66.6835 58.4752 66.8031 58.4089 66.912C58.345 67.0185 58.2598 67.1037 58.1532 67.1677C58.0467 67.2316 57.9283 67.2635 57.7981 67.2635ZM62.4483 71.9084C61.9606 71.9084 61.525 71.8244 61.1415 71.6563C60.7604 71.4882 60.4585 71.255 60.236 70.9567C60.0158 70.6561 59.8974 70.308 59.8809 69.9127H60.9959C61.0101 70.1281 61.0823 70.3151 61.2125 70.4738C61.3451 70.63 61.5179 70.7508 61.731 70.836C61.9441 70.9212 62.1808 70.9638 62.4412 70.9638C62.7277 70.9638 62.981 70.9141 63.2012 70.8147C63.4237 70.7152 63.5977 70.5767 63.7232 70.3992C63.8487 70.2193 63.9114 70.0121 63.9114 69.7777C63.9114 69.5339 63.8487 69.3196 63.7232 69.135C63.6001 68.948 63.419 68.8012 63.1799 68.6946C62.9431 68.5881 62.6567 68.5348 62.3205 68.5348H61.7061V67.64H62.3205C62.5904 67.64 62.8271 67.5914 63.0307 67.4944C63.2367 67.3973 63.3977 67.2624 63.5137 67.0895C63.6297 66.9143 63.6877 66.7096 63.6877 66.4752C63.6877 66.2503 63.6368 66.055 63.535 65.8892C63.4355 65.7212 63.2935 65.5898 63.1088 65.4951C62.9266 65.4004 62.7111 65.353 62.4625 65.353C62.2258 65.353 62.0044 65.3968 61.7985 65.4844C61.5949 65.5696 61.4292 65.6927 61.3013 65.8537C61.1735 66.0124 61.1048 66.2029 61.0953 66.4255H60.0336C60.0454 66.0325 60.1614 65.6868 60.3816 65.3885C60.6041 65.0902 60.8977 64.857 61.2623 64.689C61.6268 64.5209 62.0317 64.4368 62.4767 64.4368C62.9431 64.4368 63.3456 64.528 63.6841 64.7103C64.025 64.8902 64.2878 65.1305 64.4725 65.4311C64.6595 65.7318 64.7518 66.0609 64.7495 66.4184C64.7518 66.8256 64.6382 67.1712 64.4086 67.4553C64.1813 67.7394 63.8783 67.93 63.4995 68.027V68.0838C63.9824 68.1572 64.3565 68.349 64.6216 68.6591C64.8891 68.9693 65.0217 69.354 65.0194 69.8133C65.0217 70.2133 64.9105 70.572 64.6855 70.8892C64.463 71.2065 64.1588 71.4562 63.7729 71.6385C63.387 71.8185 62.9455 71.9084 62.4483 71.9084ZM68.8936 71.9297C68.3326 71.9274 67.8532 71.7794 67.4554 71.4858C67.0577 71.1923 66.7535 70.765 66.5428 70.2039C66.3321 69.6428 66.2267 68.9669 66.2267 68.1762C66.2267 67.3878 66.3321 66.7143 66.5428 66.1556C66.7559 65.5969 67.0613 65.1707 67.459 64.8772C67.8591 64.5836 68.3373 64.4368 68.8936 64.4368C69.45 64.4368 69.927 64.5848 70.3248 64.8807C70.7225 65.1743 71.0267 65.6004 71.2374 66.1591C71.4505 66.7155 71.557 67.3878 71.557 68.1762C71.557 68.9693 71.4516 69.6463 71.2409 70.2074C71.0302 70.7661 70.726 71.1935 70.3283 71.4894C69.9306 71.7829 69.4524 71.9297 68.8936 71.9297ZM68.8936 70.9816C69.3861 70.9816 69.7708 70.7413 70.0478 70.2607C70.3271 69.7801 70.4668 69.0853 70.4668 68.1762C70.4668 67.5725 70.4029 67.0623 70.275 66.6456C70.1496 66.2266 69.9685 65.9094 69.7317 65.6939C69.4973 65.4761 69.218 65.3672 68.8936 65.3672C68.4036 65.3672 68.0189 65.6087 67.7395 66.0917C67.4602 66.5746 67.3193 67.2695 67.3169 68.1762C67.3169 68.7822 67.3797 69.2948 67.5051 69.7138C67.633 70.1305 67.8141 70.4465 68.0485 70.662C68.2828 70.875 68.5646 70.9816 68.8936 70.9816Z" fill="black"/>
<path d="M20.1052 169.279C19.5962 169.279 19.1464 169.192 18.7558 169.016C18.3675 168.841 18.0633 168.6 17.8431 168.292C17.623 167.984 17.5141 167.634 17.5164 167.241C17.5141 166.933 17.5768 166.65 17.7046 166.392C17.8348 166.132 18.0112 165.915 18.2338 165.742C18.4563 165.567 18.7049 165.456 18.9795 165.409V165.366C18.6173 165.278 18.3273 165.084 18.1095 164.784C17.8917 164.483 17.7839 164.137 17.7863 163.747C17.7839 163.375 17.8822 163.043 18.0811 162.752C18.2823 162.459 18.5581 162.228 18.9085 162.06C19.2588 161.892 19.6578 161.808 20.1052 161.808C20.5479 161.808 20.9433 161.893 21.2913 162.063C21.6417 162.231 21.9175 162.462 22.1187 162.756C22.3199 163.047 22.4217 163.377 22.4241 163.747C22.4217 164.137 22.3105 164.483 22.0903 164.784C21.8701 165.084 21.5837 165.278 21.2309 165.366V165.409C21.5032 165.456 21.7482 165.567 21.966 165.742C22.1862 165.915 22.3614 166.132 22.4916 166.392C22.6241 166.65 22.6916 166.933 22.694 167.241C22.6916 167.634 22.5803 167.984 22.3602 168.292C22.14 168.6 21.8346 168.841 21.444 169.016C21.0557 169.192 20.6095 169.279 20.1052 169.279ZM20.1052 168.381C20.4059 168.381 20.6663 168.331 20.8865 168.232C21.1066 168.13 21.2771 167.989 21.3978 167.809C21.5186 167.627 21.5801 167.414 21.5825 167.17C21.5801 166.917 21.5138 166.693 21.3836 166.499C21.2558 166.305 21.0818 166.152 20.8616 166.041C20.6414 165.929 20.3893 165.874 20.1052 165.874C19.8187 165.874 19.5642 165.929 19.3417 166.041C19.1192 166.152 18.944 166.305 18.8161 166.499C18.6883 166.693 18.6256 166.917 18.6279 167.17C18.6256 167.414 18.6836 167.627 18.8019 167.809C18.9227 167.989 19.0943 168.13 19.3169 168.232C19.5394 168.331 19.8022 168.381 20.1052 168.381ZM20.1052 164.997C20.3467 164.997 20.5609 164.948 20.748 164.851C20.935 164.754 21.0818 164.619 21.1883 164.446C21.2972 164.273 21.3528 164.071 21.3552 163.839C21.3528 163.612 21.2984 163.413 21.1919 163.242C21.0877 163.072 20.9421 162.94 20.7551 162.848C20.568 162.753 20.3514 162.706 20.1052 162.706C19.8543 162.706 19.6341 162.753 19.4447 162.848C19.2577 162.94 19.1121 163.072 19.0079 163.242C18.9037 163.413 18.8528 163.612 18.8552 163.839C18.8528 164.071 18.9049 164.273 19.0115 164.446C19.118 164.619 19.2648 164.754 19.4518 164.851C19.6412 164.948 19.859 164.997 20.1052 164.997ZM24.68 168.278C24.4858 168.278 24.3189 168.209 24.1792 168.072C24.0396 167.932 23.9697 167.764 23.9697 167.568C23.9697 167.373 24.0396 167.208 24.1792 167.07C24.3189 166.931 24.4858 166.861 24.68 166.861C24.8741 166.861 25.041 166.931 25.1807 167.07C25.3203 167.208 25.3902 167.373 25.3902 167.568C25.3902 167.698 25.357 167.817 25.2907 167.926C25.2268 168.033 25.1416 168.118 25.0351 168.182C24.9285 168.246 24.8102 168.278 24.68 168.278ZM24.68 164.634C24.4858 164.634 24.3189 164.566 24.1792 164.428C24.0396 164.289 23.9697 164.121 23.9697 163.924C23.9697 163.73 24.0396 163.564 24.1792 163.427C24.3189 163.287 24.4858 163.217 24.68 163.217C24.8741 163.217 25.041 163.287 25.1807 163.427C25.3203 163.564 25.3902 163.73 25.3902 163.924C25.3902 164.054 25.357 164.174 25.2907 164.283C25.2268 164.389 25.1416 164.475 25.0351 164.538C24.9285 164.602 24.8102 164.634 24.68 164.634ZM29.3302 169.301C28.7691 169.298 28.2897 169.15 27.892 168.857C27.4942 168.563 27.19 168.136 26.9793 167.575C26.7686 167.014 26.6633 166.338 26.6633 165.547C26.6633 164.759 26.7686 164.085 26.9793 163.526C27.1924 162.968 27.4978 162.542 27.8955 162.248C28.2956 161.954 28.7738 161.808 29.3302 161.808C29.8865 161.808 30.3635 161.956 30.7613 162.252C31.159 162.545 31.4632 162.971 31.6739 163.53C31.887 164.086 31.9935 164.759 31.9935 165.547C31.9935 166.34 31.8882 167.017 31.6775 167.578C31.4668 168.137 31.1626 168.564 30.7648 168.86C30.3671 169.154 29.8889 169.301 29.3302 169.301ZM29.3302 168.352C29.8226 168.352 30.2073 168.112 30.4843 167.632C30.7636 167.151 30.9033 166.456 30.9033 165.547C30.9033 164.943 30.8394 164.433 30.7116 164.016C30.5861 163.597 30.405 163.28 30.1682 163.065C29.9339 162.847 29.6545 162.738 29.3302 162.738C28.8401 162.738 28.4554 162.98 28.176 163.462C27.8967 163.945 27.7558 164.64 27.7535 165.547C27.7535 166.153 27.8162 166.666 27.9417 167.085C28.0695 167.501 28.2506 167.817 28.485 168.033C28.7194 168.246 29.0011 168.352 29.3302 168.352ZM35.7852 169.301C35.2242 169.298 34.7448 169.15 34.347 168.857C33.9493 168.563 33.6451 168.136 33.4344 167.575C33.2237 167.014 33.1183 166.338 33.1183 165.547C33.1183 164.759 33.2237 164.085 33.4344 163.526C33.6475 162.968 33.9529 162.542 34.3506 162.248C34.7507 161.954 35.2289 161.808 35.7852 161.808C36.3416 161.808 36.8186 161.956 37.2164 162.252C37.6141 162.545 37.9183 162.971 38.129 163.53C38.3421 164.086 38.4486 164.759 38.4486 165.547C38.4486 166.34 38.3432 167.017 38.1325 167.578C37.9218 168.137 37.6176 168.564 37.2199 168.86C36.8222 169.154 36.344 169.301 35.7852 169.301ZM35.7852 168.352C36.2777 168.352 36.6624 168.112 36.9394 167.632C37.2187 167.151 37.3584 166.456 37.3584 165.547C37.3584 164.943 37.2945 164.433 37.1666 164.016C37.0412 163.597 36.8601 163.28 36.6233 163.065C36.3889 162.847 36.1096 162.738 35.7852 162.738C35.2952 162.738 34.9105 162.98 34.6311 163.462C34.3518 163.945 34.2109 164.64 34.2085 165.547C34.2085 166.153 34.2713 166.666 34.3968 167.085C34.5246 167.501 34.7057 167.817 34.9401 168.033C35.1744 168.246 35.4562 168.352 35.7852 168.352ZM42.4578 166.346C42.4484 165.936 42.5087 165.6 42.6389 165.337C42.7715 165.075 42.9491 164.881 43.1716 164.755C43.3941 164.627 43.6392 164.563 43.9067 164.563C44.1434 164.563 44.3624 164.614 44.5637 164.716C44.7649 164.815 44.9945 164.979 45.2526 165.206C45.4136 165.346 45.545 165.448 45.6468 165.511C45.7486 165.573 45.8622 165.604 45.9877 165.604C46.1794 165.604 46.3321 165.533 46.4458 165.391C46.5618 165.246 46.6174 165.033 46.6127 164.752H47.5111C47.5206 165.163 47.459 165.501 47.3264 165.764C47.1962 166.026 47.0187 166.221 46.7938 166.346C46.5712 166.471 46.3274 166.534 46.0622 166.534C45.8231 166.534 45.603 166.483 45.4017 166.382C45.2005 166.277 44.972 166.114 44.7164 165.891C44.5506 165.747 44.4181 165.645 44.3186 165.586C44.2192 165.525 44.1067 165.494 43.9813 165.494C43.799 165.494 43.6475 165.56 43.5267 165.693C43.4084 165.823 43.3515 166.041 43.3563 166.346H42.4578ZM54.0798 161.808C54.4041 161.81 54.7238 161.869 55.0386 161.985C55.3535 162.101 55.6376 162.291 55.8909 162.553C56.1466 162.816 56.3502 163.171 56.5017 163.619C56.6556 164.064 56.7337 164.618 56.7361 165.281C56.7361 165.917 56.6721 166.484 56.5443 166.982C56.4165 167.476 56.233 167.894 55.9939 168.235C55.7571 168.576 55.4695 168.835 55.1309 169.013C54.7924 169.19 54.4113 169.279 53.9875 169.279C53.5542 169.279 53.1695 169.194 52.8334 169.024C52.4972 168.853 52.2238 168.618 52.0131 168.317C51.8023 168.014 51.671 167.666 51.6189 167.273H52.702C52.773 167.585 52.9174 167.839 53.1352 168.033C53.3554 168.225 53.6395 168.32 53.9875 168.32C54.5202 168.32 54.9356 168.088 55.2339 167.624C55.5322 167.158 55.6826 166.507 55.6849 165.671H55.6281C55.505 165.875 55.3511 166.05 55.1665 166.197C54.9842 166.344 54.7794 166.457 54.5521 166.538C54.3248 166.618 54.0822 166.659 53.8241 166.659C53.4051 166.659 53.0239 166.556 52.6807 166.35C52.3374 166.144 52.064 165.861 51.8604 165.501C51.6568 165.141 51.555 164.73 51.555 164.269C51.555 163.809 51.6591 163.393 51.8675 163.019C52.0782 162.645 52.3717 162.349 52.7481 162.131C53.1269 161.911 53.5708 161.803 54.0798 161.808ZM54.0834 162.731C53.8064 162.731 53.5566 162.8 53.3341 162.937C53.1139 163.072 52.9399 163.255 52.8121 163.487C52.6842 163.717 52.6203 163.973 52.6203 164.254C52.6203 164.536 52.6818 164.792 52.805 165.021C52.9304 165.249 53.1009 165.43 53.3163 165.565C53.5341 165.697 53.7827 165.764 54.0621 165.764C54.2704 165.764 54.4645 165.723 54.6444 165.643C54.8244 165.562 54.9818 165.451 55.1167 165.309C55.2517 165.165 55.357 165.001 55.4328 164.819C55.5086 164.637 55.5464 164.445 55.5464 164.244C55.5464 163.976 55.4825 163.728 55.3547 163.498C55.2292 163.268 55.0564 163.084 54.8362 162.944C54.616 162.802 54.3651 162.731 54.0834 162.731ZM58.7327 168.278C58.5386 168.278 58.3717 168.209 58.232 168.072C58.0923 167.932 58.0225 167.764 58.0225 167.568C58.0225 167.373 58.0923 167.208 58.232 167.07C58.3717 166.931 58.5386 166.861 58.7327 166.861C58.9268 166.861 59.0937 166.931 59.2334 167.07C59.3731 167.208 59.4429 167.373 59.4429 167.568C59.4429 167.698 59.4098 167.817 59.3435 167.926C59.2796 168.033 59.1943 168.118 59.0878 168.182C58.9813 168.246 58.8629 168.278 58.7327 168.278ZM58.7327 164.634C58.5386 164.634 58.3717 164.566 58.232 164.428C58.0923 164.289 58.0225 164.121 58.0225 163.924C58.0225 163.73 58.0923 163.564 58.232 163.427C58.3717 163.287 58.5386 163.217 58.7327 163.217C58.9268 163.217 59.0937 163.287 59.2334 163.427C59.3731 163.564 59.4429 163.73 59.4429 163.924C59.4429 164.054 59.4098 164.174 59.3435 164.283C59.2796 164.389 59.1943 164.475 59.0878 164.538C58.9813 164.602 58.8629 164.634 58.7327 164.634ZM63.3829 169.279C62.8952 169.279 62.4596 169.195 62.0761 169.027C61.6949 168.859 61.3931 168.626 61.1705 168.328C60.9504 168.027 60.832 167.679 60.8154 167.284H61.9305C61.9447 167.499 62.0169 167.686 62.1471 167.845C62.2797 168.001 62.4525 168.122 62.6656 168.207C62.8786 168.292 63.1154 168.335 63.3758 168.335C63.6623 168.335 63.9156 168.285 64.1357 168.185C64.3583 168.086 64.5323 167.948 64.6578 167.77C64.7832 167.59 64.846 167.383 64.846 167.149C64.846 166.905 64.7832 166.69 64.6578 166.506C64.5347 166.319 64.3535 166.172 64.1144 166.065C63.8777 165.959 63.5912 165.906 63.2551 165.906H62.6407V165.011H63.2551C63.5249 165.011 63.7617 164.962 63.9653 164.865C64.1713 164.768 64.3322 164.633 64.4482 164.46C64.5642 164.285 64.6222 164.08 64.6222 163.846C64.6222 163.621 64.5713 163.426 64.4695 163.26C64.3701 163.092 64.2281 162.961 64.0434 162.866C63.8611 162.771 63.6457 162.724 63.3971 162.724C63.1604 162.724 62.939 162.768 62.733 162.855C62.5294 162.94 62.3637 163.064 62.2359 163.225C62.108 163.383 62.0394 163.574 62.0299 163.796H60.9681C60.98 163.403 61.096 163.058 61.3161 162.759C61.5387 162.461 61.8322 162.228 62.1968 162.06C62.5614 161.892 62.9662 161.808 63.4113 161.808C63.8777 161.808 64.2802 161.899 64.6187 162.081C64.9596 162.261 65.2224 162.501 65.407 162.802C65.5941 163.103 65.6864 163.432 65.684 163.789C65.6864 164.196 65.5728 164.542 65.3431 164.826C65.1159 165.11 64.8128 165.301 64.434 165.398V165.455C64.917 165.528 65.291 165.72 65.5562 166.03C65.8237 166.34 65.9563 166.725 65.9539 167.184C65.9563 167.584 65.845 167.943 65.6201 168.26C65.3976 168.577 65.0934 168.827 64.7075 169.009C64.3216 169.189 63.8801 169.279 63.3829 169.279ZM69.8282 169.301C69.2671 169.298 68.7877 169.15 68.39 168.857C67.9923 168.563 67.6881 168.136 67.4774 167.575C67.2667 167.014 67.1613 166.338 67.1613 165.547C67.1613 164.759 67.2667 164.085 67.4774 163.526C67.6904 162.968 67.9958 162.542 68.3936 162.248C68.7936 161.954 69.2719 161.808 69.8282 161.808C70.3846 161.808 70.8616 161.956 71.2593 162.252C71.657 162.545 71.9613 162.971 72.172 163.53C72.385 164.086 72.4916 164.759 72.4916 165.547C72.4916 166.34 72.3862 167.017 72.1755 167.578C71.9648 168.137 71.6606 168.564 71.2629 168.86C70.8651 169.154 70.3869 169.301 69.8282 169.301ZM69.8282 168.352C70.3206 168.352 70.7053 168.112 70.9823 167.632C71.2617 167.151 71.4014 166.456 71.4014 165.547C71.4014 164.943 71.3374 164.433 71.2096 164.016C71.0841 163.597 70.903 163.28 70.6663 163.065C70.4319 162.847 70.1526 162.738 69.8282 162.738C69.3382 162.738 68.9535 162.98 68.6741 163.462C68.3947 163.945 68.2539 164.64 68.2515 165.547C68.2515 166.153 68.3142 166.666 68.4397 167.085C68.5676 167.501 68.7487 167.817 68.983 168.033C69.2174 168.246 69.4991 168.352 69.8282 168.352Z" fill="black"/>
<path d="M19.1452 209.628C19.4696 209.63 19.7892 209.689 20.104 209.805C20.4189 209.921 20.703 210.111 20.9563 210.374C21.212 210.636 21.4156 210.991 21.5671 211.439C21.721 211.884 21.7991 212.438 21.8015 213.101C21.8015 213.738 21.7376 214.305 21.6097 214.802C21.4819 215.297 21.2984 215.714 21.0593 216.055C20.8226 216.396 20.5349 216.656 20.1964 216.833C19.8578 217.011 19.4767 217.099 19.0529 217.099C18.6197 217.099 18.235 217.014 17.8988 216.844C17.5626 216.673 17.2892 216.438 17.0785 216.137C16.8678 215.834 16.7364 215.486 16.6843 215.093H17.7674C17.8384 215.406 17.9828 215.659 18.2006 215.853C18.4208 216.045 18.7049 216.141 19.0529 216.141C19.5856 216.141 20.0011 215.909 20.2994 215.445C20.5977 214.978 20.748 214.327 20.7504 213.491H20.6935C20.5704 213.695 20.4165 213.87 20.2319 214.017C20.0496 214.164 19.8448 214.277 19.6175 214.358C19.3903 214.438 19.1476 214.479 18.8896 214.479C18.4705 214.479 18.0894 214.376 17.7461 214.17C17.4028 213.964 17.1294 213.681 16.9258 213.321C16.7222 212.961 16.6204 212.55 16.6204 212.089C16.6204 211.629 16.7246 211.213 16.9329 210.839C17.1436 210.465 17.4371 210.169 17.8136 209.951C18.1924 209.731 18.6362 209.623 19.1452 209.628ZM19.1488 210.551C18.8718 210.551 18.622 210.62 18.3995 210.757C18.1793 210.892 18.0053 211.076 17.8775 211.308C17.7496 211.537 17.6857 211.793 17.6857 212.075C17.6857 212.356 17.7473 212.612 17.8704 212.842C17.9959 213.069 18.1663 213.25 18.3817 213.385C18.5996 213.518 18.8481 213.584 19.1275 213.584C19.3358 213.584 19.5299 213.544 19.7099 213.463C19.8898 213.383 20.0472 213.271 20.1822 213.129C20.3171 212.985 20.4225 212.821 20.4982 212.639C20.574 212.457 20.6119 212.265 20.6119 212.064C20.6119 211.796 20.5479 211.548 20.4201 211.318C20.2946 211.089 20.1218 210.904 19.9016 210.764C19.6815 210.622 19.4305 210.551 19.1488 210.551ZM23.7981 216.098C23.604 216.098 23.4371 216.029 23.2974 215.892C23.1577 215.752 23.0879 215.584 23.0879 215.388C23.0879 215.194 23.1577 215.028 23.2974 214.891C23.4371 214.751 23.604 214.681 23.7981 214.681C23.9922 214.681 24.1592 214.751 24.2988 214.891C24.4385 215.028 24.5083 215.194 24.5083 215.388C24.5083 215.518 24.4752 215.638 24.4089 215.746C24.345 215.853 24.2598 215.938 24.1532 216.002C24.0467 216.066 23.9283 216.098 23.7981 216.098ZM23.7981 212.455C23.604 212.455 23.4371 212.386 23.2974 212.249C23.1577 212.109 23.0879 211.941 23.0879 211.744C23.0879 211.55 23.1577 211.384 23.2974 211.247C23.4371 211.107 23.604 211.038 23.7981 211.038C23.9922 211.038 24.1592 211.107 24.2988 211.247C24.4385 211.384 24.5083 211.55 24.5083 211.744C24.5083 211.875 24.4752 211.994 24.4089 212.103C24.345 212.21 24.2598 212.295 24.1532 212.359C24.0467 212.423 23.9283 212.455 23.7981 212.455ZM28.4483 217.099C27.9606 217.099 27.525 217.015 27.1415 216.847C26.7604 216.679 26.4585 216.446 26.236 216.148C26.0158 215.847 25.8974 215.499 25.8809 215.104H26.9959C27.0101 215.319 27.0823 215.506 27.2125 215.665C27.3451 215.821 27.5179 215.942 27.731 216.027C27.9441 216.112 28.1808 216.155 28.4412 216.155C28.7277 216.155 28.981 216.105 29.2012 216.006C29.4237 215.906 29.5977 215.768 29.7232 215.59C29.8487 215.41 29.9114 215.203 29.9114 214.969C29.9114 214.725 29.8487 214.511 29.7232 214.326C29.6001 214.139 29.419 213.992 29.1799 213.886C28.9431 213.779 28.6567 213.726 28.3205 213.726H27.7061V212.831H28.3205C28.5904 212.831 28.8271 212.782 29.0307 212.685C29.2367 212.588 29.3977 212.453 29.5137 212.281C29.6297 212.105 29.6877 211.901 29.6877 211.666C29.6877 211.441 29.6368 211.246 29.535 211.08C29.4355 210.912 29.2935 210.781 29.1088 210.686C28.9266 210.591 28.7111 210.544 28.4625 210.544C28.2258 210.544 28.0044 210.588 27.7985 210.675C27.5949 210.761 27.4292 210.884 27.3013 211.045C27.1735 211.203 27.1048 211.394 27.0953 211.616H26.0336C26.0454 211.223 26.1614 210.878 26.3816 210.58C26.6041 210.281 26.8977 210.048 27.2623 209.88C27.6268 209.712 28.0317 209.628 28.4767 209.628C28.9431 209.628 29.3456 209.719 29.6841 209.901C30.025 210.081 30.2878 210.321 30.4725 210.622C30.6595 210.923 30.7518 211.252 30.7495 211.609C30.7518 212.017 30.6382 212.362 30.4086 212.646C30.1813 212.93 29.8783 213.121 29.4995 213.218V213.275C29.9824 213.348 30.3565 213.54 30.6216 213.85C30.8891 214.16 31.0217 214.545 31.0194 215.004C31.0217 215.404 30.9105 215.763 30.6855 216.08C30.463 216.397 30.1588 216.647 29.7729 216.83C29.387 217.009 28.9455 217.099 28.4483 217.099ZM34.8936 217.121C34.3326 217.118 33.8532 216.97 33.4554 216.677C33.0577 216.383 32.7535 215.956 32.5428 215.395C32.3321 214.834 32.2267 214.158 32.2267 213.367C32.2267 212.579 32.3321 211.905 32.5428 211.347C32.7559 210.788 33.0613 210.362 33.459 210.068C33.8591 209.775 34.3373 209.628 34.8936 209.628C35.45 209.628 35.927 209.776 36.3248 210.072C36.7225 210.365 37.0267 210.791 37.2374 211.35C37.4505 211.906 37.557 212.579 37.557 213.367C37.557 214.16 37.4516 214.837 37.2409 215.398C37.0302 215.957 36.726 216.384 36.3283 216.68C35.9306 216.974 35.4524 217.121 34.8936 217.121ZM34.8936 216.173C35.3861 216.173 35.7708 215.932 36.0478 215.452C36.3271 214.971 36.4668 214.276 36.4668 213.367C36.4668 212.763 36.4029 212.253 36.275 211.837C36.1496 211.418 35.9685 211.1 35.7317 210.885C35.4973 210.667 35.218 210.558 34.8936 210.558C34.4036 210.558 34.0189 210.8 33.7395 211.283C33.4602 211.766 33.3193 212.46 33.3169 213.367C33.3169 213.973 33.3797 214.486 33.5051 214.905C33.633 215.321 33.8141 215.638 34.0485 215.853C34.2828 216.066 34.5646 216.173 34.8936 216.173ZM38.9197 214.166C38.9103 213.757 38.9706 213.42 39.1009 213.158C39.2334 212.895 39.411 212.701 39.6335 212.575C39.8561 212.447 40.1011 212.384 40.3686 212.384C40.6054 212.384 40.8243 212.434 41.0256 212.536C41.2268 212.636 41.4564 212.799 41.7145 213.026C41.8755 213.166 42.0069 213.268 42.1087 213.332C42.2105 213.393 42.3241 213.424 42.4496 213.424C42.6413 213.424 42.794 213.353 42.9077 213.211C43.0237 213.067 43.0793 212.853 43.0746 212.572H43.973C43.9825 212.984 43.9209 213.321 43.7884 213.584C43.6581 213.847 43.4806 214.041 43.2557 214.166C43.0331 214.292 42.7893 214.354 42.5241 214.354C42.285 214.354 42.0649 214.304 41.8636 214.202C41.6624 214.098 41.4339 213.934 41.1783 213.712C41.0125 213.567 40.88 213.465 40.7805 213.406C40.6811 213.345 40.5687 213.314 40.4432 213.314C40.2609 213.314 40.1094 213.38 39.9886 213.513C39.8703 213.643 39.8134 213.861 39.8182 214.166H38.9197ZM48.2362 209.727V217H47.1353V210.828H47.0927L45.3526 211.964V210.913L47.1673 209.727H48.2362ZM52.9627 209.727V217H51.8619V210.828H51.8192L50.0792 211.964V210.913L51.8938 209.727H52.9627ZM55.6438 216.098C55.4497 216.098 55.2828 216.029 55.1431 215.892C55.0034 215.752 54.9336 215.584 54.9336 215.388C54.9336 215.194 55.0034 215.028 55.1431 214.891C55.2828 214.751 55.4497 214.681 55.6438 214.681C55.8379 214.681 56.0049 214.751 56.1445 214.891C56.2842 215.028 56.354 215.194 56.354 215.388C56.354 215.518 56.3209 215.638 56.2546 215.746C56.1907 215.853 56.1055 215.938 55.9989 216.002C55.8924 216.066 55.774 216.098 55.6438 216.098ZM55.6438 212.455C55.4497 212.455 55.2828 212.386 55.1431 212.249C55.0034 212.109 54.9336 211.941 54.9336 211.744C54.9336 211.55 55.0034 211.384 55.1431 211.247C55.2828 211.107 55.4497 211.038 55.6438 211.038C55.8379 211.038 56.0049 211.107 56.1445 211.247C56.2842 211.384 56.354 211.55 56.354 211.744C56.354 211.875 56.3209 211.994 56.2546 212.103C56.1907 212.21 56.1055 212.295 55.9989 212.359C55.8924 212.423 55.774 212.455 55.6438 212.455ZM60.294 217.121C59.733 217.118 59.2536 216.97 58.8558 216.677C58.4581 216.383 58.1539 215.956 57.9432 215.395C57.7325 214.834 57.6271 214.158 57.6271 213.367C57.6271 212.579 57.7325 211.905 57.9432 211.347C58.1563 210.788 58.4616 210.362 58.8594 210.068C59.2595 209.775 59.7377 209.628 60.294 209.628C60.8504 209.628 61.3274 209.776 61.7251 210.072C62.1229 210.365 62.4271 210.791 62.6378 211.35C62.8509 211.906 62.9574 212.579 62.9574 213.367C62.9574 214.16 62.852 214.837 62.6413 215.398C62.4306 215.957 62.1264 216.384 61.7287 216.68C61.331 216.974 60.8527 217.121 60.294 217.121ZM60.294 216.173C60.7865 216.173 61.1712 215.932 61.4482 215.452C61.7275 214.971 61.8672 214.276 61.8672 213.367C61.8672 212.763 61.8033 212.253 61.6754 211.837C61.55 211.418 61.3688 211.1 61.1321 210.885C60.8977 210.667 60.6184 210.558 60.294 210.558C59.804 210.558 59.4193 210.8 59.1399 211.283C58.8606 211.766 58.7197 212.46 58.7173 213.367C58.7173 213.973 58.7801 214.486 58.9055 214.905C59.0334 215.321 59.2145 215.638 59.4489 215.853C59.6832 216.066 59.965 216.173 60.294 216.173ZM66.7491 217.121C66.188 217.118 65.7086 216.97 65.3109 216.677C64.9132 216.383 64.609 215.956 64.3983 215.395C64.1876 214.834 64.0822 214.158 64.0822 213.367C64.0822 212.579 64.1876 211.905 64.3983 211.347C64.6113 210.788 64.9167 210.362 65.3145 210.068C65.7145 209.775 66.1928 209.628 66.7491 209.628C67.3055 209.628 67.7825 209.776 68.1802 210.072C68.5779 210.365 68.8822 210.791 69.0929 211.35C69.3059 211.906 69.4125 212.579 69.4125 213.367C69.4125 214.16 69.3071 214.837 69.0964 215.398C68.8857 215.957 68.5815 216.384 68.1838 216.68C67.786 216.974 67.3078 217.121 66.7491 217.121ZM66.7491 216.173C67.2415 216.173 67.6262 215.932 67.9032 215.452C68.1826 214.971 68.3223 214.276 68.3223 213.367C68.3223 212.763 68.2583 212.253 68.1305 211.837C68.005 211.418 67.8239 211.1 67.5872 210.885C67.3528 210.667 67.0734 210.558 66.7491 210.558C66.2591 210.558 65.8743 210.8 65.595 211.283C65.3156 211.766 65.1748 212.46 65.1724 213.367C65.1724 213.973 65.2351 214.486 65.3606 214.905C65.4885 215.321 65.6696 215.638 65.9039 215.853C66.1383 216.066 66.42 216.173 66.7491 216.173Z" fill="black"/>
<path d="M17.8469 120.573L21.0217 114.295V114.241H17.3498V113.3H22.158V114.273L18.994 120.573H17.8469ZM23.7649 119.671C23.5708 119.671 23.4039 119.602 23.2642 119.465C23.1245 119.325 23.0547 119.157 23.0547 118.961C23.0547 118.767 23.1245 118.601 23.2642 118.464C23.4039 118.324 23.5708 118.254 23.7649 118.254C23.959 118.254 24.1259 118.324 24.2656 118.464C24.4053 118.601 24.4751 118.767 24.4751 118.961C24.4751 119.091 24.442 119.211 24.3757 119.319C24.3118 119.426 24.2266 119.511 24.12 119.575C24.0135 119.639 23.8951 119.671 23.7649 119.671ZM23.7649 116.028C23.5708 116.028 23.4039 115.959 23.2642 115.822C23.1245 115.682 23.0547 115.514 23.0547 115.317C23.0547 115.123 23.1245 114.957 23.2642 114.82C23.4039 114.68 23.5708 114.611 23.7649 114.611C23.959 114.611 24.1259 114.68 24.2656 114.82C24.4053 114.957 24.4751 115.123 24.4751 115.317C24.4751 115.448 24.442 115.567 24.3757 115.676C24.3118 115.783 24.2266 115.868 24.12 115.932C24.0135 115.996 23.8951 116.028 23.7649 116.028ZM28.4151 120.672C27.9274 120.672 27.4918 120.588 27.1083 120.42C26.7272 120.252 26.4253 120.019 26.2028 119.721C25.9826 119.42 25.8642 119.072 25.8477 118.677H26.9627C26.9769 118.892 27.0491 119.079 27.1793 119.238C27.3119 119.394 27.4847 119.515 27.6978 119.6C27.9109 119.685 28.1476 119.728 28.408 119.728C28.6945 119.728 28.9478 119.678 29.168 119.579C29.3905 119.479 29.5645 119.341 29.69 119.163C29.8155 118.983 29.8782 118.776 29.8782 118.542C29.8782 118.298 29.8155 118.084 29.69 117.899C29.5669 117.712 29.3858 117.565 29.1467 117.459C28.9099 117.352 28.6235 117.299 28.2873 117.299H27.6729V116.404H28.2873C28.5572 116.404 28.7939 116.355 28.9975 116.258C29.2035 116.161 29.3645 116.026 29.4805 115.854C29.5965 115.678 29.6545 115.474 29.6545 115.239C29.6545 115.014 29.6036 114.819 29.5018 114.653C29.4023 114.485 29.2603 114.354 29.0756 114.259C28.8933 114.164 28.6779 114.117 28.4293 114.117C28.1926 114.117 27.9712 114.161 27.7653 114.248C27.5617 114.334 27.396 114.457 27.2681 114.618C27.1403 114.776 27.0716 114.967 27.0621 115.189H26.0004C26.0122 114.796 26.1282 114.451 26.3484 114.153C26.5709 113.854 26.8645 113.621 27.229 113.453C27.5936 113.285 27.9985 113.201 28.4435 113.201C28.9099 113.201 29.3124 113.292 29.6509 113.474C29.9918 113.654 30.2546 113.894 30.4393 114.195C30.6263 114.496 30.7186 114.825 30.7163 115.182C30.7186 115.59 30.605 115.935 30.3754 116.219C30.1481 116.503 29.8451 116.694 29.4663 116.791V116.848C29.9492 116.921 30.3233 117.113 30.5884 117.423C30.8559 117.733 30.9885 118.118 30.9862 118.577C30.9885 118.977 30.8772 119.336 30.6523 119.653C30.4298 119.97 30.1256 120.22 29.7397 120.403C29.3538 120.582 28.9123 120.672 28.4151 120.672ZM34.8604 120.694C34.2994 120.691 33.82 120.543 33.4222 120.25C33.0245 119.956 32.7203 119.529 32.5096 118.968C32.2989 118.407 32.1935 117.731 32.1935 116.94C32.1935 116.152 32.2989 115.478 32.5096 114.92C32.7227 114.361 33.0281 113.935 33.4258 113.641C33.8259 113.348 34.3041 113.201 34.8604 113.201C35.4168 113.201 35.8938 113.349 36.2915 113.645C36.6893 113.938 36.9935 114.364 37.2042 114.923C37.4173 115.479 37.5238 116.152 37.5238 116.94C37.5238 117.733 37.4184 118.41 37.2077 118.971C36.997 119.53 36.6928 119.957 36.2951 120.253C35.8974 120.547 35.4192 120.694 34.8604 120.694ZM34.8604 119.746C35.3529 119.746 35.7376 119.505 36.0146 119.025C36.2939 118.544 36.4336 117.849 36.4336 116.94C36.4336 116.336 36.3697 115.826 36.2418 115.41C36.1164 114.991 35.9353 114.673 35.6985 114.458C35.4641 114.24 35.1848 114.131 34.8604 114.131C34.3704 114.131 33.9857 114.373 33.7063 114.856C33.427 115.339 33.2861 116.033 33.2837 116.94C33.2837 117.546 33.3465 118.059 33.4719 118.478C33.5998 118.894 33.7809 119.211 34.0153 119.426C34.2496 119.639 34.5314 119.746 34.8604 119.746ZM41.533 117.739C41.5236 117.33 41.5839 116.993 41.7141 116.731C41.8467 116.468 42.0243 116.274 42.2468 116.148C42.4693 116.02 42.7144 115.957 42.9819 115.957C43.2186 115.957 43.4376 116.007 43.6388 116.109C43.8401 116.209 44.0697 116.372 44.3278 116.599C44.4888 116.739 44.6201 116.841 44.7219 116.905C44.8237 116.966 44.9374 116.997 45.0629 116.997C45.2546 116.997 45.4073 116.926 45.521 116.784C45.637 116.64 45.6926 116.426 45.6879 116.145H46.5863C46.5958 116.557 46.5342 116.894 46.4016 117.157C46.2714 117.42 46.0939 117.614 45.869 117.739C45.6464 117.865 45.4026 117.927 45.1374 117.927C44.8983 117.927 44.6781 117.877 44.4769 117.775C44.2757 117.671 44.0472 117.507 43.7915 117.285C43.6258 117.14 43.4933 117.038 43.3938 116.979C43.2944 116.918 43.1819 116.887 43.0565 116.887C42.8742 116.887 42.7227 116.953 42.6019 117.086C42.4835 117.216 42.4267 117.434 42.4315 117.739H41.533ZM53.1941 120.672C52.6851 120.672 52.2353 120.585 51.8446 120.41C51.4564 120.234 51.1522 119.993 50.932 119.685C50.7118 119.377 50.6029 119.027 50.6053 118.634C50.6029 118.326 50.6657 118.043 50.7935 117.785C50.9237 117.525 51.1001 117.308 51.3226 117.135C51.5452 116.96 51.7937 116.849 52.0684 116.802V116.759C51.7061 116.671 51.4161 116.477 51.1983 116.177C50.9805 115.876 50.8728 115.53 50.8752 115.14C50.8728 114.768 50.9711 114.437 51.1699 114.145C51.3712 113.852 51.647 113.621 51.9973 113.453C52.3477 113.285 52.7466 113.201 53.1941 113.201C53.6368 113.201 54.0321 113.286 54.3801 113.457C54.7305 113.625 55.0063 113.855 55.2076 114.149C55.4088 114.44 55.5106 114.77 55.513 115.14C55.5106 115.53 55.3993 115.876 55.1792 116.177C54.959 116.477 54.6725 116.671 54.3198 116.759V116.802C54.592 116.849 54.8371 116.96 55.0549 117.135C55.275 117.308 55.4502 117.525 55.5804 117.785C55.713 118.043 55.7805 118.326 55.7828 118.634C55.7805 119.027 55.6692 119.377 55.449 119.685C55.2289 119.993 54.9235 120.234 54.5328 120.41C54.1446 120.585 53.6983 120.672 53.1941 120.672ZM53.1941 119.774C53.4947 119.774 53.7551 119.724 53.9753 119.625C54.1955 119.523 54.3659 119.382 54.4867 119.202C54.6074 119.02 54.669 118.807 54.6713 118.563C54.669 118.31 54.6027 118.086 54.4725 117.892C54.3446 117.698 54.1706 117.545 53.9505 117.434C53.7303 117.323 53.4782 117.267 53.1941 117.267C52.9076 117.267 52.6531 117.323 52.4306 117.434C52.208 117.545 52.0328 117.698 51.905 117.892C51.7772 118.086 51.7144 118.31 51.7168 118.563C51.7144 118.807 51.7724 119.02 51.8908 119.202C52.0115 119.382 52.1832 119.523 52.4057 119.625C52.6283 119.724 52.891 119.774 53.1941 119.774ZM53.1941 116.39C53.4355 116.39 53.6498 116.341 53.8368 116.244C54.0239 116.147 54.1706 116.012 54.2772 115.839C54.3861 115.667 54.4417 115.464 54.4441 115.232C54.4417 115.005 54.3873 114.806 54.2807 114.635C54.1766 114.465 54.031 114.334 53.8439 114.241C53.6569 114.147 53.4403 114.099 53.1941 114.099C52.9431 114.099 52.723 114.147 52.5336 114.241C52.3465 114.334 52.2009 114.465 52.0968 114.635C51.9926 114.806 51.9417 115.005 51.9441 115.232C51.9417 115.464 51.9938 115.667 52.1003 115.839C52.2069 116.012 52.3536 116.147 52.5407 116.244C52.7301 116.341 52.9479 116.39 53.1941 116.39ZM57.7688 119.671C57.5747 119.671 57.4078 119.602 57.2681 119.465C57.1284 119.325 57.0586 119.157 57.0586 118.961C57.0586 118.767 57.1284 118.601 57.2681 118.464C57.4078 118.324 57.5747 118.254 57.7688 118.254C57.9629 118.254 58.1299 118.324 58.2695 118.464C58.4092 118.601 58.479 118.767 58.479 118.961C58.479 119.091 58.4459 119.211 58.3796 119.319C58.3157 119.426 58.2305 119.511 58.1239 119.575C58.0174 119.639 57.899 119.671 57.7688 119.671ZM57.7688 116.028C57.5747 116.028 57.4078 115.959 57.2681 115.822C57.1284 115.682 57.0586 115.514 57.0586 115.317C57.0586 115.123 57.1284 114.957 57.2681 114.82C57.4078 114.68 57.5747 114.611 57.7688 114.611C57.9629 114.611 58.1299 114.68 58.2695 114.82C58.4092 114.957 58.479 115.123 58.479 115.317C58.479 115.448 58.4459 115.567 58.3796 115.676C58.3157 115.783 58.2305 115.868 58.1239 115.932C58.0174 115.996 57.899 116.028 57.7688 116.028ZM62.419 120.694C61.858 120.691 61.3786 120.543 60.9808 120.25C60.5831 119.956 60.2789 119.529 60.0682 118.968C59.8575 118.407 59.7521 117.731 59.7521 116.94C59.7521 116.152 59.8575 115.478 60.0682 114.92C60.2813 114.361 60.5866 113.935 60.9844 113.641C61.3845 113.348 61.8627 113.201 62.419 113.201C62.9754 113.201 63.4524 113.349 63.8501 113.645C64.2479 113.938 64.5521 114.364 64.7628 114.923C64.9759 115.479 65.0824 116.152 65.0824 116.94C65.0824 117.733 64.977 118.41 64.7663 118.971C64.5556 119.53 64.2514 119.957 63.8537 120.253C63.456 120.547 62.9777 120.694 62.419 120.694ZM62.419 119.746C62.9115 119.746 63.2962 119.505 63.5732 119.025C63.8525 118.544 63.9922 117.849 63.9922 116.94C63.9922 116.336 63.9283 115.826 63.8004 115.41C63.675 114.991 63.4938 114.673 63.2571 114.458C63.0227 114.24 62.7434 114.131 62.419 114.131C61.929 114.131 61.5443 114.373 61.2649 114.856C60.9856 115.339 60.8447 116.033 60.8423 116.94C60.8423 117.546 60.9051 118.059 61.0305 118.478C61.1584 118.894 61.3395 119.211 61.5739 119.426C61.8082 119.639 62.09 119.746 62.419 119.746ZM68.8741 120.694C68.313 120.691 67.8336 120.543 67.4359 120.25C67.0382 119.956 66.734 119.529 66.5233 118.968C66.3126 118.407 66.2072 117.731 66.2072 116.94C66.2072 116.152 66.3126 115.478 66.5233 114.92C66.7363 114.361 67.0417 113.935 67.4395 113.641C67.8395 113.348 68.3178 113.201 68.8741 113.201C69.4305 113.201 69.9075 113.349 70.3052 113.645C70.7029 113.938 71.0072 114.364 71.2179 114.923C71.4309 115.479 71.5375 116.152 71.5375 116.94C71.5375 117.733 71.4321 118.41 71.2214 118.971C71.0107 119.53 70.7065 119.957 70.3088 120.253C69.911 120.547 69.4328 120.694 68.8741 120.694ZM68.8741 119.746C69.3665 119.746 69.7512 119.505 70.0282 119.025C70.3076 118.544 70.4473 117.849 70.4473 116.94C70.4473 116.336 70.3833 115.826 70.2555 115.41C70.13 114.991 69.9489 114.673 69.7122 114.458C69.4778 114.24 69.1984 114.131 68.8741 114.131C68.3841 114.131 67.9993 114.373 67.72 114.856C67.4406 115.339 67.2998 116.033 67.2974 116.94C67.2974 117.546 67.3601 118.059 67.4856 118.478C67.6135 118.894 67.7946 119.211 68.0289 119.426C68.2633 119.639 68.545 119.746 68.8741 119.746Z" fill="black"/>
<path d="M5 0.5H335C337.485 0.5 339.5 2.51472 339.5 5V250C339.5 252.485 337.485 254.5 335 254.5H5C2.51472 254.5 0.5 252.485 0.5 250V5C0.5 2.51472 2.51472 0.5 5 0.5Z" stroke="#8A8A8A"/>
</svg>
