<svg width="335" height="206" viewBox="0 0 335 206" fill="none" xmlns="http://www.w3.org/2000/svg">
<rect x="0.25" y="0.25" width="334.5" height="205.5" rx="4.75" stroke="black" stroke-width="0.5"/>
<path d="M11.7663 24.573V23.1327L15.1317 20.0166C15.418 19.7396 15.658 19.4903 15.8519 19.2687C16.0489 19.0471 16.1982 18.8301 16.2997 18.6178C16.4013 18.4023 16.4521 18.17 16.4521 17.9207C16.4521 17.6437 16.389 17.4052 16.2628 17.2051C16.1366 17.002 15.9643 16.8466 15.7457 16.7389C15.5272 16.6281 15.2795 16.5727 15.0025 16.5727C14.7132 16.5727 14.4608 16.6311 14.2454 16.7481C14.0299 16.8651 13.8638 17.0328 13.7468 17.2513C13.6299 17.4698 13.5714 17.7299 13.5714 18.0315H11.674C11.674 17.4129 11.814 16.8758 12.0941 16.4203C12.3742 15.9648 12.7666 15.6124 13.2713 15.3632C13.776 15.1139 14.3577 14.9892 15.0163 14.9892C15.6934 14.9892 16.2828 15.1092 16.7844 15.3493C17.2892 15.5863 17.6816 15.9156 17.9616 16.3372C18.2417 16.7589 18.3817 17.2421 18.3817 17.7868C18.3817 18.1438 18.311 18.4962 18.1694 18.844C18.0309 19.1918 17.7831 19.578 17.4261 20.0027C17.0691 20.4244 16.5659 20.9306 15.9165 21.5215L14.5362 22.8742V22.9388H18.5064V24.573H11.7663ZM23.6618 24.7808C22.8678 24.7777 22.1846 24.5823 21.6121 24.1945C21.0428 23.8067 20.6042 23.245 20.2964 22.5095C19.9917 21.7739 19.8409 20.8891 19.844 19.855C19.844 18.824 19.9964 17.9453 20.301 17.219C20.6088 16.4927 21.0474 15.9402 21.6167 15.5617C22.1892 15.18 22.8709 14.9892 23.6618 14.9892C24.4528 14.9892 25.133 15.18 25.7023 15.5617C26.2748 15.9433 26.7149 16.4973 27.0226 17.2236C27.3304 17.9468 27.4827 18.824 27.4797 19.855C27.4797 20.8922 27.3258 21.7785 27.018 22.5141C26.7133 23.2496 26.2763 23.8113 25.7069 24.1991C25.1376 24.5869 24.4559 24.7808 23.6618 24.7808ZM23.6618 23.1235C24.2035 23.1235 24.6359 22.8511 24.9591 22.3063C25.2822 21.7616 25.4423 20.9445 25.4392 19.855C25.4392 19.1379 25.3653 18.5408 25.2176 18.0638C25.0729 17.5868 24.8667 17.2282 24.599 16.9882C24.3343 16.7481 24.0219 16.6281 23.6618 16.6281C23.1233 16.6281 22.6924 16.8974 22.3692 17.436C22.0461 17.9745 21.883 18.7809 21.8799 19.855C21.8799 20.5813 21.9522 21.1876 22.0969 21.6739C22.2446 22.1571 22.4523 22.5202 22.7201 22.7634C22.9878 23.0034 23.3018 23.1235 23.6618 23.1235ZM28.905 24.573V23.1327L32.2704 20.0166C32.5566 19.7396 32.7967 19.4903 32.9906 19.2687C33.1876 19.0471 33.3368 18.8301 33.4384 18.6178C33.54 18.4023 33.5907 18.17 33.5907 17.9207C33.5907 17.6437 33.5276 17.4052 33.4015 17.2051C33.2753 17.002 33.1029 16.8466 32.8844 16.7389C32.6659 16.6281 32.4181 16.5727 32.1412 16.5727C31.8519 16.5727 31.5995 16.6311 31.3841 16.7481C31.1686 16.8651 31.0024 17.0328 30.8855 17.2513C30.7685 17.4698 30.71 17.7299 30.71 18.0315H28.8127C28.8127 17.4129 28.9527 16.8758 29.2328 16.4203C29.5128 15.9648 29.9052 15.6124 30.41 15.3632C30.9147 15.1139 31.4964 14.9892 32.155 14.9892C32.8321 14.9892 33.4215 15.1092 33.9231 15.3493C34.4279 15.5863 34.8203 15.9156 35.1003 16.3372C35.3804 16.7589 35.5204 17.2421 35.5204 17.7868C35.5204 18.1438 35.4496 18.4962 35.3081 18.844C35.1696 19.1918 34.9218 19.578 34.5648 20.0027C34.2078 20.4244 33.7046 20.9306 33.0552 21.5215L31.6749 22.8742V22.9388H35.6451V24.573H28.905ZM40.5882 24.7023C39.8988 24.7023 39.2848 24.5838 38.7462 24.3468C38.2107 24.1068 37.7875 23.7775 37.4767 23.3589C37.1689 22.9373 37.0104 22.451 37.0012 21.9001H39.0139C39.0262 22.1309 39.1017 22.334 39.2401 22.5095C39.3817 22.6818 39.5695 22.8157 39.8034 22.9111C40.0373 23.0065 40.3004 23.0542 40.5928 23.0542C40.8975 23.0542 41.1668 23.0003 41.4007 22.8926C41.6346 22.7849 41.8177 22.6356 41.95 22.4448C42.0824 22.254 42.1485 22.034 42.1485 21.7847C42.1485 21.5323 42.0777 21.3092 41.9362 21.1153C41.7977 20.9183 41.5976 20.7644 41.336 20.6536C41.0775 20.5428 40.7697 20.4874 40.4127 20.4874H39.531V19.0194H40.4127C40.7143 19.0194 40.9806 18.9671 41.2114 18.8624C41.4453 18.7578 41.6269 18.6132 41.7561 18.4285C41.8854 18.2408 41.95 18.0222 41.95 17.773C41.95 17.536 41.8931 17.3282 41.7792 17.1497C41.6684 16.9682 41.5115 16.8266 41.3083 16.725C41.1083 16.6235 40.8744 16.5727 40.6066 16.5727C40.3358 16.5727 40.088 16.6219 39.8634 16.7204C39.6387 16.8158 39.4587 16.9528 39.3232 17.1313C39.1878 17.3098 39.1155 17.5191 39.1063 17.7591H37.1904C37.1997 17.2144 37.3551 16.7342 37.6567 16.3188C37.9583 15.9033 38.3646 15.5786 38.8754 15.3447C39.3894 15.1077 39.9695 14.9892 40.6159 14.9892C41.2683 14.9892 41.8392 15.1077 42.3286 15.3447C42.8179 15.5817 43.198 15.9017 43.4688 16.3049C43.7428 16.705 43.8782 17.1543 43.8751 17.6529C43.8782 18.1823 43.7135 18.6239 43.3811 18.9779C43.0518 19.3318 42.6225 19.5565 42.0931 19.6519V19.7257C42.7887 19.815 43.318 20.0566 43.6812 20.4505C44.0474 20.8414 44.229 21.3307 44.2259 21.9186C44.229 22.4571 44.0736 22.9357 43.7597 23.3543C43.4488 23.7728 43.0195 24.1021 42.4717 24.3422C41.9239 24.5823 41.296 24.7023 40.5882 24.7023ZM46.5642 24.6931C46.2595 24.6931 45.9979 24.5853 45.7794 24.3699C45.564 24.1514 45.4562 23.8898 45.4562 23.5851C45.4562 23.2835 45.564 23.025 45.7794 22.8095C45.9979 22.5941 46.2595 22.4864 46.5642 22.4864C46.8596 22.4864 47.1182 22.5941 47.3398 22.8095C47.5613 23.025 47.6721 23.2835 47.6721 23.5851C47.6721 23.7882 47.6198 23.9744 47.5152 24.1437C47.4136 24.3099 47.2797 24.4438 47.1135 24.5453C46.9474 24.6438 46.7642 24.6931 46.5642 24.6931ZM52.2009 15.1185V24.573H50.202V17.0159H50.1466L47.9814 18.3731V16.6004L50.322 15.1185H52.2009ZM58.5613 15.1185V24.573H56.5623V17.0159H56.5069L54.3418 18.3731V16.6004L56.6824 15.1185H58.5613ZM61.4685 24.6931C61.1638 24.6931 60.9022 24.5853 60.6837 24.3699C60.4682 24.1514 60.3605 23.8898 60.3605 23.5851C60.3605 23.2835 60.4682 23.025 60.6837 22.8095C60.9022 22.5941 61.1638 22.4864 61.4685 22.4864C61.7639 22.4864 62.0225 22.5941 62.2441 22.8095C62.4656 23.025 62.5764 23.2835 62.5764 23.5851C62.5764 23.7882 62.5241 23.9744 62.4195 24.1437C62.3179 24.3099 62.184 24.4438 62.0178 24.5453C61.8517 24.6438 61.6685 24.6931 61.4685 24.6931ZM67.4988 24.7808C66.7047 24.7777 66.0215 24.5823 65.449 24.1945C64.8797 23.8067 64.4411 23.245 64.1333 22.5095C63.8287 21.7739 63.6779 20.8891 63.6809 19.855C63.6809 18.824 63.8333 17.9453 64.138 17.219C64.4457 16.4927 64.8843 15.9402 65.4537 15.5617C66.0261 15.18 66.7078 14.9892 67.4988 14.9892C68.2897 14.9892 68.9699 15.18 69.5392 15.5617C70.1117 15.9433 70.5518 16.4973 70.8596 17.2236C71.1673 17.9468 71.3197 18.824 71.3166 19.855C71.3166 20.8922 71.1627 21.7785 70.8549 22.5141C70.5502 23.2496 70.1132 23.8113 69.5439 24.1991C68.9745 24.5869 68.2928 24.7808 67.4988 24.7808ZM67.4988 23.1235C68.0404 23.1235 68.4728 22.8511 68.796 22.3063C69.1191 21.7616 69.2792 20.9445 69.2761 19.855C69.2761 19.1379 69.2022 18.5408 69.0545 18.0638C68.9099 17.5868 68.7037 17.2282 68.4359 16.9882C68.1712 16.7481 67.8588 16.6281 67.4988 16.6281C66.9602 16.6281 66.5293 16.8974 66.2061 17.436C65.883 17.9745 65.7199 18.7809 65.7168 19.855C65.7168 20.5813 65.7891 21.1876 65.9338 21.6739C66.0815 22.1571 66.2892 22.5202 66.557 22.7634C66.8248 23.0034 67.1387 23.1235 67.4988 23.1235ZM72.5988 22.9111V21.3369L76.5459 15.1185H77.9031V17.2975H77.0999L74.6116 21.2353V21.3092H80.2206V22.9111H72.5988ZM77.1368 24.573V22.431L77.1737 21.7339V15.1185H79.048V24.573H77.1368ZM82.5427 24.6931C82.238 24.6931 81.9764 24.5853 81.7579 24.3699C81.5425 24.1514 81.4347 23.8898 81.4347 23.5851C81.4347 23.2835 81.5425 23.025 81.7579 22.8095C81.9764 22.5941 82.238 22.4864 82.5427 22.4864C82.8382 22.4864 83.0967 22.5941 83.3183 22.8095C83.5399 23.025 83.6507 23.2835 83.6507 23.5851C83.6507 23.7882 83.5983 23.9744 83.4937 24.1437C83.3921 24.3099 83.2583 24.4438 83.0921 24.5453C82.9259 24.6438 82.7427 24.6931 82.5427 24.6931ZM87.4304 24.573L84.7251 15.1185H86.9087L88.4737 21.6877H88.5522L90.2788 15.1185H92.1484L93.8704 21.7016H93.9535L95.5185 15.1185H97.7021L94.9968 24.573H93.0487L91.2482 18.3916H91.1744L89.3786 24.573H87.4304ZM98.7719 24.573V15.1185H105.143V16.7666H100.771V19.0194H104.815V20.6675H100.771V22.9249H105.161V24.573H98.7719ZM110.083 24.573H106.732V15.1185H110.111C111.062 15.1185 111.881 15.3078 112.567 15.6863C113.253 16.0618 113.781 16.6019 114.151 17.3067C114.523 18.0115 114.709 18.8548 114.709 19.8365C114.709 20.8214 114.523 21.6677 114.151 22.3756C113.781 23.0834 113.25 23.6267 112.558 24.0052C111.868 24.3838 111.044 24.573 110.083 24.573ZM108.731 22.8603H110C110.591 22.8603 111.088 22.7557 111.491 22.5464C111.898 22.334 112.202 22.0063 112.406 21.5631C112.612 21.1168 112.715 20.5413 112.715 19.8365C112.715 19.1379 112.612 18.567 112.406 18.1238C112.202 17.6806 111.899 17.3544 111.496 17.1451C111.093 16.9358 110.596 16.8312 110.005 16.8312H108.731V22.8603Z" fill="black"/>
<line x1="5" y1="44.6348" x2="328" y2="44.6348" stroke="black"/>
<line x1="5" y1="146.478" x2="328" y2="146.478" stroke="black"/>
<line y1="-0.5" x2="322.884" y2="-0.5" transform="matrix(0.999994 -0.00358426 0.00272456 0.999996 5.04504 96.0562)" stroke="black"/>
<line x1="5" y1="193.927" x2="328" y2="193.927" stroke="black"/>
<line x1="82.5" y1="45.1348" x2="82.5" y2="194.427" stroke="black"/>
<line y1="-0.5" x2="149.295" y2="-0.5" transform="matrix(0.00675847 0.999977 -0.99996 0.00889089 250.234 45.1348)" stroke="black"/>
<line x1="164.5" y1="45.1348" x2="164.5" y2="194.427" stroke="black"/>
<path d="M115.219 74.4664C114.567 74.4664 113.985 74.3463 113.474 74.1063C112.967 73.8662 112.563 73.5354 112.265 73.1137C111.966 72.6921 111.811 72.2089 111.799 71.6642H113.738C113.759 72.0304 113.913 72.3274 114.199 72.5551C114.485 72.7829 114.826 72.8968 115.219 72.8968C115.533 72.8968 115.81 72.8275 116.05 72.689C116.294 72.5474 116.483 72.352 116.618 72.1027C116.757 71.8504 116.826 71.5611 116.826 71.2348C116.826 70.9024 116.755 70.6101 116.614 70.3577C116.475 70.1053 116.283 69.9084 116.037 69.7668C115.79 69.6252 115.509 69.5529 115.192 69.5498C114.915 69.5498 114.645 69.6067 114.384 69.7206C114.125 69.8345 113.924 69.9899 113.779 70.1869L112.002 69.8683L112.45 64.8826H118.229V66.5168H114.098L113.853 68.885H113.908C114.075 68.6511 114.325 68.4572 114.661 68.3034C114.996 68.1495 115.372 68.0725 115.787 68.0725C116.357 68.0725 116.864 68.2064 117.311 68.4742C117.757 68.7419 118.109 69.1097 118.368 69.5775C118.626 70.0422 118.754 70.5777 118.751 71.184C118.754 71.8211 118.606 72.3874 118.308 72.8829C118.012 73.3753 117.598 73.7631 117.066 74.0463C116.537 74.3263 115.921 74.4664 115.219 74.4664ZM123.852 74.5448C123.058 74.5418 122.375 74.3463 121.803 73.9585C121.233 73.5708 120.795 73.0091 120.487 72.2735C120.182 71.538 120.031 70.6531 120.034 69.6191C120.034 68.588 120.187 67.7094 120.491 66.983C120.799 66.2567 121.238 65.7043 121.807 65.3257C122.38 64.9441 123.061 64.7533 123.852 64.7533C124.643 64.7533 125.323 64.9441 125.893 65.3257C126.465 65.7074 126.905 66.2613 127.213 66.9877C127.521 67.7109 127.673 68.588 127.67 69.6191C127.67 70.6562 127.516 71.5426 127.208 72.2781C126.904 73.0137 126.467 73.5754 125.897 73.9632C125.328 74.3509 124.646 74.5448 123.852 74.5448ZM123.852 72.8875C124.394 72.8875 124.826 72.6152 125.15 72.0704C125.473 71.5257 125.633 70.7085 125.63 69.6191C125.63 68.902 125.556 68.3049 125.408 67.8279C125.263 67.3508 125.057 66.9923 124.789 66.7522C124.525 66.5122 124.212 66.3921 123.852 66.3921C123.314 66.3921 122.883 66.6614 122.56 67.2C122.237 67.7386 122.073 68.545 122.07 69.6191C122.07 70.3454 122.143 70.9517 122.287 71.4379C122.435 71.9211 122.643 72.2843 122.911 72.5274C123.178 72.7675 123.492 72.8875 123.852 72.8875ZM133.209 64.8826V74.3371H131.21V66.7799H131.154L128.989 68.1372V66.3644L131.33 64.8826H133.209Z" fill="black"/>
<path d="M286.219 176.309C285.567 176.309 284.985 176.189 284.474 175.949C283.967 175.709 283.563 175.378 283.265 174.956C282.966 174.535 282.811 174.052 282.799 173.507H284.738C284.759 173.873 284.913 174.17 285.199 174.398C285.485 174.626 285.826 174.739 286.219 174.739C286.533 174.739 286.81 174.67 287.05 174.532C287.294 174.39 287.483 174.195 287.618 173.945C287.757 173.693 287.826 173.404 287.826 173.078C287.826 172.745 287.755 172.453 287.614 172.2C287.475 171.948 287.283 171.751 287.037 171.609C286.79 171.468 286.509 171.396 286.192 171.393C285.915 171.393 285.645 171.449 285.384 171.563C285.125 171.677 284.924 171.833 284.779 172.03L283.002 171.711L283.45 166.725H289.229V168.359H285.098L284.853 170.728H284.908C285.075 170.494 285.325 170.3 285.661 170.146C285.996 169.992 286.372 169.915 286.787 169.915C287.357 169.915 287.864 170.049 288.311 170.317C288.757 170.585 289.109 170.952 289.368 171.42C289.626 171.885 289.754 172.42 289.751 173.027C289.754 173.664 289.606 174.23 289.308 174.726C289.012 175.218 288.598 175.606 288.066 175.889C287.537 176.169 286.921 176.309 286.219 176.309ZM294.852 176.388C294.058 176.384 293.375 176.189 292.803 175.801C292.233 175.413 291.795 174.852 291.487 174.116C291.182 173.381 291.031 172.496 291.034 171.462C291.034 170.431 291.187 169.552 291.491 168.826C291.799 168.099 292.238 167.547 292.807 167.168C293.38 166.787 294.061 166.596 294.852 166.596C295.643 166.596 296.323 166.787 296.893 167.168C297.465 167.55 297.905 168.104 298.213 168.83C298.521 169.554 298.673 170.431 298.67 171.462C298.67 172.499 298.516 173.385 298.208 174.121C297.904 174.856 297.467 175.418 296.897 175.806C296.328 176.194 295.646 176.388 294.852 176.388ZM294.852 174.73C295.394 174.73 295.826 174.458 296.15 173.913C296.473 173.368 296.633 172.551 296.63 171.462C296.63 170.745 296.556 170.148 296.408 169.671C296.263 169.194 296.057 168.835 295.789 168.595C295.525 168.355 295.212 168.235 294.852 168.235C294.314 168.235 293.883 168.504 293.56 169.043C293.237 169.581 293.073 170.388 293.07 171.462C293.07 172.188 293.143 172.794 293.287 173.281C293.435 173.764 293.643 174.127 293.911 174.37C294.178 174.61 294.492 174.73 294.852 174.73ZM303.724 176.309C303.238 176.306 302.768 176.224 302.316 176.064C301.867 175.904 301.463 175.644 301.106 175.284C300.749 174.924 300.466 174.447 300.257 173.853C300.051 173.259 299.948 172.53 299.948 171.665C299.951 170.871 300.042 170.161 300.22 169.537C300.402 168.909 300.66 168.376 300.996 167.939C301.334 167.502 301.739 167.17 302.21 166.942C302.681 166.711 303.208 166.596 303.793 166.596C304.424 166.596 304.981 166.719 305.464 166.965C305.948 167.208 306.335 167.539 306.628 167.958C306.923 168.376 307.102 168.846 307.163 169.366H305.192C305.115 169.037 304.954 168.778 304.707 168.59C304.461 168.403 304.156 168.309 303.793 168.309C303.178 168.309 302.71 168.576 302.39 169.112C302.073 169.647 301.911 170.375 301.905 171.296H301.97C302.111 171.016 302.302 170.777 302.542 170.58C302.785 170.38 303.061 170.228 303.369 170.123C303.679 170.015 304.007 169.961 304.352 169.961C304.912 169.961 305.411 170.094 305.848 170.358C306.285 170.62 306.629 170.98 306.882 171.439C307.134 171.897 307.26 172.422 307.26 173.013C307.26 173.653 307.111 174.222 306.812 174.721C306.517 175.22 306.103 175.61 305.571 175.894C305.041 176.174 304.426 176.312 303.724 176.309ZM303.715 174.739C304.023 174.739 304.298 174.666 304.541 174.518C304.784 174.37 304.975 174.17 305.114 173.918C305.252 173.665 305.321 173.382 305.321 173.068C305.321 172.754 305.252 172.473 305.114 172.223C304.978 171.974 304.79 171.776 304.55 171.628C304.31 171.48 304.036 171.406 303.729 171.406C303.498 171.406 303.284 171.449 303.087 171.536C302.893 171.622 302.722 171.742 302.574 171.896C302.43 172.05 302.316 172.228 302.233 172.431C302.15 172.631 302.108 172.845 302.108 173.073C302.108 173.378 302.177 173.656 302.316 173.909C302.458 174.161 302.648 174.362 302.888 174.513C303.132 174.664 303.407 174.739 303.715 174.739Z" fill="black"/>
<path d="M198.219 172.837C197.567 172.837 196.985 172.717 196.474 172.477C195.967 172.237 195.563 171.906 195.265 171.485C194.966 171.063 194.811 170.58 194.799 170.035H196.738C196.759 170.401 196.913 170.698 197.199 170.926C197.485 171.154 197.826 171.268 198.219 171.268C198.533 171.268 198.81 171.198 199.05 171.06C199.294 170.918 199.483 170.723 199.618 170.474C199.757 170.221 199.826 169.932 199.826 169.606C199.826 169.273 199.755 168.981 199.614 168.728C199.475 168.476 199.283 168.279 199.037 168.138C198.79 167.996 198.509 167.924 198.192 167.921C197.915 167.921 197.645 167.978 197.384 168.091C197.125 168.205 196.924 168.361 196.779 168.558L195.002 168.239L195.45 163.253H201.229V164.888H197.098L196.853 167.256H196.908C197.075 167.022 197.325 166.828 197.661 166.674C197.996 166.52 198.372 166.443 198.787 166.443C199.357 166.443 199.864 166.577 200.311 166.845C200.757 167.113 201.109 167.48 201.368 167.948C201.626 168.413 201.754 168.949 201.751 169.555C201.754 170.192 201.606 170.758 201.308 171.254C201.012 171.746 200.598 172.134 200.066 172.417C199.537 172.697 198.921 172.837 198.219 172.837ZM207.259 163.253V172.708H205.26V165.151H205.204L203.039 166.508V164.735L205.38 163.253H207.259ZM213.134 172.837C212.648 172.834 212.179 172.753 211.726 172.592C211.277 172.432 210.874 172.172 210.517 171.812C210.16 171.452 209.876 170.975 209.667 170.381C209.461 169.787 209.358 169.058 209.358 168.193C209.361 167.399 209.452 166.69 209.63 166.065C209.812 165.437 210.07 164.904 210.406 164.467C210.744 164.03 211.149 163.698 211.62 163.47C212.091 163.239 212.619 163.124 213.203 163.124C213.834 163.124 214.391 163.247 214.875 163.493C215.358 163.737 215.746 164.067 216.038 164.486C216.333 164.905 216.512 165.374 216.573 165.894H214.602C214.525 165.565 214.364 165.306 214.117 165.118C213.871 164.931 213.567 164.837 213.203 164.837C212.588 164.837 212.12 165.105 211.8 165.64C211.483 166.176 211.321 166.903 211.315 167.824H211.38C211.521 167.544 211.712 167.305 211.952 167.108C212.195 166.908 212.471 166.756 212.779 166.651C213.09 166.543 213.417 166.489 213.762 166.489C214.322 166.489 214.821 166.622 215.258 166.887C215.695 167.148 216.039 167.508 216.292 167.967C216.544 168.425 216.67 168.95 216.67 169.541C216.67 170.181 216.521 170.75 216.223 171.249C215.927 171.748 215.513 172.139 214.981 172.422C214.451 172.702 213.836 172.84 213.134 172.837ZM213.125 171.268C213.433 171.268 213.708 171.194 213.951 171.046C214.194 170.898 214.385 170.698 214.524 170.446C214.662 170.193 214.731 169.91 214.731 169.596C214.731 169.282 214.662 169.001 214.524 168.752C214.388 168.502 214.201 168.304 213.96 168.156C213.72 168.008 213.447 167.934 213.139 167.934C212.908 167.934 212.694 167.978 212.497 168.064C212.303 168.15 212.132 168.27 211.985 168.424C211.84 168.578 211.726 168.756 211.643 168.959C211.56 169.159 211.518 169.373 211.518 169.601C211.518 169.906 211.588 170.184 211.726 170.437C211.868 170.689 212.059 170.891 212.299 171.041C212.542 171.192 212.817 171.268 213.125 171.268Z" fill="black"/>
<path d="M115.219 172.837C114.567 172.837 113.985 172.717 113.474 172.477C112.967 172.237 112.563 171.906 112.265 171.485C111.966 171.063 111.811 170.58 111.799 170.035H113.738C113.759 170.401 113.913 170.698 114.199 170.926C114.485 171.154 114.826 171.268 115.219 171.268C115.533 171.268 115.81 171.198 116.05 171.06C116.294 170.918 116.483 170.723 116.618 170.474C116.757 170.221 116.826 169.932 116.826 169.606C116.826 169.273 116.755 168.981 116.614 168.728C116.475 168.476 116.283 168.279 116.037 168.138C115.79 167.996 115.509 167.924 115.192 167.921C114.915 167.921 114.645 167.978 114.384 168.091C114.125 168.205 113.924 168.361 113.779 168.558L112.002 168.239L112.45 163.253H118.229V164.888H114.098L113.853 167.256H113.908C114.075 167.022 114.325 166.828 114.661 166.674C114.996 166.52 115.372 166.443 115.787 166.443C116.357 166.443 116.864 166.577 117.311 166.845C117.757 167.113 118.109 167.48 118.368 167.948C118.626 168.413 118.754 168.949 118.751 169.555C118.754 170.192 118.606 170.758 118.308 171.254C118.012 171.746 117.598 172.134 117.066 172.417C116.537 172.697 115.921 172.837 115.219 172.837ZM124.259 163.253V172.708H122.26V165.151H122.204L120.039 166.508V164.735L122.38 163.253H124.259ZM130.213 172.916C129.419 172.913 128.735 172.717 128.163 172.329C127.594 171.942 127.155 171.38 126.847 170.644C126.543 169.909 126.392 169.024 126.395 167.99C126.395 166.959 126.547 166.08 126.852 165.354C127.16 164.628 127.598 164.075 128.168 163.697C128.74 163.315 129.422 163.124 130.213 163.124C131.004 163.124 131.684 163.315 132.253 163.697C132.826 164.078 133.266 164.632 133.573 165.358C133.881 166.082 134.034 166.959 134.03 167.99C134.03 169.027 133.877 169.913 133.569 170.649C133.264 171.384 132.827 171.946 132.258 172.334C131.688 172.722 131.007 172.916 130.213 172.916ZM130.213 171.258C130.754 171.258 131.187 170.986 131.51 170.441C131.833 169.896 131.993 169.079 131.99 167.99C131.99 167.273 131.916 166.676 131.768 166.199C131.624 165.722 131.418 165.363 131.15 165.123C130.885 164.883 130.573 164.763 130.213 164.763C129.674 164.763 129.243 165.032 128.92 165.571C128.597 166.109 128.434 166.916 128.431 167.99C128.431 168.716 128.503 169.322 128.648 169.809C128.795 170.292 129.003 170.655 129.271 170.898C129.539 171.138 129.853 171.258 130.213 171.258Z" fill="black"/>
<path d="M283.219 127.702C282.567 127.702 281.985 127.582 281.474 127.342C280.967 127.102 280.563 126.771 280.265 126.35C279.966 125.928 279.811 125.445 279.799 124.9H281.738C281.759 125.266 281.913 125.563 282.199 125.791C282.485 126.019 282.826 126.133 283.219 126.133C283.533 126.133 283.81 126.063 284.05 125.925C284.294 125.783 284.483 125.588 284.618 125.339C284.757 125.086 284.826 124.797 284.826 124.471C284.826 124.138 284.755 123.846 284.614 123.594C284.475 123.341 284.283 123.144 284.037 123.003C283.79 122.861 283.509 122.789 283.192 122.786C282.915 122.786 282.645 122.843 282.384 122.957C282.125 123.07 281.924 123.226 281.779 123.423L280.002 123.104L280.45 118.119H286.229V119.753H282.098L281.853 122.121H281.908C282.075 121.887 282.325 121.693 282.661 121.539C282.996 121.385 283.372 121.308 283.787 121.308C284.357 121.308 284.864 121.442 285.311 121.71C285.757 121.978 286.109 122.346 286.368 122.813C286.626 123.278 286.754 123.814 286.751 124.42C286.754 125.057 286.606 125.623 286.308 126.119C286.012 126.611 285.598 126.999 285.066 127.282C284.537 127.562 283.921 127.702 283.219 127.702ZM291.852 127.781C291.058 127.778 290.375 127.582 289.803 127.195C289.233 126.807 288.795 126.245 288.487 125.509C288.182 124.774 288.031 123.889 288.034 122.855C288.034 121.824 288.187 120.945 288.491 120.219C288.799 119.493 289.238 118.94 289.807 118.562C290.38 118.18 291.061 117.989 291.852 117.989C292.643 117.989 293.323 118.18 293.893 118.562C294.465 118.943 294.905 119.497 295.213 120.224C295.521 120.947 295.673 121.824 295.67 122.855C295.67 123.892 295.516 124.779 295.208 125.514C294.904 126.25 294.467 126.811 293.897 127.199C293.328 127.587 292.646 127.781 291.852 127.781ZM291.852 126.123C292.394 126.123 292.826 125.851 293.15 125.306C293.473 124.762 293.633 123.945 293.63 122.855C293.63 122.138 293.556 121.541 293.408 121.064C293.263 120.587 293.057 120.228 292.789 119.988C292.525 119.748 292.212 119.628 291.852 119.628C291.314 119.628 290.883 119.897 290.56 120.436C290.237 120.975 290.073 121.781 290.07 122.855C290.07 123.581 290.143 124.188 290.287 124.674C290.435 125.157 290.643 125.52 290.911 125.763C291.178 126.003 291.492 126.123 291.852 126.123ZM300.516 117.989C301.003 117.989 301.47 118.071 301.92 118.234C302.372 118.397 302.775 118.657 303.129 119.014C303.486 119.371 303.768 119.845 303.974 120.436C304.183 121.024 304.289 121.746 304.293 122.601C304.293 123.404 304.202 124.121 304.02 124.752C303.842 125.38 303.585 125.914 303.249 126.354C302.914 126.794 302.509 127.13 302.035 127.361C301.561 127.588 301.032 127.702 300.447 127.702C299.816 127.702 299.259 127.581 298.776 127.338C298.293 127.091 297.903 126.757 297.608 126.336C297.315 125.911 297.139 125.434 297.077 124.905H299.048C299.125 125.249 299.287 125.517 299.533 125.708C299.779 125.896 300.084 125.99 300.447 125.99C301.063 125.99 301.53 125.722 301.85 125.186C302.17 124.648 302.332 123.911 302.335 122.975H302.271C302.129 123.252 301.938 123.491 301.698 123.691C301.458 123.888 301.183 124.04 300.872 124.148C300.564 124.255 300.236 124.309 299.888 124.309C299.331 124.309 298.834 124.178 298.397 123.917C297.96 123.655 297.616 123.295 297.363 122.837C297.111 122.378 296.985 121.855 296.985 121.267C296.982 120.633 297.128 120.068 297.423 119.573C297.719 119.077 298.131 118.689 298.66 118.409C299.193 118.126 299.811 117.986 300.516 117.989ZM300.53 119.559C300.219 119.559 299.942 119.633 299.699 119.78C299.459 119.928 299.268 120.127 299.127 120.376C298.988 120.625 298.92 120.904 298.924 121.212C298.924 121.522 298.991 121.802 299.127 122.052C299.265 122.298 299.453 122.495 299.69 122.643C299.93 122.787 300.204 122.86 300.512 122.86C300.742 122.86 300.956 122.817 301.153 122.73C301.35 122.644 301.521 122.526 301.666 122.375C301.813 122.221 301.929 122.044 302.012 121.844C302.095 121.644 302.137 121.432 302.137 121.207C302.134 120.908 302.063 120.634 301.924 120.385C301.786 120.136 301.595 119.936 301.352 119.785C301.109 119.634 300.835 119.559 300.53 119.559Z" fill="black"/>
<path d="M199.219 127.702C198.567 127.702 197.985 127.582 197.474 127.342C196.967 127.102 196.563 126.771 196.265 126.35C195.966 125.928 195.811 125.445 195.799 124.9H197.738C197.759 125.266 197.913 125.563 198.199 125.791C198.485 126.019 198.826 126.133 199.219 126.133C199.533 126.133 199.81 126.063 200.05 125.925C200.294 125.783 200.483 125.588 200.618 125.339C200.757 125.086 200.826 124.797 200.826 124.471C200.826 124.138 200.755 123.846 200.614 123.594C200.475 123.341 200.283 123.144 200.037 123.003C199.79 122.861 199.509 122.789 199.192 122.786C198.915 122.786 198.645 122.843 198.384 122.957C198.125 123.07 197.924 123.226 197.779 123.423L196.002 123.104L196.45 118.119H202.229V119.753H198.098L197.853 122.121H197.908C198.075 121.887 198.325 121.693 198.661 121.539C198.996 121.385 199.372 121.308 199.787 121.308C200.357 121.308 200.864 121.442 201.311 121.71C201.757 121.978 202.109 122.346 202.368 122.813C202.626 123.278 202.754 123.814 202.751 124.42C202.754 125.057 202.606 125.623 202.308 126.119C202.012 126.611 201.598 126.999 201.066 127.282C200.537 127.562 199.921 127.702 199.219 127.702ZM207.852 127.781C207.058 127.778 206.375 127.582 205.803 127.195C205.233 126.807 204.795 126.245 204.487 125.509C204.182 124.774 204.031 123.889 204.034 122.855C204.034 121.824 204.187 120.945 204.491 120.219C204.799 119.493 205.238 118.94 205.807 118.562C206.38 118.18 207.061 117.989 207.852 117.989C208.643 117.989 209.323 118.18 209.893 118.562C210.465 118.943 210.905 119.497 211.213 120.224C211.521 120.947 211.673 121.824 211.67 122.855C211.67 123.892 211.516 124.779 211.208 125.514C210.904 126.25 210.467 126.811 209.897 127.199C209.328 127.587 208.646 127.781 207.852 127.781ZM207.852 126.123C208.394 126.123 208.826 125.851 209.15 125.306C209.473 124.762 209.633 123.945 209.63 122.855C209.63 122.138 209.556 121.541 209.408 121.064C209.263 120.587 209.057 120.228 208.789 119.988C208.525 119.748 208.212 119.628 207.852 119.628C207.314 119.628 206.883 119.897 206.56 120.436C206.237 120.975 206.073 121.781 206.07 122.855C206.07 123.581 206.143 124.188 206.287 124.674C206.435 125.157 206.643 125.52 206.911 125.763C207.178 126.003 207.492 126.123 207.852 126.123ZM213.095 127.573V126.133L216.461 123.017C216.747 122.74 216.987 122.49 217.181 122.269C217.378 122.047 217.527 121.83 217.629 121.618C217.73 121.402 217.781 121.17 217.781 120.921C217.781 120.644 217.718 120.405 217.592 120.205C217.466 120.002 217.293 119.847 217.075 119.739C216.856 119.628 216.609 119.573 216.332 119.573C216.042 119.573 215.79 119.631 215.574 119.748C215.359 119.865 215.193 120.033 215.076 120.251C214.959 120.47 214.9 120.73 214.9 121.032H213.003C213.003 120.413 213.143 119.876 213.423 119.42C213.703 118.965 214.096 118.612 214.6 118.363C215.105 118.114 215.687 117.989 216.345 117.989C217.023 117.989 217.612 118.109 218.114 118.349C218.618 118.586 219.011 118.916 219.291 119.337C219.571 119.759 219.711 120.242 219.711 120.787C219.711 121.144 219.64 121.496 219.498 121.844C219.36 122.192 219.112 122.578 218.755 123.003C218.398 123.424 217.895 123.931 217.246 124.522L215.865 125.874V125.939H219.835V127.573H213.095Z" fill="black"/>
<path d="M115.219 124.23C114.567 124.23 113.985 124.11 113.474 123.87C112.967 123.63 112.563 123.299 112.265 122.878C111.966 122.456 111.811 121.973 111.799 121.428H113.738C113.759 121.794 113.913 122.091 114.199 122.319C114.485 122.547 114.826 122.661 115.219 122.661C115.533 122.661 115.81 122.592 116.05 122.453C116.294 122.311 116.483 122.116 116.618 121.867C116.757 121.614 116.826 121.325 116.826 120.999C116.826 120.666 116.755 120.374 116.614 120.122C116.475 119.869 116.283 119.672 116.037 119.531C115.79 119.389 115.509 119.317 115.192 119.314C114.915 119.314 114.645 119.371 114.384 119.485C114.125 119.599 113.924 119.754 113.779 119.951L112.002 119.632L112.45 114.647H118.229V116.281H114.098L113.853 118.649H113.908C114.075 118.415 114.325 118.221 114.661 118.067C114.996 117.914 115.372 117.837 115.787 117.837C116.357 117.837 116.864 117.97 117.311 118.238C117.757 118.506 118.109 118.874 118.368 119.342C118.626 119.806 118.754 120.342 118.751 120.948C118.754 121.585 118.606 122.151 118.308 122.647C118.012 123.139 117.598 123.527 117.066 123.81C116.537 124.09 115.921 124.23 115.219 124.23ZM124.259 114.647V124.101H122.26V116.544H122.204L120.039 117.901V116.128L122.38 114.647H124.259ZM126.88 124.101L130.799 116.345V116.281H126.233V114.647H132.867V116.304L128.943 124.101H126.88Z" fill="black"/>
<path d="M198.219 74.4664C197.567 74.4664 196.985 74.3463 196.474 74.1063C195.967 73.8662 195.563 73.5354 195.265 73.1137C194.966 72.6921 194.811 72.2089 194.799 71.6642H196.738C196.759 72.0304 196.913 72.3274 197.199 72.5551C197.485 72.7829 197.826 72.8968 198.219 72.8968C198.533 72.8968 198.81 72.8275 199.05 72.689C199.294 72.5474 199.483 72.352 199.618 72.1027C199.757 71.8504 199.826 71.5611 199.826 71.2348C199.826 70.9024 199.755 70.6101 199.614 70.3577C199.475 70.1053 199.283 69.9084 199.037 69.7668C198.79 69.6252 198.509 69.5529 198.192 69.5498C197.915 69.5498 197.645 69.6067 197.384 69.7206C197.125 69.8345 196.924 69.9899 196.779 70.1869L195.002 69.8683L195.45 64.8826H201.229V66.5168H197.098L196.853 68.885H196.908C197.075 68.6511 197.325 68.4572 197.661 68.3034C197.996 68.1495 198.372 68.0725 198.787 68.0725C199.357 68.0725 199.864 68.2064 200.311 68.4742C200.757 68.7419 201.109 69.1097 201.368 69.5775C201.626 70.0422 201.754 70.5777 201.751 71.184C201.754 71.8211 201.606 72.3874 201.308 72.8829C201.012 73.3753 200.598 73.7631 200.066 74.0463C199.537 74.3263 198.921 74.4664 198.219 74.4664ZM206.852 74.5448C206.058 74.5418 205.375 74.3463 204.803 73.9585C204.233 73.5708 203.795 73.0091 203.487 72.2735C203.182 71.538 203.031 70.6531 203.034 69.6191C203.034 68.588 203.187 67.7094 203.491 66.983C203.799 66.2567 204.238 65.7043 204.807 65.3257C205.38 64.9441 206.061 64.7533 206.852 64.7533C207.643 64.7533 208.323 64.9441 208.893 65.3257C209.465 65.7074 209.905 66.2613 210.213 66.9877C210.521 67.7109 210.673 68.588 210.67 69.6191C210.67 70.6562 210.516 71.5426 210.208 72.2781C209.904 73.0137 209.467 73.5754 208.897 73.9632C208.328 74.3509 207.646 74.5448 206.852 74.5448ZM206.852 72.8875C207.394 72.8875 207.826 72.6152 208.15 72.0704C208.473 71.5257 208.633 70.7085 208.63 69.6191C208.63 68.902 208.556 68.3049 208.408 67.8279C208.263 67.3508 208.057 66.9923 207.789 66.7522C207.525 66.5122 207.212 66.3921 206.852 66.3921C206.314 66.3921 205.883 66.6614 205.56 67.2C205.237 67.7386 205.073 68.545 205.07 69.6191C205.07 70.3454 205.143 70.9517 205.287 71.4379C205.435 71.9211 205.643 72.2843 205.911 72.5274C206.178 72.7675 206.492 72.8875 206.852 72.8875ZM215.549 74.4664C214.896 74.4664 214.314 74.3463 213.804 74.1063C213.296 73.8662 212.893 73.5354 212.594 73.1137C212.295 72.6921 212.14 72.2089 212.128 71.6642H214.067C214.088 72.0304 214.242 72.3274 214.528 72.5551C214.815 72.7829 215.155 72.8968 215.549 72.8968C215.862 72.8968 216.139 72.8275 216.38 72.689C216.623 72.5474 216.812 72.352 216.947 72.1027C217.086 71.8504 217.155 71.5611 217.155 71.2348C217.155 70.9024 217.084 70.6101 216.943 70.3577C216.804 70.1053 216.612 69.9084 216.366 69.7668C216.119 69.6252 215.838 69.5529 215.521 69.5498C215.244 69.5498 214.975 69.6067 214.713 69.7206C214.454 69.8345 214.253 69.9899 214.108 70.1869L212.331 69.8683L212.779 64.8826H218.559V66.5168H214.427L214.182 68.885H214.237C214.404 68.6511 214.655 68.4572 214.99 68.3034C215.325 68.1495 215.701 68.0725 216.116 68.0725C216.686 68.0725 217.194 68.2064 217.64 68.4742C218.086 68.7419 218.438 69.1097 218.697 69.5775C218.956 70.0422 219.083 70.5777 219.08 71.184C219.083 71.8211 218.936 72.3874 218.637 72.8829C218.342 73.3753 217.928 73.7631 217.395 74.0463C216.866 74.3263 216.25 74.4664 215.549 74.4664Z" fill="black"/>
<path d="M283.219 74.4664C282.567 74.4664 281.985 74.3463 281.474 74.1063C280.967 73.8662 280.563 73.5354 280.265 73.1137C279.966 72.6921 279.811 72.2089 279.799 71.6642H281.738C281.759 72.0304 281.913 72.3274 282.199 72.5551C282.485 72.7829 282.826 72.8968 283.219 72.8968C283.533 72.8968 283.81 72.8275 284.05 72.689C284.294 72.5474 284.483 72.352 284.618 72.1027C284.757 71.8504 284.826 71.5611 284.826 71.2348C284.826 70.9024 284.755 70.6101 284.614 70.3577C284.475 70.1053 284.283 69.9084 284.037 69.7668C283.79 69.6252 283.509 69.5529 283.192 69.5498C282.915 69.5498 282.645 69.6067 282.384 69.7206C282.125 69.8345 281.924 69.9899 281.779 70.1869L280.002 69.8683L280.45 64.8826H286.229V66.5168H282.098L281.853 68.885H281.908C282.075 68.6511 282.325 68.4572 282.661 68.3034C282.996 68.1495 283.372 68.0725 283.787 68.0725C284.357 68.0725 284.864 68.2064 285.311 68.4742C285.757 68.7419 286.109 69.1097 286.368 69.5775C286.626 70.0422 286.754 70.5777 286.751 71.184C286.754 71.8211 286.606 72.3874 286.308 72.8829C286.012 73.3753 285.598 73.7631 285.066 74.0463C284.537 74.3263 283.921 74.4664 283.219 74.4664ZM291.852 74.5448C291.058 74.5418 290.375 74.3463 289.803 73.9585C289.233 73.5708 288.795 73.0091 288.487 72.2735C288.182 71.538 288.031 70.6531 288.034 69.6191C288.034 68.588 288.187 67.7094 288.491 66.983C288.799 66.2567 289.238 65.7043 289.807 65.3257C290.38 64.9441 291.061 64.7533 291.852 64.7533C292.643 64.7533 293.323 64.9441 293.893 65.3257C294.465 65.7074 294.905 66.2613 295.213 66.9877C295.521 67.7109 295.673 68.588 295.67 69.6191C295.67 70.6562 295.516 71.5426 295.208 72.2781C294.904 73.0137 294.467 73.5754 293.897 73.9632C293.328 74.3509 292.646 74.5448 291.852 74.5448ZM291.852 72.8875C292.394 72.8875 292.826 72.6152 293.15 72.0704C293.473 71.5257 293.633 70.7085 293.63 69.6191C293.63 68.902 293.556 68.3049 293.408 67.8279C293.263 67.3508 293.057 66.9923 292.789 66.7522C292.525 66.5122 292.212 66.3921 291.852 66.3921C291.314 66.3921 290.883 66.6614 290.56 67.2C290.237 67.7386 290.073 68.545 290.07 69.6191C290.07 70.3454 290.143 70.9517 290.287 71.4379C290.435 71.9211 290.643 72.2843 290.911 72.5274C291.178 72.7675 291.492 72.8875 291.852 72.8875ZM300.622 74.4664C299.911 74.4664 299.279 74.3509 298.725 74.1201C298.174 73.8862 297.742 73.5677 297.428 73.1645C297.114 72.7613 296.957 72.3043 296.957 71.7934C296.957 71.3995 297.046 71.0379 297.225 70.7085C297.406 70.3762 297.652 70.1007 297.963 69.8822C298.274 69.6606 298.622 69.519 299.007 69.4575V69.3928C298.502 69.2913 298.093 69.0466 297.779 68.6588C297.465 68.268 297.308 67.814 297.308 67.297C297.308 66.8076 297.451 66.3721 297.737 65.9905C298.023 65.6058 298.416 65.3042 298.914 65.0857C299.416 64.8641 299.985 64.7533 300.622 64.7533C301.259 64.7533 301.827 64.8641 302.326 65.0857C302.828 65.3073 303.222 65.6104 303.508 65.9951C303.794 66.3768 303.939 66.8107 303.942 67.297C303.939 67.8171 303.779 68.271 303.462 68.6588C303.145 69.0466 302.738 69.2913 302.243 69.3928V69.4575C302.621 69.519 302.965 69.6606 303.272 69.8822C303.583 70.1007 303.829 70.3762 304.011 70.7085C304.196 71.0379 304.289 71.3995 304.293 71.7934C304.289 72.3043 304.131 72.7613 303.817 73.1645C303.503 73.5677 303.069 73.8862 302.515 74.1201C301.964 74.3509 301.333 74.4664 300.622 74.4664ZM300.622 72.9983C300.939 72.9983 301.216 72.9414 301.453 72.8275C301.69 72.7106 301.875 72.5505 302.007 72.3474C302.143 72.1412 302.21 71.9042 302.21 71.6365C302.21 71.3625 302.141 71.121 302.003 70.9117C301.864 70.6993 301.677 70.5331 301.44 70.4131C301.203 70.29 300.93 70.2284 300.622 70.2284C300.318 70.2284 300.045 70.29 299.805 70.4131C299.565 70.5331 299.376 70.6993 299.237 70.9117C299.102 71.121 299.034 71.3625 299.034 71.6365C299.034 71.9042 299.101 72.1412 299.233 72.3474C299.365 72.5505 299.551 72.7106 299.791 72.8275C300.032 72.9414 300.309 72.9983 300.622 72.9983ZM300.622 68.7742C300.887 68.7742 301.123 68.7204 301.329 68.6127C301.535 68.5049 301.697 68.3557 301.813 68.1649C301.93 67.9741 301.989 67.754 301.989 67.5047C301.989 67.2585 301.93 67.0431 301.813 66.8584C301.697 66.6707 301.536 66.5245 301.333 66.4198C301.13 66.3121 300.893 66.2583 300.622 66.2583C300.355 66.2583 300.118 66.3121 299.911 66.4198C299.705 66.5245 299.544 66.6707 299.427 66.8584C299.313 67.0431 299.256 67.2585 299.256 67.5047C299.256 67.754 299.314 67.9741 299.431 68.1649C299.548 68.3557 299.71 68.5049 299.916 68.6127C300.122 68.7204 300.358 68.7742 300.622 68.7742Z" fill="black"/>
<path d="M17.1214 74.9084C16.7971 74.9037 16.4775 74.8445 16.1626 74.7308C15.8501 74.6172 15.5661 74.4278 15.3104 74.1627C15.0547 73.8975 14.8499 73.5412 14.696 73.0938C14.5445 72.6463 14.4688 72.0876 14.4688 71.4176C14.4688 70.7832 14.5315 70.2197 14.657 69.7273C14.7848 69.2349 14.9683 68.8194 15.2074 68.4808C15.4465 68.1399 15.7353 67.8807 16.0739 67.7031C16.4124 67.5256 16.7924 67.4368 17.2138 67.4368C17.647 67.4368 18.0317 67.522 18.3679 67.6925C18.7041 67.8629 18.9763 68.0985 19.1847 68.3992C19.3954 68.6998 19.5291 69.0419 19.5859 69.4254H18.5028C18.4295 69.1224 18.2839 68.875 18.0661 68.6832C17.8482 68.4915 17.5642 68.3956 17.2138 68.3956C16.6811 68.3956 16.2656 68.6276 15.9673 69.0916C15.6714 69.5556 15.5223 70.2008 15.5199 71.027H15.5732C15.6986 70.821 15.8525 70.6458 16.0348 70.5014C16.2195 70.3547 16.4254 70.2422 16.6527 70.1641C16.8823 70.0836 17.1238 70.0433 17.3771 70.0433C17.7985 70.0433 18.1797 70.1463 18.5206 70.3523C18.8639 70.5559 19.1373 70.8376 19.3409 71.1975C19.5445 71.5573 19.6463 71.9692 19.6463 72.4332C19.6463 72.8973 19.541 73.3175 19.3303 73.6939C19.1219 74.0703 18.8284 74.3686 18.4496 74.5888C18.0708 74.8066 17.6281 74.9131 17.1214 74.9084ZM17.1179 73.9851C17.3973 73.9851 17.647 73.9164 17.8672 73.7791C18.0874 73.6418 18.2614 73.4572 18.3892 73.2252C18.517 72.9931 18.581 72.7339 18.581 72.4475C18.581 72.1681 18.5182 71.9136 18.3928 71.684C18.2696 71.4543 18.0992 71.272 17.8814 71.1371C17.666 71.0021 17.4197 70.9347 17.1428 70.9347C16.9321 70.9347 16.7367 70.9749 16.5568 71.0554C16.3793 71.1359 16.223 71.2472 16.0881 71.3892C15.9531 71.5313 15.8466 71.6946 15.7685 71.8793C15.6927 72.0616 15.6548 72.2545 15.6548 72.4581C15.6548 72.7304 15.7176 72.9825 15.843 73.2145C15.9709 73.4465 16.1449 73.6335 16.3651 73.7756C16.5876 73.9153 16.8385 73.9851 17.1179 73.9851ZM21.6536 73.907C21.4595 73.907 21.2926 73.8383 21.1529 73.701C21.0132 73.5613 20.9434 73.3932 20.9434 73.1967C20.9434 73.0026 21.0132 72.8369 21.1529 72.6996C21.2926 72.5599 21.4595 72.4901 21.6536 72.4901C21.8477 72.4901 22.0146 72.5599 22.1543 72.6996C22.294 72.8369 22.3638 73.0026 22.3638 73.1967C22.3638 73.327 22.3307 73.4465 22.2644 73.5554C22.2005 73.6619 22.1152 73.7472 22.0087 73.8111C21.9022 73.875 21.7838 73.907 21.6536 73.907ZM21.6536 70.2635C21.4595 70.2635 21.2926 70.1948 21.1529 70.0575C21.0132 69.9179 20.9434 69.7498 20.9434 69.5533C20.9434 69.3591 21.0132 69.1934 21.1529 69.0561C21.2926 68.9164 21.4595 68.8466 21.6536 68.8466C21.8477 68.8466 22.0146 68.9164 22.1543 69.0561C22.294 69.1934 22.3638 69.3591 22.3638 69.5533C22.3638 69.6835 22.3307 69.803 22.2644 69.9119C22.2005 70.0185 22.1152 70.1037 22.0087 70.1676C21.9022 70.2315 21.7838 70.2635 21.6536 70.2635ZM26.3038 74.9297C25.7427 74.9273 25.2633 74.7794 24.8656 74.4858C24.4679 74.1922 24.1636 73.7649 23.9529 73.2038C23.7422 72.6428 23.6369 71.9669 23.6369 71.1761C23.6369 70.3878 23.7422 69.7143 23.9529 69.1556C24.166 68.5968 24.4714 68.1707 24.8691 67.8771C25.2692 67.5836 25.7475 67.4368 26.3038 67.4368C26.8601 67.4368 27.3372 67.5848 27.7349 67.8807C28.1326 68.1743 28.4368 68.6004 28.6475 69.1591C28.8606 69.7154 28.9672 70.3878 28.9672 71.1761C28.9672 71.9692 28.8618 72.6463 28.6511 73.2074C28.4404 73.7661 28.1362 74.1934 27.7385 74.4894C27.3407 74.7829 26.8625 74.9297 26.3038 74.9297ZM26.3038 73.9815C26.7962 73.9815 27.1809 73.7413 27.4579 73.2607C27.7373 72.7801 27.877 72.0852 27.877 71.1761C27.877 70.5725 27.813 70.0623 27.6852 69.6456C27.5597 69.2266 27.3786 68.9093 27.1419 68.6939C26.9075 68.4761 26.6281 68.3672 26.3038 68.3672C25.8137 68.3672 25.429 68.6087 25.1497 69.0916C24.8703 69.5746 24.7295 70.2694 24.7271 71.1761C24.7271 71.7822 24.7898 72.2948 24.9153 72.7138C25.0431 73.1305 25.2243 73.4465 25.4586 73.6619C25.693 73.875 25.9747 73.9815 26.3038 73.9815ZM32.7589 74.9297C32.1978 74.9273 31.7184 74.7794 31.3207 74.4858C30.9229 74.1922 30.6187 73.7649 30.408 73.2038C30.1973 72.6428 30.092 71.9669 30.092 71.1761C30.092 70.3878 30.1973 69.7143 30.408 69.1556C30.6211 68.5968 30.9265 68.1707 31.3242 67.8771C31.7243 67.5836 32.2025 67.4368 32.7589 67.4368C33.3152 67.4368 33.7923 67.5848 34.19 67.8807C34.5877 68.1743 34.8919 68.6004 35.1026 69.1591C35.3157 69.7154 35.4222 70.3878 35.4222 71.1761C35.4222 71.9692 35.3169 72.6463 35.1062 73.2074C34.8955 73.7661 34.5913 74.1934 34.1935 74.4894C33.7958 74.7829 33.3176 74.9297 32.7589 74.9297ZM32.7589 73.9815C33.2513 73.9815 33.636 73.7413 33.913 73.2607C34.1924 72.7801 34.332 72.0852 34.332 71.1761C34.332 70.5725 34.2681 70.0623 34.1403 69.6456C34.0148 69.2266 33.8337 68.9093 33.5969 68.6939C33.3626 68.4761 33.0832 68.3672 32.7589 68.3672C32.2688 68.3672 31.8841 68.6087 31.6048 69.0916C31.3254 69.5746 31.1845 70.2694 31.1822 71.1761C31.1822 71.7822 31.2449 72.2948 31.3704 72.7138C31.4982 73.1305 31.6793 73.4465 31.9137 73.6619C32.1481 73.875 32.4298 73.9815 32.7589 73.9815ZM39.4315 71.9752C39.422 71.5656 39.4824 71.2294 39.6126 70.9666C39.7451 70.7038 39.9227 70.5097 40.1452 70.3842C40.3678 70.2564 40.6128 70.1925 40.8803 70.1925C41.1171 70.1925 41.3361 70.2434 41.5373 70.3452C41.7385 70.4446 41.9682 70.608 42.2262 70.8352C42.3872 70.9749 42.5186 71.0767 42.6204 71.1406C42.7222 71.2022 42.8358 71.233 42.9613 71.233C43.1531 71.233 43.3058 71.1619 43.4194 71.0199C43.5354 70.8755 43.591 70.6624 43.5863 70.3807H44.4847C44.4942 70.7926 44.4326 71.13 44.3001 71.3928C44.1699 71.6556 43.9923 71.8497 43.7674 71.9752C43.5449 72.1006 43.301 72.1634 43.0359 72.1634C42.7968 72.1634 42.5766 72.1125 42.3754 72.0107C42.1741 71.9065 41.9457 71.7431 41.69 71.5206C41.5243 71.3762 41.3917 71.2744 41.2923 71.2152C41.1928 71.1537 41.0804 71.1229 40.9549 71.1229C40.7726 71.1229 40.6211 71.1892 40.5004 71.3217C40.382 71.452 40.3252 71.6698 40.3299 71.9752H39.4315ZM48.8801 74.809L52.0549 68.5306V68.4773H48.383V67.5362H53.1912V68.5092L50.0272 74.809H48.8801ZM54.7981 73.907C54.604 73.907 54.4371 73.8383 54.2974 73.701C54.1577 73.5613 54.0879 73.3932 54.0879 73.1967C54.0879 73.0026 54.1577 72.8369 54.2974 72.6996C54.4371 72.5599 54.604 72.4901 54.7981 72.4901C54.9922 72.4901 55.1592 72.5599 55.2988 72.6996C55.4385 72.8369 55.5083 73.0026 55.5083 73.1967C55.5083 73.327 55.4752 73.4465 55.4089 73.5554C55.345 73.6619 55.2598 73.7472 55.1532 73.8111C55.0467 73.875 54.9283 73.907 54.7981 73.907ZM54.7981 70.2635C54.604 70.2635 54.4371 70.1948 54.2974 70.0575C54.1577 69.9179 54.0879 69.7498 54.0879 69.5533C54.0879 69.3591 54.1577 69.1934 54.2974 69.0561C54.4371 68.9164 54.604 68.8466 54.7981 68.8466C54.9922 68.8466 55.1592 68.9164 55.2988 69.0561C55.4385 69.1934 55.5083 69.3591 55.5083 69.5533C55.5083 69.6835 55.4752 69.803 55.4089 69.9119C55.345 70.0185 55.2598 70.1037 55.1532 70.1676C55.0467 70.2315 54.9283 70.2635 54.7981 70.2635ZM59.4483 74.9084C58.9606 74.9084 58.525 74.8243 58.1415 74.6563C57.7604 74.4882 57.4585 74.255 57.236 73.9567C57.0158 73.656 56.8974 73.308 56.8809 72.9127H57.9959C58.0101 73.1281 58.0823 73.3151 58.2125 73.4737C58.3451 73.63 58.5179 73.7507 58.731 73.8359C58.9441 73.9212 59.1808 73.9638 59.4412 73.9638C59.7277 73.9638 59.981 73.9141 60.2012 73.8146C60.4237 73.7152 60.5977 73.5767 60.7232 73.3992C60.8487 73.2192 60.9114 73.0121 60.9114 72.7777C60.9114 72.5339 60.8487 72.3196 60.7232 72.135C60.6001 71.9479 60.419 71.8011 60.1799 71.6946C59.9431 71.5881 59.6567 71.5348 59.3205 71.5348H58.7061V70.6399H59.3205C59.5904 70.6399 59.8271 70.5914 60.0307 70.4943C60.2367 70.3973 60.3977 70.2623 60.5137 70.0895C60.6297 69.9143 60.6877 69.7095 60.6877 69.4752C60.6877 69.2502 60.6368 69.0549 60.535 68.8892C60.4355 68.7211 60.2935 68.5897 60.1088 68.495C59.9266 68.4003 59.7111 68.353 59.4625 68.353C59.2258 68.353 59.0044 68.3968 58.7985 68.4844C58.5949 68.5696 58.4292 68.6927 58.3013 68.8537C58.1735 69.0123 58.1048 69.2029 58.0953 69.4254H57.0336C57.0454 69.0324 57.1614 68.6868 57.3816 68.3885C57.6041 68.0902 57.8977 67.857 58.2623 67.6889C58.6268 67.5208 59.0317 67.4368 59.4767 67.4368C59.9431 67.4368 60.3456 67.5279 60.6841 67.7102C61.025 67.8902 61.2878 68.1305 61.4725 68.4311C61.6595 68.7318 61.7518 69.0609 61.7495 69.4183C61.7518 69.8255 61.6382 70.1712 61.4086 70.4553C61.1813 70.7394 60.8783 70.9299 60.4995 71.027V71.0838C60.9824 71.1572 61.3565 71.349 61.6216 71.6591C61.8891 71.9692 62.0217 72.3539 62.0194 72.8132C62.0217 73.2133 61.9105 73.572 61.6855 73.8892C61.463 74.2065 61.1588 74.4562 60.7729 74.6385C60.387 74.8184 59.9455 74.9084 59.4483 74.9084ZM65.8936 74.9297C65.3326 74.9273 64.8532 74.7794 64.4554 74.4858C64.0577 74.1922 63.7535 73.7649 63.5428 73.2038C63.3321 72.6428 63.2267 71.9669 63.2267 71.1761C63.2267 70.3878 63.3321 69.7143 63.5428 69.1556C63.7559 68.5968 64.0613 68.1707 64.459 67.8771C64.8591 67.5836 65.3373 67.4368 65.8936 67.4368C66.45 67.4368 66.927 67.5848 67.3248 67.8807C67.7225 68.1743 68.0267 68.6004 68.2374 69.1591C68.4505 69.7154 68.557 70.3878 68.557 71.1761C68.557 71.9692 68.4516 72.6463 68.2409 73.2074C68.0302 73.7661 67.726 74.1934 67.3283 74.4894C66.9306 74.7829 66.4524 74.9297 65.8936 74.9297ZM65.8936 73.9815C66.3861 73.9815 66.7708 73.7413 67.0478 73.2607C67.3271 72.7801 67.4668 72.0852 67.4668 71.1761C67.4668 70.5725 67.4029 70.0623 67.275 69.6456C67.1496 69.2266 66.9685 68.9093 66.7317 68.6939C66.4973 68.4761 66.218 68.3672 65.8936 68.3672C65.4036 68.3672 65.0189 68.6087 64.7395 69.0916C64.4602 69.5746 64.3193 70.2694 64.3169 71.1761C64.3169 71.7822 64.3797 72.2948 64.5051 72.7138C64.633 73.1305 64.8141 73.4465 65.0485 73.6619C65.2828 73.875 65.5646 73.9815 65.8936 73.9815Z" fill="black"/>
<path d="M17.1052 173.279C16.5962 173.279 16.1464 173.192 15.7558 173.016C15.3675 172.841 15.0633 172.6 14.8431 172.292C14.623 171.984 14.5141 171.634 14.5164 171.241C14.5141 170.933 14.5768 170.65 14.7046 170.392C14.8348 170.132 15.0112 169.915 15.2338 169.742C15.4563 169.567 15.7049 169.456 15.9795 169.409V169.366C15.6173 169.278 15.3273 169.084 15.1095 168.784C14.8917 168.483 14.7839 168.137 14.7863 167.747C14.7839 167.375 14.8822 167.043 15.0811 166.752C15.2823 166.459 15.5581 166.228 15.9085 166.06C16.2588 165.892 16.6578 165.808 17.1052 165.808C17.5479 165.808 17.9433 165.893 18.2913 166.063C18.6417 166.231 18.9175 166.462 19.1187 166.756C19.3199 167.047 19.4217 167.377 19.4241 167.747C19.4217 168.137 19.3105 168.483 19.0903 168.784C18.8701 169.084 18.5837 169.278 18.2309 169.366V169.409C18.5032 169.456 18.7482 169.567 18.966 169.742C19.1862 169.915 19.3614 170.132 19.4916 170.392C19.6241 170.65 19.6916 170.933 19.694 171.241C19.6916 171.634 19.5803 171.984 19.3602 172.292C19.14 172.6 18.8346 172.841 18.444 173.016C18.0557 173.192 17.6095 173.279 17.1052 173.279ZM17.1052 172.381C17.4059 172.381 17.6663 172.331 17.8865 172.232C18.1066 172.13 18.2771 171.989 18.3978 171.809C18.5186 171.627 18.5801 171.414 18.5825 171.17C18.5801 170.917 18.5138 170.693 18.3836 170.499C18.2558 170.305 18.0818 170.152 17.8616 170.041C17.6414 169.929 17.3893 169.874 17.1052 169.874C16.8187 169.874 16.5642 169.929 16.3417 170.041C16.1192 170.152 15.944 170.305 15.8161 170.499C15.6883 170.693 15.6256 170.917 15.6279 171.17C15.6256 171.414 15.6836 171.627 15.8019 171.809C15.9227 171.989 16.0943 172.13 16.3169 172.232C16.5394 172.331 16.8022 172.381 17.1052 172.381ZM17.1052 168.997C17.3467 168.997 17.5609 168.948 17.748 168.851C17.935 168.754 18.0818 168.619 18.1883 168.446C18.2972 168.273 18.3528 168.071 18.3552 167.839C18.3528 167.612 18.2984 167.413 18.1919 167.242C18.0877 167.072 17.9421 166.94 17.7551 166.848C17.568 166.753 17.3514 166.706 17.1052 166.706C16.8543 166.706 16.6341 166.753 16.4447 166.848C16.2577 166.94 16.1121 167.072 16.0079 167.242C15.9037 167.413 15.8528 167.612 15.8552 167.839C15.8528 168.071 15.9049 168.273 16.0115 168.446C16.118 168.619 16.2648 168.754 16.4518 168.851C16.6412 168.948 16.859 168.997 17.1052 168.997ZM21.68 172.278C21.4858 172.278 21.3189 172.209 21.1792 172.072C21.0396 171.932 20.9697 171.764 20.9697 171.568C20.9697 171.373 21.0396 171.208 21.1792 171.07C21.3189 170.931 21.4858 170.861 21.68 170.861C21.8741 170.861 22.041 170.931 22.1807 171.07C22.3203 171.208 22.3902 171.373 22.3902 171.568C22.3902 171.698 22.357 171.817 22.2907 171.926C22.2268 172.033 22.1416 172.118 22.0351 172.182C21.9285 172.246 21.8102 172.278 21.68 172.278ZM21.68 168.634C21.4858 168.634 21.3189 168.566 21.1792 168.428C21.0396 168.289 20.9697 168.121 20.9697 167.924C20.9697 167.73 21.0396 167.564 21.1792 167.427C21.3189 167.287 21.4858 167.217 21.68 167.217C21.8741 167.217 22.041 167.287 22.1807 167.427C22.3203 167.564 22.3902 167.73 22.3902 167.924C22.3902 168.054 22.357 168.174 22.2907 168.283C22.2268 168.389 22.1416 168.475 22.0351 168.538C21.9285 168.602 21.8102 168.634 21.68 168.634ZM26.3302 173.301C25.7691 173.298 25.2897 173.15 24.892 172.857C24.4942 172.563 24.19 172.136 23.9793 171.575C23.7686 171.014 23.6633 170.338 23.6633 169.547C23.6633 168.759 23.7686 168.085 23.9793 167.526C24.1924 166.968 24.4978 166.542 24.8955 166.248C25.2956 165.954 25.7738 165.808 26.3302 165.808C26.8865 165.808 27.3635 165.956 27.7613 166.252C28.159 166.545 28.4632 166.971 28.6739 167.53C28.887 168.086 28.9935 168.759 28.9935 169.547C28.9935 170.34 28.8882 171.017 28.6775 171.578C28.4668 172.137 28.1626 172.564 27.7648 172.86C27.3671 173.154 26.8889 173.301 26.3302 173.301ZM26.3302 172.352C26.8226 172.352 27.2073 172.112 27.4843 171.632C27.7636 171.151 27.9033 170.456 27.9033 169.547C27.9033 168.943 27.8394 168.433 27.7116 168.016C27.5861 167.597 27.405 167.28 27.1682 167.065C26.9339 166.847 26.6545 166.738 26.3302 166.738C25.8401 166.738 25.4554 166.98 25.176 167.462C24.8967 167.945 24.7558 168.64 24.7535 169.547C24.7535 170.153 24.8162 170.666 24.9417 171.085C25.0695 171.501 25.2506 171.817 25.485 172.033C25.7194 172.246 26.0011 172.352 26.3302 172.352ZM32.7852 173.301C32.2242 173.298 31.7448 173.15 31.347 172.857C30.9493 172.563 30.6451 172.136 30.4344 171.575C30.2237 171.014 30.1183 170.338 30.1183 169.547C30.1183 168.759 30.2237 168.085 30.4344 167.526C30.6475 166.968 30.9529 166.542 31.3506 166.248C31.7507 165.954 32.2289 165.808 32.7852 165.808C33.3416 165.808 33.8186 165.956 34.2164 166.252C34.6141 166.545 34.9183 166.971 35.129 167.53C35.3421 168.086 35.4486 168.759 35.4486 169.547C35.4486 170.34 35.3432 171.017 35.1325 171.578C34.9218 172.137 34.6176 172.564 34.2199 172.86C33.8222 173.154 33.344 173.301 32.7852 173.301ZM32.7852 172.352C33.2777 172.352 33.6624 172.112 33.9394 171.632C34.2187 171.151 34.3584 170.456 34.3584 169.547C34.3584 168.943 34.2945 168.433 34.1666 168.016C34.0412 167.597 33.8601 167.28 33.6233 167.065C33.3889 166.847 33.1096 166.738 32.7852 166.738C32.2952 166.738 31.9105 166.98 31.6311 167.462C31.3518 167.945 31.2109 168.64 31.2085 169.547C31.2085 170.153 31.2713 170.666 31.3968 171.085C31.5246 171.501 31.7057 171.817 31.9401 172.033C32.1744 172.246 32.4562 172.352 32.7852 172.352ZM39.4578 170.346C39.4484 169.936 39.5087 169.6 39.6389 169.337C39.7715 169.075 39.9491 168.881 40.1716 168.755C40.3941 168.627 40.6392 168.563 40.9067 168.563C41.1434 168.563 41.3624 168.614 41.5637 168.716C41.7649 168.815 41.9945 168.979 42.2526 169.206C42.4136 169.346 42.545 169.448 42.6468 169.511C42.7486 169.573 42.8622 169.604 42.9877 169.604C43.1794 169.604 43.3321 169.533 43.4458 169.391C43.5618 169.246 43.6174 169.033 43.6127 168.752H44.5111C44.5206 169.163 44.459 169.501 44.3264 169.764C44.1962 170.026 44.0187 170.221 43.7938 170.346C43.5712 170.471 43.3274 170.534 43.0622 170.534C42.8231 170.534 42.603 170.483 42.4017 170.382C42.2005 170.277 41.972 170.114 41.7164 169.891C41.5506 169.747 41.4181 169.645 41.3186 169.586C41.2192 169.525 41.1067 169.494 40.9813 169.494C40.799 169.494 40.6475 169.56 40.5267 169.693C40.4084 169.823 40.3515 170.041 40.3563 170.346H39.4578ZM51.0798 165.808C51.4041 165.81 51.7238 165.869 52.0386 165.985C52.3535 166.101 52.6376 166.291 52.8909 166.553C53.1466 166.816 53.3502 167.171 53.5017 167.619C53.6556 168.064 53.7337 168.618 53.7361 169.281C53.7361 169.917 53.6721 170.484 53.5443 170.982C53.4165 171.476 53.233 171.894 52.9939 172.235C52.7571 172.576 52.4695 172.835 52.1309 173.013C51.7924 173.19 51.4113 173.279 50.9875 173.279C50.5542 173.279 50.1695 173.194 49.8334 173.024C49.4972 172.853 49.2238 172.618 49.0131 172.317C48.8023 172.014 48.671 171.666 48.6189 171.273H49.702C49.773 171.585 49.9174 171.839 50.1352 172.033C50.3554 172.225 50.6395 172.32 50.9875 172.32C51.5202 172.32 51.9356 172.088 52.2339 171.624C52.5322 171.158 52.6826 170.507 52.6849 169.671H52.6281C52.505 169.875 52.3511 170.05 52.1665 170.197C51.9842 170.344 51.7794 170.457 51.5521 170.538C51.3248 170.618 51.0822 170.659 50.8241 170.659C50.4051 170.659 50.0239 170.556 49.6807 170.35C49.3374 170.144 49.064 169.861 48.8604 169.501C48.6568 169.141 48.555 168.73 48.555 168.269C48.555 167.809 48.6591 167.393 48.8675 167.019C49.0782 166.645 49.3717 166.349 49.7481 166.131C50.1269 165.911 50.5708 165.803 51.0798 165.808ZM51.0834 166.731C50.8064 166.731 50.5566 166.8 50.3341 166.937C50.1139 167.072 49.9399 167.255 49.8121 167.487C49.6842 167.717 49.6203 167.973 49.6203 168.254C49.6203 168.536 49.6818 168.792 49.805 169.021C49.9304 169.249 50.1009 169.43 50.3163 169.565C50.5341 169.697 50.7827 169.764 51.0621 169.764C51.2704 169.764 51.4645 169.723 51.6444 169.643C51.8244 169.562 51.9818 169.451 52.1167 169.309C52.2517 169.165 52.357 169.001 52.4328 168.819C52.5086 168.637 52.5464 168.445 52.5464 168.244C52.5464 167.976 52.4825 167.728 52.3547 167.498C52.2292 167.268 52.0564 167.084 51.8362 166.944C51.616 166.802 51.3651 166.731 51.0834 166.731ZM55.7327 172.278C55.5386 172.278 55.3717 172.209 55.232 172.072C55.0923 171.932 55.0225 171.764 55.0225 171.568C55.0225 171.373 55.0923 171.208 55.232 171.07C55.3717 170.931 55.5386 170.861 55.7327 170.861C55.9268 170.861 56.0937 170.931 56.2334 171.07C56.3731 171.208 56.4429 171.373 56.4429 171.568C56.4429 171.698 56.4098 171.817 56.3435 171.926C56.2796 172.033 56.1943 172.118 56.0878 172.182C55.9813 172.246 55.8629 172.278 55.7327 172.278ZM55.7327 168.634C55.5386 168.634 55.3717 168.566 55.232 168.428C55.0923 168.289 55.0225 168.121 55.0225 167.924C55.0225 167.73 55.0923 167.564 55.232 167.427C55.3717 167.287 55.5386 167.217 55.7327 167.217C55.9268 167.217 56.0937 167.287 56.2334 167.427C56.3731 167.564 56.4429 167.73 56.4429 167.924C56.4429 168.054 56.4098 168.174 56.3435 168.283C56.2796 168.389 56.1943 168.475 56.0878 168.538C55.9813 168.602 55.8629 168.634 55.7327 168.634ZM60.3829 173.279C59.8952 173.279 59.4596 173.195 59.0761 173.027C58.6949 172.859 58.3931 172.626 58.1705 172.328C57.9504 172.027 57.832 171.679 57.8154 171.284H58.9305C58.9447 171.499 59.0169 171.686 59.1471 171.845C59.2797 172.001 59.4525 172.122 59.6656 172.207C59.8786 172.292 60.1154 172.335 60.3758 172.335C60.6623 172.335 60.9156 172.285 61.1357 172.185C61.3583 172.086 61.5323 171.948 61.6578 171.77C61.7832 171.59 61.846 171.383 61.846 171.149C61.846 170.905 61.7832 170.69 61.6578 170.506C61.5347 170.319 61.3535 170.172 61.1144 170.065C60.8777 169.959 60.5912 169.906 60.2551 169.906H59.6407V169.011H60.2551C60.5249 169.011 60.7617 168.962 60.9653 168.865C61.1713 168.768 61.3322 168.633 61.4482 168.46C61.5642 168.285 61.6222 168.08 61.6222 167.846C61.6222 167.621 61.5713 167.426 61.4695 167.26C61.3701 167.092 61.2281 166.961 61.0434 166.866C60.8611 166.771 60.6457 166.724 60.3971 166.724C60.1604 166.724 59.939 166.768 59.733 166.855C59.5294 166.94 59.3637 167.064 59.2359 167.225C59.108 167.383 59.0394 167.574 59.0299 167.796H57.9681C57.98 167.403 58.096 167.058 58.3161 166.759C58.5387 166.461 58.8322 166.228 59.1968 166.06C59.5614 165.892 59.9662 165.808 60.4113 165.808C60.8777 165.808 61.2802 165.899 61.6187 166.081C61.9596 166.261 62.2224 166.501 62.407 166.802C62.5941 167.103 62.6864 167.432 62.684 167.789C62.6864 168.196 62.5728 168.542 62.3431 168.826C62.1159 169.11 61.8128 169.301 61.434 169.398V169.455C61.917 169.528 62.291 169.72 62.5562 170.03C62.8237 170.34 62.9563 170.725 62.9539 171.184C62.9563 171.584 62.845 171.943 62.6201 172.26C62.3976 172.577 62.0934 172.827 61.7075 173.009C61.3216 173.189 60.8801 173.279 60.3829 173.279ZM66.8282 173.301C66.2671 173.298 65.7877 173.15 65.39 172.857C64.9923 172.563 64.6881 172.136 64.4774 171.575C64.2667 171.014 64.1613 170.338 64.1613 169.547C64.1613 168.759 64.2667 168.085 64.4774 167.526C64.6904 166.968 64.9958 166.542 65.3936 166.248C65.7936 165.954 66.2719 165.808 66.8282 165.808C67.3846 165.808 67.8616 165.956 68.2593 166.252C68.657 166.545 68.9613 166.971 69.172 167.53C69.385 168.086 69.4916 168.759 69.4916 169.547C69.4916 170.34 69.3862 171.017 69.1755 171.578C68.9648 172.137 68.6606 172.564 68.2629 172.86C67.8651 173.154 67.3869 173.301 66.8282 173.301ZM66.8282 172.352C67.3206 172.352 67.7053 172.112 67.9823 171.632C68.2617 171.151 68.4014 170.456 68.4014 169.547C68.4014 168.943 68.3374 168.433 68.2096 168.016C68.0841 167.597 67.903 167.28 67.6663 167.065C67.4319 166.847 67.1526 166.738 66.8282 166.738C66.3382 166.738 65.9535 166.98 65.6741 167.462C65.3947 167.945 65.2539 168.64 65.2515 169.547C65.2515 170.153 65.3142 170.666 65.4397 171.085C65.5676 171.501 65.7487 171.817 65.983 172.033C66.2174 172.246 66.4991 172.352 66.8282 172.352Z" fill="black"/>
<path d="M14.8469 124.573L18.0217 118.295V118.241H14.3498V117.3H19.158V118.273L15.994 124.573H14.8469ZM20.7649 123.671C20.5708 123.671 20.4039 123.602 20.2642 123.465C20.1245 123.325 20.0547 123.157 20.0547 122.961C20.0547 122.767 20.1245 122.601 20.2642 122.464C20.4039 122.324 20.5708 122.254 20.7649 122.254C20.959 122.254 21.1259 122.324 21.2656 122.464C21.4053 122.601 21.4751 122.767 21.4751 122.961C21.4751 123.091 21.442 123.211 21.3757 123.32C21.3118 123.426 21.2266 123.511 21.12 123.575C21.0135 123.639 20.8951 123.671 20.7649 123.671ZM20.7649 120.028C20.5708 120.028 20.4039 119.959 20.2642 119.822C20.1245 119.682 20.0547 119.514 20.0547 119.317C20.0547 119.123 20.1245 118.958 20.2642 118.82C20.4039 118.681 20.5708 118.611 20.7649 118.611C20.959 118.611 21.1259 118.681 21.2656 118.82C21.4053 118.958 21.4751 119.123 21.4751 119.317C21.4751 119.448 21.442 119.567 21.3757 119.676C21.3118 119.783 21.2266 119.868 21.12 119.932C21.0135 119.996 20.8951 120.028 20.7649 120.028ZM25.4151 124.672C24.9274 124.672 24.4918 124.588 24.1083 124.42C23.7272 124.252 23.4253 124.019 23.2028 123.721C22.9826 123.42 22.8642 123.072 22.8477 122.677H23.9627C23.9769 122.892 24.0491 123.079 24.1793 123.238C24.3119 123.394 24.4847 123.515 24.6978 123.6C24.9109 123.685 25.1476 123.728 25.408 123.728C25.6945 123.728 25.9478 123.678 26.168 123.579C26.3905 123.479 26.5645 123.341 26.69 123.163C26.8155 122.983 26.8782 122.776 26.8782 122.542C26.8782 122.298 26.8155 122.084 26.69 121.899C26.5669 121.712 26.3858 121.565 26.1467 121.459C25.9099 121.352 25.6235 121.299 25.2873 121.299H24.6729V120.404H25.2873C25.5572 120.404 25.7939 120.355 25.9975 120.258C26.2035 120.161 26.3645 120.026 26.4805 119.854C26.5965 119.678 26.6545 119.474 26.6545 119.239C26.6545 119.014 26.6036 118.819 26.5018 118.653C26.4023 118.485 26.2603 118.354 26.0756 118.259C25.8933 118.164 25.6779 118.117 25.4293 118.117C25.1926 118.117 24.9712 118.161 24.7653 118.248C24.5617 118.334 24.396 118.457 24.2681 118.618C24.1403 118.776 24.0716 118.967 24.0621 119.19H23.0004C23.0122 118.797 23.1282 118.451 23.3484 118.153C23.5709 117.854 23.8645 117.621 24.229 117.453C24.5936 117.285 24.9985 117.201 25.4435 117.201C25.9099 117.201 26.3124 117.292 26.6509 117.474C26.9918 117.654 27.2546 117.895 27.4393 118.195C27.6263 118.496 27.7186 118.825 27.7163 119.182C27.7186 119.59 27.605 119.935 27.3754 120.219C27.1481 120.503 26.8451 120.694 26.4663 120.791V120.848C26.9492 120.921 27.3233 121.113 27.5884 121.423C27.8559 121.733 27.9885 122.118 27.9862 122.577C27.9885 122.977 27.8772 123.336 27.6523 123.653C27.4298 123.971 27.1256 124.22 26.7397 124.403C26.3538 124.583 25.9123 124.672 25.4151 124.672ZM31.8604 124.694C31.2994 124.691 30.82 124.543 30.4222 124.25C30.0245 123.956 29.7203 123.529 29.5096 122.968C29.2989 122.407 29.1935 121.731 29.1935 120.94C29.1935 120.152 29.2989 119.478 29.5096 118.92C29.7227 118.361 30.0281 117.935 30.4258 117.641C30.8259 117.348 31.3041 117.201 31.8604 117.201C32.4168 117.201 32.8938 117.349 33.2915 117.645C33.6893 117.938 33.9935 118.364 34.2042 118.923C34.4173 119.48 34.5238 120.152 34.5238 120.94C34.5238 121.733 34.4184 122.41 34.2077 122.971C33.997 123.53 33.6928 123.958 33.2951 124.253C32.8974 124.547 32.4192 124.694 31.8604 124.694ZM31.8604 123.746C32.3529 123.746 32.7376 123.505 33.0146 123.025C33.2939 122.544 33.4336 121.849 33.4336 120.94C33.4336 120.337 33.3697 119.826 33.2418 119.41C33.1164 118.991 32.9353 118.673 32.6985 118.458C32.4641 118.24 32.1848 118.131 31.8604 118.131C31.3704 118.131 30.9857 118.373 30.7063 118.856C30.427 119.339 30.2861 120.034 30.2837 120.94C30.2837 121.546 30.3465 122.059 30.4719 122.478C30.5998 122.895 30.7809 123.211 31.0153 123.426C31.2496 123.639 31.5314 123.746 31.8604 123.746ZM38.533 121.739C38.5236 121.33 38.5839 120.994 38.7141 120.731C38.8467 120.468 39.0243 120.274 39.2468 120.148C39.4693 120.021 39.7144 119.957 39.9819 119.957C40.2186 119.957 40.4376 120.007 40.6388 120.109C40.8401 120.209 41.0697 120.372 41.3278 120.599C41.4888 120.739 41.6201 120.841 41.7219 120.905C41.8237 120.966 41.9374 120.997 42.0629 120.997C42.2546 120.997 42.4073 120.926 42.521 120.784C42.637 120.64 42.6926 120.427 42.6879 120.145H43.5863C43.5958 120.557 43.5342 120.894 43.4016 121.157C43.2714 121.42 43.0939 121.614 42.869 121.739C42.6464 121.865 42.4026 121.927 42.1374 121.927C41.8983 121.927 41.6781 121.877 41.4769 121.775C41.2757 121.671 41.0472 121.507 40.7915 121.285C40.6258 121.14 40.4933 121.038 40.3938 120.979C40.2944 120.918 40.1819 120.887 40.0565 120.887C39.8742 120.887 39.7227 120.953 39.6019 121.086C39.4835 121.216 39.4267 121.434 39.4315 121.739H38.533ZM50.1941 124.672C49.6851 124.672 49.2353 124.585 48.8446 124.41C48.4564 124.235 48.1522 123.993 47.932 123.685C47.7118 123.378 47.6029 123.027 47.6053 122.634C47.6029 122.326 47.6657 122.043 47.7935 121.785C47.9237 121.525 48.1001 121.308 48.3226 121.136C48.5452 120.96 48.7937 120.849 49.0684 120.802V120.759C48.7061 120.672 48.4161 120.477 48.1983 120.177C47.9805 119.876 47.8728 119.53 47.8752 119.14C47.8728 118.768 47.9711 118.437 48.1699 118.146C48.3712 117.852 48.647 117.621 48.9973 117.453C49.3477 117.285 49.7466 117.201 50.1941 117.201C50.6368 117.201 51.0321 117.286 51.3801 117.457C51.7305 117.625 52.0063 117.855 52.2076 118.149C52.4088 118.44 52.5106 118.771 52.513 119.14C52.5106 119.53 52.3993 119.876 52.1792 120.177C51.959 120.477 51.6725 120.672 51.3198 120.759V120.802C51.592 120.849 51.8371 120.96 52.0549 121.136C52.275 121.308 52.4502 121.525 52.5804 121.785C52.713 122.043 52.7805 122.326 52.7828 122.634C52.7805 123.027 52.6692 123.378 52.449 123.685C52.2289 123.993 51.9235 124.235 51.5328 124.41C51.1446 124.585 50.6983 124.672 50.1941 124.672ZM50.1941 123.774C50.4947 123.774 50.7551 123.724 50.9753 123.625C51.1955 123.523 51.3659 123.382 51.4867 123.202C51.6074 123.02 51.669 122.807 51.6713 122.563C51.669 122.31 51.6027 122.086 51.4725 121.892C51.3446 121.698 51.1706 121.545 50.9505 121.434C50.7303 121.323 50.4782 121.267 50.1941 121.267C49.9076 121.267 49.6531 121.323 49.4306 121.434C49.208 121.545 49.0328 121.698 48.905 121.892C48.7772 122.086 48.7144 122.31 48.7168 122.563C48.7144 122.807 48.7724 123.02 48.8908 123.202C49.0115 123.382 49.1832 123.523 49.4057 123.625C49.6283 123.724 49.891 123.774 50.1941 123.774ZM50.1941 120.39C50.4355 120.39 50.6498 120.341 50.8368 120.244C51.0239 120.147 51.1706 120.012 51.2772 119.839C51.3861 119.667 51.4417 119.464 51.4441 119.232C51.4417 119.005 51.3873 118.806 51.2807 118.636C51.1766 118.465 51.031 118.334 50.8439 118.241C50.6569 118.147 50.4403 118.099 50.1941 118.099C49.9431 118.099 49.723 118.147 49.5336 118.241C49.3465 118.334 49.2009 118.465 49.0968 118.636C48.9926 118.806 48.9417 119.005 48.9441 119.232C48.9417 119.464 48.9938 119.667 49.1003 119.839C49.2069 120.012 49.3536 120.147 49.5407 120.244C49.7301 120.341 49.9479 120.39 50.1941 120.39ZM54.7688 123.671C54.5747 123.671 54.4078 123.602 54.2681 123.465C54.1284 123.325 54.0586 123.157 54.0586 122.961C54.0586 122.767 54.1284 122.601 54.2681 122.464C54.4078 122.324 54.5747 122.254 54.7688 122.254C54.9629 122.254 55.1299 122.324 55.2695 122.464C55.4092 122.601 55.479 122.767 55.479 122.961C55.479 123.091 55.4459 123.211 55.3796 123.32C55.3157 123.426 55.2305 123.511 55.1239 123.575C55.0174 123.639 54.899 123.671 54.7688 123.671ZM54.7688 120.028C54.5747 120.028 54.4078 119.959 54.2681 119.822C54.1284 119.682 54.0586 119.514 54.0586 119.317C54.0586 119.123 54.1284 118.958 54.2681 118.82C54.4078 118.681 54.5747 118.611 54.7688 118.611C54.9629 118.611 55.1299 118.681 55.2695 118.82C55.4092 118.958 55.479 119.123 55.479 119.317C55.479 119.448 55.4459 119.567 55.3796 119.676C55.3157 119.783 55.2305 119.868 55.1239 119.932C55.0174 119.996 54.899 120.028 54.7688 120.028ZM59.419 124.694C58.858 124.691 58.3786 124.543 57.9808 124.25C57.5831 123.956 57.2789 123.529 57.0682 122.968C56.8575 122.407 56.7521 121.731 56.7521 120.94C56.7521 120.152 56.8575 119.478 57.0682 118.92C57.2813 118.361 57.5866 117.935 57.9844 117.641C58.3845 117.348 58.8627 117.201 59.419 117.201C59.9754 117.201 60.4524 117.349 60.8501 117.645C61.2479 117.938 61.5521 118.364 61.7628 118.923C61.9759 119.48 62.0824 120.152 62.0824 120.94C62.0824 121.733 61.977 122.41 61.7663 122.971C61.5556 123.53 61.2514 123.958 60.8537 124.253C60.456 124.547 59.9777 124.694 59.419 124.694ZM59.419 123.746C59.9115 123.746 60.2962 123.505 60.5732 123.025C60.8525 122.544 60.9922 121.849 60.9922 120.94C60.9922 120.337 60.9283 119.826 60.8004 119.41C60.675 118.991 60.4938 118.673 60.2571 118.458C60.0227 118.24 59.7434 118.131 59.419 118.131C58.929 118.131 58.5443 118.373 58.2649 118.856C57.9856 119.339 57.8447 120.034 57.8423 120.94C57.8423 121.546 57.9051 122.059 58.0305 122.478C58.1584 122.895 58.3395 123.211 58.5739 123.426C58.8082 123.639 59.09 123.746 59.419 123.746ZM65.8741 124.694C65.313 124.691 64.8336 124.543 64.4359 124.25C64.0382 123.956 63.734 123.529 63.5233 122.968C63.3126 122.407 63.2072 121.731 63.2072 120.94C63.2072 120.152 63.3126 119.478 63.5233 118.92C63.7363 118.361 64.0417 117.935 64.4395 117.641C64.8395 117.348 65.3178 117.201 65.8741 117.201C66.4305 117.201 66.9075 117.349 67.3052 117.645C67.7029 117.938 68.0072 118.364 68.2179 118.923C68.4309 119.48 68.5375 120.152 68.5375 120.94C68.5375 121.733 68.4321 122.41 68.2214 122.971C68.0107 123.53 67.7065 123.958 67.3088 124.253C66.911 124.547 66.4328 124.694 65.8741 124.694ZM65.8741 123.746C66.3665 123.746 66.7512 123.505 67.0282 123.025C67.3076 122.544 67.4473 121.849 67.4473 120.94C67.4473 120.337 67.3833 119.826 67.2555 119.41C67.13 118.991 66.9489 118.673 66.7122 118.458C66.4778 118.24 66.1984 118.131 65.8741 118.131C65.3841 118.131 64.9993 118.373 64.72 118.856C64.4406 119.339 64.2998 120.034 64.2974 120.94C64.2974 121.546 64.3601 122.059 64.4856 122.478C64.6135 122.895 64.7946 123.211 65.0289 123.426C65.2633 123.639 65.545 123.746 65.8741 123.746Z" fill="black"/>
</svg>
