<svg width="350" height="255" viewBox="0 0 350 255" fill="none" xmlns="http://www.w3.org/2000/svg">
<line x1="8.23535" y1="41.6348" x2="340.735" y2="41.6348" stroke="#8A8A8A"/>
<line x1="8.23535" y1="140.478" x2="340.735" y2="140.478" stroke="#8A8A8A"/>
<line y1="-0.5" x2="332.381" y2="-0.5" transform="matrix(1 0 -0.00088499 1 8.28052 91.4775)" stroke="#8A8A8A"/>
<line x1="8.23535" y1="189.927" x2="340.735" y2="189.927" stroke="#8A8A8A"/>
<line x1="7.20581" y1="235.5" x2="339.706" y2="235.5" stroke="#AAAAAA"/>
<line x1="84.9412" y1="236.021" x2="84.9412" y2="42.0309" stroke="#8A8A8A"/>
<line x1="258.003" y1="236" x2="258.003" y2="42.1347" stroke="#8A8A8A"/>
<line x1="170.382" y1="236.083" x2="170.382" y2="42.0524" stroke="#8A8A8A"/>
<path d="M21.4304 71.9084C21.1061 71.9037 20.7864 71.8445 20.4716 71.7308C20.1591 71.6172 19.875 71.4278 19.6193 71.1627C19.3636 70.8975 19.1588 70.5412 19.005 70.0938C18.8534 69.6463 18.7777 69.0876 18.7777 68.4176C18.7777 67.7832 18.8404 67.2197 18.9659 66.7273C19.0937 66.2349 19.2772 65.8194 19.5163 65.4808C19.7554 65.1399 20.0443 64.8807 20.3828 64.7031C20.7213 64.5256 21.1013 64.4368 21.5227 64.4368C21.956 64.4368 22.3407 64.522 22.6768 64.6925C23.013 64.8629 23.2853 65.0985 23.4936 65.3992C23.7043 65.6998 23.8381 66.0419 23.8949 66.4254H22.8118C22.7384 66.1224 22.5928 65.875 22.375 65.6832C22.1572 65.4915 21.8731 65.3956 21.5227 65.3956C20.99 65.3956 20.5746 65.6276 20.2763 66.0916C19.9803 66.5556 19.8312 67.2008 19.8288 68.027H19.8821C20.0076 67.821 20.1614 67.6458 20.3437 67.5014C20.5284 67.3547 20.7344 67.2422 20.9616 67.1641C21.1913 67.0836 21.4328 67.0433 21.6861 67.0433C22.1075 67.0433 22.4886 67.1463 22.8295 67.3523C23.1728 67.5559 23.4462 67.8376 23.6498 68.1975C23.8534 68.5573 23.9552 68.9692 23.9552 69.4332C23.9552 69.8973 23.8499 70.3175 23.6392 70.6939C23.4309 71.0703 23.1373 71.3686 22.7585 71.5888C22.3797 71.8066 21.937 71.9131 21.4304 71.9084ZM21.4268 70.9851C21.7062 70.9851 21.956 70.9164 22.1761 70.7791C22.3963 70.6418 22.5703 70.4572 22.6981 70.2252C22.826 69.9931 22.8899 69.7339 22.8899 69.4475C22.8899 69.1681 22.8272 68.9136 22.7017 68.684C22.5786 68.4543 22.4081 68.272 22.1903 68.1371C21.9749 68.0021 21.7287 67.9347 21.4517 67.9347C21.241 67.9347 21.0457 67.9749 20.8658 68.0554C20.6882 68.1359 20.532 68.2472 20.397 68.3892C20.2621 68.5313 20.1555 68.6946 20.0774 68.8793C20.0016 69.0616 19.9638 69.2545 19.9638 69.4581C19.9638 69.7304 20.0265 69.9825 20.152 70.2145C20.2798 70.4465 20.4538 70.6335 20.674 70.7756C20.8965 70.9153 21.1475 70.9851 21.4268 70.9851ZM25.9625 70.907C25.7684 70.907 25.6015 70.8383 25.4618 70.701C25.3221 70.5613 25.2523 70.3932 25.2523 70.1967C25.2523 70.0026 25.3221 69.8369 25.4618 69.6996C25.6015 69.5599 25.7684 69.4901 25.9625 69.4901C26.1567 69.4901 26.3236 69.5599 26.4632 69.6996C26.6029 69.8369 26.6728 70.0026 26.6728 70.1967C26.6728 70.327 26.6396 70.4465 26.5733 70.5554C26.5094 70.6619 26.4242 70.7472 26.3176 70.8111C26.2111 70.875 26.0927 70.907 25.9625 70.907ZM25.9625 67.2635C25.7684 67.2635 25.6015 67.1948 25.4618 67.0575C25.3221 66.9179 25.2523 66.7498 25.2523 66.5533C25.2523 66.3591 25.3221 66.1934 25.4618 66.0561C25.6015 65.9164 25.7684 65.8466 25.9625 65.8466C26.1567 65.8466 26.3236 65.9164 26.4632 66.0561C26.6029 66.1934 26.6728 66.3591 26.6728 66.5533C26.6728 66.6835 26.6396 66.803 26.5733 66.9119C26.5094 67.0185 26.4242 67.1037 26.3176 67.1676C26.2111 67.2315 26.0927 67.2635 25.9625 67.2635ZM30.6127 71.9297C30.0517 71.9273 29.5723 71.7794 29.1745 71.4858C28.7768 71.1922 28.4726 70.7649 28.2619 70.2038C28.0512 69.6428 27.9458 68.9669 27.9458 68.1761C27.9458 67.3878 28.0512 66.7143 28.2619 66.1556C28.475 65.5968 28.7804 65.1707 29.1781 64.8771C29.5782 64.5836 30.0564 64.4368 30.6127 64.4368C31.1691 64.4368 31.6461 64.5848 32.0438 64.8807C32.4416 65.1743 32.7458 65.6004 32.9565 66.1591C33.1696 66.7154 33.2761 67.3878 33.2761 68.1761C33.2761 68.9692 33.1707 69.6463 32.96 70.2074C32.7493 70.7661 32.4451 71.1934 32.0474 71.4894C31.6497 71.7829 31.1715 71.9297 30.6127 71.9297ZM30.6127 70.9815C31.1052 70.9815 31.4899 70.7413 31.7669 70.2607C32.0462 69.7801 32.1859 69.0852 32.1859 68.1761C32.1859 67.5725 32.122 67.0623 31.9941 66.6456C31.8687 66.2266 31.6875 65.9093 31.4508 65.6939C31.2164 65.4761 30.9371 65.3672 30.6127 65.3672C30.1227 65.3672 29.738 65.6087 29.4586 66.0916C29.1793 66.5746 29.0384 67.2694 29.036 68.1761C29.036 68.7822 29.0988 69.2948 29.2242 69.7138C29.3521 70.1305 29.5332 70.4465 29.7676 70.6619C30.0019 70.875 30.2837 70.9815 30.6127 70.9815ZM37.0678 71.9297C36.5067 71.9273 36.0273 71.7794 35.6296 71.4858C35.2319 71.1922 34.9277 70.7649 34.717 70.2038C34.5063 69.6428 34.4009 68.9669 34.4009 68.1761C34.4009 67.3878 34.5063 66.7143 34.717 66.1556C34.93 65.5968 35.2354 65.1707 35.6332 64.8771C36.0333 64.5836 36.5115 64.4368 37.0678 64.4368C37.6242 64.4368 38.1012 64.5848 38.4989 64.8807C38.8967 65.1743 39.2009 65.6004 39.4116 66.1591C39.6246 66.7154 39.7312 67.3878 39.7312 68.1761C39.7312 68.9692 39.6258 69.6463 39.4151 70.2074C39.2044 70.7661 38.9002 71.1934 38.5025 71.4894C38.1047 71.7829 37.6265 71.9297 37.0678 71.9297ZM37.0678 70.9815C37.5602 70.9815 37.9449 70.7413 38.2219 70.2607C38.5013 69.7801 38.641 69.0852 38.641 68.1761C38.641 67.5725 38.577 67.0623 38.4492 66.6456C38.3237 66.2266 38.1426 65.9093 37.9059 65.6939C37.6715 65.4761 37.3922 65.3672 37.0678 65.3672C36.5778 65.3672 36.1931 65.6087 35.9137 66.0916C35.6343 66.5746 35.4935 67.2694 35.4911 68.1761C35.4911 68.7822 35.5538 69.2948 35.6793 69.7138C35.8072 70.1305 35.9883 70.4465 36.2226 70.6619C36.457 70.875 36.7387 70.9815 37.0678 70.9815ZM43.7404 68.9752C43.7309 68.5656 43.7913 68.2294 43.9215 67.9666C44.0541 67.7038 44.2316 67.5097 44.4542 67.3842C44.6767 67.2564 44.9217 67.1925 45.1893 67.1925C45.426 67.1925 45.645 67.2434 45.8462 67.3452C46.0475 67.4446 46.2771 67.608 46.5351 67.8352C46.6961 67.9749 46.8275 68.0767 46.9293 68.1406C47.0311 68.2022 47.1448 68.233 47.2702 68.233C47.462 68.233 47.6147 68.1619 47.7283 68.0199C47.8443 67.8755 47.9 67.6624 47.8952 67.3807H48.7937C48.8031 67.7926 48.7416 68.13 48.609 68.3928C48.4788 68.6556 48.3012 68.8497 48.0763 68.9752C47.8538 69.1006 47.61 69.1634 47.3448 69.1634C47.1057 69.1634 46.8855 69.1125 46.6843 69.0107C46.4831 68.9065 46.2546 68.7431 45.9989 68.5206C45.8332 68.3762 45.7006 68.2744 45.6012 68.2152C45.5018 68.1537 45.3893 68.1229 45.2638 68.1229C45.0815 68.1229 44.93 68.1892 44.8093 68.3217C44.6909 68.452 44.6341 68.6698 44.6388 68.9752H43.7404ZM53.1891 71.809L56.3638 65.5306V65.4773H52.6919V64.5362H57.5002V65.5092L54.3361 71.809H53.1891ZM59.1071 70.907C58.9129 70.907 58.746 70.8383 58.6063 70.701C58.4667 70.5613 58.3968 70.3932 58.3968 70.1967C58.3968 70.0026 58.4667 69.8369 58.6063 69.6996C58.746 69.5599 58.9129 69.4901 59.1071 69.4901C59.3012 69.4901 59.4681 69.5599 59.6078 69.6996C59.7474 69.8369 59.8173 70.0026 59.8173 70.1967C59.8173 70.327 59.7841 70.4465 59.7179 70.5554C59.6539 70.6619 59.5687 70.7472 59.4622 70.8111C59.3556 70.875 59.2373 70.907 59.1071 70.907ZM59.1071 67.2635C58.9129 67.2635 58.746 67.1948 58.6063 67.0575C58.4667 66.9179 58.3968 66.7498 58.3968 66.5533C58.3968 66.3591 58.4667 66.1934 58.6063 66.0561C58.746 65.9164 58.9129 65.8466 59.1071 65.8466C59.3012 65.8466 59.4681 65.9164 59.6078 66.0561C59.7474 66.1934 59.8173 66.3591 59.8173 66.5533C59.8173 66.6835 59.7841 66.803 59.7179 66.9119C59.6539 67.0185 59.5687 67.1037 59.4622 67.1676C59.3556 67.2315 59.2373 67.2635 59.1071 67.2635ZM63.7573 71.9084C63.2696 71.9084 62.834 71.8243 62.4504 71.6563C62.0693 71.4882 61.7674 71.255 61.5449 70.9567C61.3247 70.656 61.2064 70.308 61.1898 69.9127H62.3049C62.3191 70.1281 62.3913 70.3151 62.5215 70.4737C62.654 70.63 62.8269 70.7507 63.0399 70.8359C63.253 70.9212 63.4897 70.9638 63.7502 70.9638C64.0366 70.9638 64.2899 70.9141 64.5101 70.8146C64.7326 70.7152 64.9067 70.5767 65.0321 70.3992C65.1576 70.2192 65.2203 70.0121 65.2203 69.7777C65.2203 69.5339 65.1576 69.3196 65.0321 69.135C64.909 68.9479 64.7279 68.8011 64.4888 68.6946C64.2521 68.5881 63.9656 68.5348 63.6294 68.5348H63.0151V67.6399H63.6294C63.8993 67.6399 64.1361 67.5914 64.3397 67.4943C64.5456 67.3973 64.7066 67.2623 64.8226 67.0895C64.9386 66.9143 64.9966 66.7095 64.9966 66.4752C64.9966 66.2502 64.9457 66.0549 64.8439 65.8892C64.7445 65.7211 64.6024 65.5897 64.4178 65.495C64.2355 65.4003 64.0201 65.353 63.7715 65.353C63.5347 65.353 63.3134 65.3968 63.1074 65.4844C62.9038 65.5696 62.7381 65.6927 62.6103 65.8537C62.4824 66.0123 62.4138 66.2029 62.4043 66.4254H61.3425C61.3543 66.0324 61.4703 65.6868 61.6905 65.3885C61.913 65.0902 62.2066 64.857 62.5712 64.6889C62.9358 64.5208 63.3406 64.4368 63.7857 64.4368C64.2521 64.4368 64.6545 64.5279 64.9931 64.7102C65.334 64.8902 65.5968 65.1305 65.7814 65.4311C65.9684 65.7318 66.0608 66.0609 66.0584 66.4183C66.0608 66.8255 65.9471 67.1712 65.7175 67.4553C65.4902 67.7394 65.1872 67.9299 64.8084 68.027V68.0838C65.2914 68.1572 65.6654 68.349 65.9306 68.6591C66.1981 68.9692 66.3307 69.3539 66.3283 69.8132C66.3307 70.2133 66.2194 70.572 65.9945 70.8892C65.7719 71.2065 65.4677 71.4562 65.0818 71.6385C64.696 71.8184 64.2544 71.9084 63.7573 71.9084ZM70.2026 71.9297C69.6415 71.9273 69.1621 71.7794 68.7644 71.4858C68.3666 71.1922 68.0624 70.7649 67.8517 70.2038C67.641 69.6428 67.5357 68.9669 67.5357 68.1761C67.5357 67.3878 67.641 66.7143 67.8517 66.1556C68.0648 65.5968 68.3702 65.1707 68.7679 64.8771C69.168 64.5836 69.6462 64.4368 70.2026 64.4368C70.7589 64.4368 71.236 64.5848 71.6337 64.8807C72.0314 65.1743 72.3356 65.6004 72.5463 66.1591C72.7594 66.7154 72.8659 67.3878 72.8659 68.1761C72.8659 68.9692 72.7606 69.6463 72.5499 70.2074C72.3392 70.7661 72.035 71.1934 71.6372 71.4894C71.2395 71.7829 70.7613 71.9297 70.2026 71.9297ZM70.2026 70.9815C70.695 70.9815 71.0797 70.7413 71.3567 70.2607C71.6361 69.7801 71.7757 69.0852 71.7757 68.1761C71.7757 67.5725 71.7118 67.0623 71.584 66.6456C71.4585 66.2266 71.2774 65.9093 71.0406 65.6939C70.8063 65.4761 70.5269 65.3672 70.2026 65.3672C69.7125 65.3672 69.3278 65.6087 69.0485 66.0916C68.7691 66.5746 68.6282 67.2694 68.6259 68.1761C68.6259 68.7822 68.6886 69.2948 68.8141 69.7138C68.9419 70.1305 69.123 70.4465 69.3574 70.6619C69.5918 70.875 69.8735 70.9815 70.2026 70.9815Z" fill="black"/>
<path d="M21.4288 169.279C20.9199 169.279 20.47 169.192 20.0794 169.016C19.6912 168.841 19.3869 168.6 19.1668 168.292C18.9466 167.984 18.8377 167.634 18.8401 167.241C18.8377 166.933 18.9004 166.65 19.0283 166.392C19.1585 166.132 19.3349 165.915 19.5574 165.742C19.7799 165.567 20.0285 165.456 20.3031 165.409V165.366C19.9409 165.278 19.6509 165.084 19.4331 164.784C19.2153 164.483 19.1076 164.137 19.11 163.747C19.1076 163.375 19.2058 163.043 19.4047 162.752C19.6059 162.459 19.8817 162.228 20.2321 162.06C20.5825 161.892 20.9814 161.808 21.4288 161.808C21.8716 161.808 22.2669 161.893 22.6149 162.063C22.9653 162.231 23.2411 162.462 23.4423 162.756C23.6436 163.047 23.7454 163.377 23.7477 163.747C23.7454 164.137 23.6341 164.483 23.4139 164.784C23.1938 165.084 22.9073 165.278 22.5546 165.366V165.409C22.8268 165.456 23.0718 165.567 23.2896 165.742C23.5098 165.915 23.685 166.132 23.8152 166.392C23.9478 166.65 24.0153 166.933 24.0176 167.241C24.0153 167.634 23.904 167.984 23.6838 168.292C23.4636 168.6 23.1583 168.841 22.7676 169.016C22.3794 169.192 21.9331 169.279 21.4288 169.279ZM21.4288 168.381C21.7295 168.381 21.9899 168.331 22.2101 168.232C22.4303 168.13 22.6007 167.989 22.7215 167.809C22.8422 167.627 22.9038 167.414 22.9061 167.17C22.9038 166.917 22.8375 166.693 22.7073 166.499C22.5794 166.305 22.4054 166.152 22.1852 166.041C21.9651 165.929 21.7129 165.874 21.4288 165.874C21.1424 165.874 20.8879 165.929 20.6654 166.041C20.4428 166.152 20.2676 166.305 20.1398 166.499C20.0119 166.693 19.9492 166.917 19.9516 167.17C19.9492 167.414 20.0072 167.627 20.1256 167.809C20.2463 167.989 20.418 168.13 20.6405 168.232C20.863 168.331 21.1258 168.381 21.4288 168.381ZM21.4288 164.997C21.6703 164.997 21.8846 164.948 22.0716 164.851C22.2586 164.754 22.4054 164.619 22.5119 164.446C22.6208 164.273 22.6765 164.071 22.6788 163.839C22.6765 163.612 22.622 163.413 22.5155 163.242C22.4113 163.072 22.2657 162.94 22.0787 162.848C21.8917 162.753 21.6751 162.706 21.4288 162.706C21.1779 162.706 20.9577 162.753 20.7683 162.848C20.5813 162.94 20.4357 163.072 20.3315 163.242C20.2274 163.413 20.1765 163.612 20.1788 163.839C20.1765 164.071 20.2286 164.273 20.3351 164.446C20.4416 164.619 20.5884 164.754 20.7754 164.851C20.9648 164.948 21.1826 164.997 21.4288 164.997ZM26.0036 168.278C25.8095 168.278 25.6426 168.209 25.5029 168.072C25.3632 167.932 25.2934 167.764 25.2934 167.568C25.2934 167.373 25.3632 167.208 25.5029 167.07C25.6426 166.931 25.8095 166.861 26.0036 166.861C26.1977 166.861 26.3646 166.931 26.5043 167.07C26.644 167.208 26.7138 167.373 26.7138 167.568C26.7138 167.698 26.6807 167.817 26.6144 167.926C26.5505 168.033 26.4652 168.118 26.3587 168.182C26.2522 168.246 26.1338 168.278 26.0036 168.278ZM26.0036 164.634C25.8095 164.634 25.6426 164.566 25.5029 164.428C25.3632 164.289 25.2934 164.121 25.2934 163.924C25.2934 163.73 25.3632 163.564 25.5029 163.427C25.6426 163.287 25.8095 163.217 26.0036 163.217C26.1977 163.217 26.3646 163.287 26.5043 163.427C26.644 163.564 26.7138 163.73 26.7138 163.924C26.7138 164.054 26.6807 164.174 26.6144 164.283C26.5505 164.389 26.4652 164.475 26.3587 164.538C26.2522 164.602 26.1338 164.634 26.0036 164.634ZM30.6538 169.301C30.0927 169.298 29.6133 169.15 29.2156 168.857C28.8179 168.563 28.5137 168.136 28.303 167.575C28.0923 167.014 27.9869 166.338 27.9869 165.547C27.9869 164.759 28.0923 164.085 28.303 163.526C28.516 162.968 28.8214 162.542 29.2192 162.248C29.6192 161.954 30.0975 161.808 30.6538 161.808C31.2102 161.808 31.6872 161.956 32.0849 162.252C32.4826 162.545 32.7869 162.971 32.9976 163.53C33.2106 164.086 33.3172 164.759 33.3172 165.547C33.3172 166.34 33.2118 167.017 33.0011 167.578C32.7904 168.137 32.4862 168.564 32.0885 168.86C31.6907 169.154 31.2125 169.301 30.6538 169.301ZM30.6538 168.352C31.1462 168.352 31.5309 168.112 31.8079 167.632C32.0873 167.151 32.227 166.456 32.227 165.547C32.227 164.943 32.163 164.433 32.0352 164.016C31.9097 163.597 31.7286 163.28 31.4919 163.065C31.2575 162.847 30.9781 162.738 30.6538 162.738C30.1638 162.738 29.779 162.98 29.4997 163.462C29.2203 163.945 29.0795 164.64 29.0771 165.547C29.0771 166.153 29.1398 166.666 29.2653 167.085C29.3932 167.501 29.5743 167.817 29.8086 168.033C30.043 168.246 30.3247 168.352 30.6538 168.352ZM37.1089 169.301C36.5478 169.298 36.0684 169.15 35.6707 168.857C35.273 168.563 34.9687 168.136 34.758 167.575C34.5473 167.014 34.442 166.338 34.442 165.547C34.442 164.759 34.5473 164.085 34.758 163.526C34.9711 162.968 35.2765 162.542 35.6742 162.248C36.0743 161.954 36.5525 161.808 37.1089 161.808C37.6652 161.808 38.1423 161.956 38.54 162.252C38.9377 162.545 39.2419 162.971 39.4526 163.53C39.6657 164.086 39.7722 164.759 39.7722 165.547C39.7722 166.34 39.6669 167.017 39.4562 167.578C39.2455 168.137 38.9413 168.564 38.5435 168.86C38.1458 169.154 37.6676 169.301 37.1089 169.301ZM37.1089 168.352C37.6013 168.352 37.986 168.112 38.263 167.632C38.5424 167.151 38.682 166.456 38.682 165.547C38.682 164.943 38.6181 164.433 38.4903 164.016C38.3648 163.597 38.1837 163.28 37.947 163.065C37.7126 162.847 37.4332 162.738 37.1089 162.738C36.6188 162.738 36.2341 162.98 35.9548 163.462C35.6754 163.945 35.5346 164.64 35.5322 165.547C35.5322 166.153 35.5949 166.666 35.7204 167.085C35.8482 167.501 36.0293 167.817 36.2637 168.033C36.4981 168.246 36.7798 168.352 37.1089 168.352ZM43.7815 166.346C43.772 165.936 43.8324 165.6 43.9626 165.337C44.0952 165.075 44.2727 164.881 44.4953 164.755C44.7178 164.627 44.9628 164.563 45.2303 164.563C45.4671 164.563 45.6861 164.614 45.8873 164.716C46.0885 164.815 46.3182 164.979 46.5762 165.206C46.7372 165.346 46.8686 165.448 46.9704 165.511C47.0722 165.573 47.1858 165.604 47.3113 165.604C47.5031 165.604 47.6558 165.533 47.7694 165.391C47.8854 165.246 47.941 165.033 47.9363 164.752H48.8347C48.8442 165.163 48.7827 165.501 48.6501 165.764C48.5199 166.026 48.3423 166.221 48.1174 166.346C47.8949 166.471 47.651 166.534 47.3859 166.534C47.1468 166.534 46.9266 166.483 46.7254 166.382C46.5241 166.277 46.2957 166.114 46.04 165.891C45.8743 165.747 45.7417 165.645 45.6423 165.586C45.5428 165.525 45.4304 165.494 45.3049 165.494C45.1226 165.494 44.9711 165.56 44.8504 165.693C44.732 165.823 44.6752 166.041 44.6799 166.346H43.7815ZM55.4035 161.808C55.7278 161.81 56.0474 161.869 56.3623 161.985C56.6771 162.101 56.9612 162.291 57.2145 162.553C57.4702 162.816 57.6738 163.171 57.8253 163.619C57.9792 164.064 58.0573 164.618 58.0597 165.281C58.0597 165.917 57.9958 166.484 57.8679 166.982C57.7401 167.476 57.5566 167.894 57.3175 168.235C57.0808 168.576 56.7931 168.835 56.4546 169.013C56.1161 169.19 55.7349 169.279 55.3111 169.279C54.8779 169.279 54.4932 169.194 54.157 169.024C53.8208 168.853 53.5474 168.618 53.3367 168.317C53.126 168.014 52.9946 167.666 52.9425 167.273H54.0256C54.0966 167.585 54.2411 167.839 54.4589 168.033C54.679 168.225 54.9631 168.32 55.3111 168.32C55.8438 168.32 56.2593 168.088 56.5576 167.624C56.8559 167.158 57.0062 166.507 57.0086 165.671H56.9518C56.8286 165.875 56.6748 166.05 56.4901 166.197C56.3078 166.344 56.103 166.457 55.8758 166.538C55.6485 166.618 55.4058 166.659 55.1478 166.659C54.7287 166.659 54.3476 166.556 54.0043 166.35C53.661 166.144 53.3876 165.861 53.184 165.501C52.9804 165.141 52.8786 164.73 52.8786 164.269C52.8786 163.809 52.9828 163.393 53.1911 163.019C53.4018 162.645 53.6954 162.349 54.0718 162.131C54.4506 161.911 54.8945 161.803 55.4035 161.808ZM55.407 162.731C55.13 162.731 54.8803 162.8 54.6577 162.937C54.4375 163.072 54.2635 163.255 54.1357 163.487C54.0079 163.717 53.9439 163.973 53.9439 164.254C53.9439 164.536 54.0055 164.792 54.1286 165.021C54.2541 165.249 54.4245 165.43 54.64 165.565C54.8578 165.697 55.1063 165.764 55.3857 165.764C55.594 165.764 55.7882 165.723 55.9681 165.643C56.148 165.562 56.3054 165.451 56.4404 165.309C56.5753 165.165 56.6807 165.001 56.7564 164.819C56.8322 164.637 56.8701 164.445 56.8701 164.244C56.8701 163.976 56.8062 163.728 56.6783 163.498C56.5528 163.268 56.38 163.084 56.1599 162.944C55.9397 162.802 55.6887 162.731 55.407 162.731ZM60.0563 168.278C59.8622 168.278 59.6953 168.209 59.5556 168.072C59.4159 167.932 59.3461 167.764 59.3461 167.568C59.3461 167.373 59.4159 167.208 59.5556 167.07C59.6953 166.931 59.8622 166.861 60.0563 166.861C60.2505 166.861 60.4174 166.931 60.557 167.07C60.6967 167.208 60.7666 167.373 60.7666 167.568C60.7666 167.698 60.7334 167.817 60.6671 167.926C60.6032 168.033 60.518 168.118 60.4114 168.182C60.3049 168.246 60.1865 168.278 60.0563 168.278ZM60.0563 164.634C59.8622 164.634 59.6953 164.566 59.5556 164.428C59.4159 164.289 59.3461 164.121 59.3461 163.924C59.3461 163.73 59.4159 163.564 59.5556 163.427C59.6953 163.287 59.8622 163.217 60.0563 163.217C60.2505 163.217 60.4174 163.287 60.557 163.427C60.6967 163.564 60.7666 163.73 60.7666 163.924C60.7666 164.054 60.7334 164.174 60.6671 164.283C60.6032 164.389 60.518 164.475 60.4114 164.538C60.3049 164.602 60.1865 164.634 60.0563 164.634ZM64.7065 169.279C64.2189 169.279 63.7833 169.195 63.3997 169.027C63.0186 168.859 62.7167 168.626 62.4942 168.328C62.274 168.027 62.1556 167.679 62.1391 167.284H63.2541C63.2683 167.499 63.3405 167.686 63.4708 167.845C63.6033 168.001 63.7762 168.122 63.9892 168.207C64.2023 168.292 64.439 168.335 64.6994 168.335C64.9859 168.335 65.2392 168.285 65.4594 168.185C65.6819 168.086 65.8559 167.948 65.9814 167.77C66.1069 167.59 66.1696 167.383 66.1696 167.149C66.1696 166.905 66.1069 166.69 65.9814 166.506C65.8583 166.319 65.6772 166.172 65.4381 166.065C65.2013 165.959 64.9149 165.906 64.5787 165.906H63.9644V165.011H64.5787C64.8486 165.011 65.0853 164.962 65.2889 164.865C65.4949 164.768 65.6559 164.633 65.7719 164.46C65.8879 164.285 65.9459 164.08 65.9459 163.846C65.9459 163.621 65.895 163.426 65.7932 163.26C65.6938 163.092 65.5517 162.961 65.3671 162.866C65.1848 162.771 64.9693 162.724 64.7208 162.724C64.484 162.724 64.2627 162.768 64.0567 162.855C63.8531 162.94 63.6874 163.064 63.5595 163.225C63.4317 163.383 63.363 163.574 63.3536 163.796H62.2918C62.3036 163.403 62.4196 163.058 62.6398 162.759C62.8623 162.461 63.1559 162.228 63.5205 162.06C63.8851 161.892 64.2899 161.808 64.735 161.808C65.2013 161.808 65.6038 161.899 65.9423 162.081C66.2833 162.261 66.546 162.501 66.7307 162.802C66.9177 163.103 67.0101 163.432 67.0077 163.789C67.0101 164.196 66.8964 164.542 66.6668 164.826C66.4395 165.11 66.1365 165.301 65.7577 165.398V165.455C66.2406 165.528 66.6147 165.72 66.8798 166.03C67.1474 166.34 67.2799 166.725 67.2776 167.184C67.2799 167.584 67.1687 167.943 66.9438 168.26C66.7212 168.577 66.417 168.827 66.0311 169.009C65.6452 169.189 65.2037 169.279 64.7065 169.279ZM71.1519 169.301C70.5908 169.298 70.1114 169.15 69.7137 168.857C69.3159 168.563 69.0117 168.136 68.801 167.575C68.5903 167.014 68.485 166.338 68.485 165.547C68.485 164.759 68.5903 164.085 68.801 163.526C69.0141 162.968 69.3195 162.542 69.7172 162.248C70.1173 161.954 70.5955 161.808 71.1519 161.808C71.7082 161.808 72.1852 161.956 72.583 162.252C72.9807 162.545 73.2849 162.971 73.4956 163.53C73.7087 164.086 73.8152 164.759 73.8152 165.547C73.8152 166.34 73.7099 167.017 73.4992 167.578C73.2885 168.137 72.9842 168.564 72.5865 168.86C72.1888 169.154 71.7106 169.301 71.1519 169.301ZM71.1519 168.352C71.6443 168.352 72.029 168.112 72.306 167.632C72.5853 167.151 72.725 166.456 72.725 165.547C72.725 164.943 72.6611 164.433 72.5333 164.016C72.4078 163.597 72.2267 163.28 71.9899 163.065C71.7556 162.847 71.4762 162.738 71.1519 162.738C70.6618 162.738 70.2771 162.98 69.9977 163.462C69.7184 163.945 69.5775 164.64 69.5752 165.547C69.5752 166.153 69.6379 166.666 69.7634 167.085C69.8912 167.501 70.0723 167.817 70.3067 168.033C70.5411 168.246 70.8228 168.352 71.1519 168.352Z" fill="black"/>
<path d="M20.41 209.628C20.7344 209.63 21.054 209.689 21.3689 209.805C21.6837 209.921 21.9678 210.111 22.2211 210.374C22.4768 210.636 22.6804 210.991 22.8319 211.439C22.9858 211.884 23.0639 212.438 23.0663 213.101C23.0663 213.738 23.0024 214.305 22.8745 214.802C22.7467 215.297 22.5632 215.714 22.3241 216.055C22.0874 216.396 21.7997 216.656 21.4612 216.833C21.1226 217.011 20.7415 217.099 20.3177 217.099C19.8845 217.099 19.4998 217.014 19.1636 216.844C18.8274 216.673 18.554 216.438 18.3433 216.137C18.1326 215.834 18.0012 215.486 17.9491 215.093H19.0322C19.1032 215.406 19.2476 215.659 19.4654 215.853C19.6856 216.045 19.9697 216.141 20.3177 216.141C20.8504 216.141 21.2659 215.909 21.5642 215.445C21.8625 214.978 22.0128 214.327 22.0152 213.491H21.9583C21.8352 213.695 21.6814 213.87 21.4967 214.017C21.3144 214.164 21.1096 214.277 20.8823 214.358C20.6551 214.438 20.4124 214.479 20.1544 214.479C19.7353 214.479 19.3542 214.376 19.0109 214.17C18.6676 213.964 18.3942 213.681 18.1906 213.321C17.987 212.961 17.8852 212.55 17.8852 212.089C17.8852 211.629 17.9894 211.213 18.1977 210.839C18.4084 210.465 18.702 210.169 19.0784 209.951C19.4572 209.731 19.9011 209.623 20.41 209.628ZM20.4136 210.551C20.1366 210.551 19.8868 210.62 19.6643 210.757C19.4441 210.892 19.2701 211.076 19.1423 211.308C19.0145 211.537 18.9505 211.793 18.9505 212.075C18.9505 212.356 19.0121 212.612 19.1352 212.842C19.2607 213.069 19.4311 213.25 19.6466 213.385C19.8644 213.518 20.1129 213.584 20.3923 213.584C20.6006 213.584 20.7948 213.544 20.9747 213.463C21.1546 213.383 21.312 213.271 21.447 213.129C21.5819 212.985 21.6873 212.821 21.763 212.639C21.8388 212.457 21.8767 212.265 21.8767 212.064C21.8767 211.796 21.8127 211.548 21.6849 211.318C21.5594 211.089 21.3866 210.904 21.1664 210.764C20.9463 210.622 20.6953 210.551 20.4136 210.551ZM25.0629 216.098C24.8688 216.098 24.7019 216.029 24.5622 215.892C24.4225 215.752 24.3527 215.584 24.3527 215.388C24.3527 215.194 24.4225 215.028 24.5622 214.891C24.7019 214.751 24.8688 214.681 25.0629 214.681C25.2571 214.681 25.424 214.751 25.5636 214.891C25.7033 215.028 25.7732 215.194 25.7732 215.388C25.7732 215.518 25.74 215.638 25.6737 215.746C25.6098 215.853 25.5246 215.938 25.418 216.002C25.3115 216.066 25.1931 216.098 25.0629 216.098ZM25.0629 212.455C24.8688 212.455 24.7019 212.386 24.5622 212.249C24.4225 212.109 24.3527 211.941 24.3527 211.744C24.3527 211.55 24.4225 211.384 24.5622 211.247C24.7019 211.107 24.8688 211.038 25.0629 211.038C25.2571 211.038 25.424 211.107 25.5636 211.247C25.7033 211.384 25.7732 211.55 25.7732 211.744C25.7732 211.875 25.74 211.994 25.6737 212.103C25.6098 212.21 25.5246 212.295 25.418 212.359C25.3115 212.423 25.1931 212.455 25.0629 212.455ZM29.7131 217.099C29.2254 217.099 28.7898 217.015 28.4063 216.847C28.0252 216.679 27.7233 216.446 27.5008 216.148C27.2806 215.847 27.1622 215.499 27.1457 215.104H28.2607C28.2749 215.319 28.3471 215.506 28.4773 215.665C28.6099 215.821 28.7827 215.942 28.9958 216.027C29.2089 216.112 29.4456 216.155 29.706 216.155C29.9925 216.155 30.2458 216.105 30.466 216.006C30.6885 215.906 30.8625 215.768 30.988 215.59C31.1135 215.41 31.1762 215.203 31.1762 214.969C31.1762 214.725 31.1135 214.511 30.988 214.326C30.8649 214.139 30.6838 213.992 30.4447 213.886C30.2079 213.779 29.9215 213.726 29.5853 213.726H28.971V212.831H29.5853C29.8552 212.831 30.0919 212.782 30.2955 212.685C30.5015 212.588 30.6625 212.453 30.7785 212.281C30.8945 212.105 30.9525 211.901 30.9525 211.666C30.9525 211.441 30.9016 211.246 30.7998 211.08C30.7004 210.912 30.5583 210.781 30.3736 210.686C30.1914 210.591 29.9759 210.544 29.7273 210.544C29.4906 210.544 29.2692 210.588 29.0633 210.675C28.8597 210.761 28.694 210.884 28.5661 211.045C28.4383 211.203 28.3696 211.394 28.3602 211.616H27.2984C27.3102 211.223 27.4262 210.878 27.6464 210.58C27.8689 210.281 28.1625 210.048 28.5271 209.88C28.8916 209.712 29.2965 209.628 29.7415 209.628C30.2079 209.628 30.6104 209.719 30.9489 209.901C31.2898 210.081 31.5526 210.321 31.7373 210.622C31.9243 210.923 32.0166 211.252 32.0143 211.609C32.0166 212.017 31.903 212.362 31.6734 212.646C31.4461 212.93 31.1431 213.121 30.7643 213.218V213.275C31.2472 213.348 31.6213 213.54 31.8864 213.85C32.154 214.16 32.2865 214.545 32.2842 215.004C32.2865 215.404 32.1753 215.763 31.9504 216.08C31.7278 216.397 31.4236 216.647 31.0377 216.83C30.6518 217.009 30.2103 217.099 29.7131 217.099ZM36.1585 217.121C35.5974 217.118 35.118 216.97 34.7202 216.677C34.3225 216.383 34.0183 215.956 33.8076 215.395C33.5969 214.834 33.4915 214.158 33.4915 213.367C33.4915 212.579 33.5969 211.905 33.8076 211.347C34.0207 210.788 34.3261 210.362 34.7238 210.068C35.1239 209.775 35.6021 209.628 36.1585 209.628C36.7148 209.628 37.1918 209.776 37.5896 210.072C37.9873 210.365 38.2915 210.791 38.5022 211.35C38.7153 211.906 38.8218 212.579 38.8218 213.367C38.8218 214.16 38.7165 214.837 38.5058 215.398C38.2951 215.957 37.9908 216.384 37.5931 216.68C37.1954 216.974 36.7172 217.121 36.1585 217.121ZM36.1585 216.173C36.6509 216.173 37.0356 215.932 37.3126 215.452C37.5919 214.971 37.7316 214.276 37.7316 213.367C37.7316 212.763 37.6677 212.253 37.5398 211.837C37.4144 211.418 37.2333 211.1 36.9965 210.885C36.7621 210.667 36.4828 210.558 36.1585 210.558C35.6684 210.558 35.2837 210.8 35.0043 211.283C34.725 211.766 34.5841 212.46 34.5817 213.367C34.5817 213.973 34.6445 214.486 34.77 214.905C34.8978 215.321 35.0789 215.638 35.3133 215.853C35.5477 216.066 35.8294 216.173 36.1585 216.173ZM40.1846 214.166C40.1751 213.757 40.2355 213.42 40.3657 213.158C40.4982 212.895 40.6758 212.701 40.8983 212.575C41.1209 212.447 41.3659 212.384 41.6334 212.384C41.8702 212.384 42.0891 212.434 42.2904 212.536C42.4916 212.636 42.7212 212.799 42.9793 213.026C43.1403 213.166 43.2717 213.268 43.3735 213.332C43.4753 213.393 43.5889 213.424 43.7144 213.424C43.9061 213.424 44.0588 213.353 44.1725 213.211C44.2885 213.067 44.3441 212.853 44.3394 212.572H45.2378C45.2473 212.984 45.1857 213.321 45.0532 213.584C44.923 213.847 44.7454 214.041 44.5205 214.166C44.298 214.292 44.0541 214.354 43.789 214.354C43.5498 214.354 43.3297 214.304 43.1284 214.202C42.9272 214.098 42.6988 213.934 42.4431 213.712C42.2774 213.567 42.1448 213.465 42.0453 213.406C41.9459 213.345 41.8335 213.314 41.708 213.314C41.5257 213.314 41.3742 213.38 41.2534 213.513C41.1351 213.643 41.0783 213.861 41.083 214.166H40.1846ZM49.501 209.727V217H48.4001V210.828H48.3575L46.6174 211.964V210.913L48.4321 209.727H49.501ZM54.2275 209.727V217H53.1267V210.828H53.0841L51.344 211.964V210.913L53.1586 209.727H54.2275ZM56.9086 216.098C56.7145 216.098 56.5476 216.029 56.4079 215.892C56.2682 215.752 56.1984 215.584 56.1984 215.388C56.1984 215.194 56.2682 215.028 56.4079 214.891C56.5476 214.751 56.7145 214.681 56.9086 214.681C57.1028 214.681 57.2697 214.751 57.4093 214.891C57.549 215.028 57.6189 215.194 57.6189 215.388C57.6189 215.518 57.5857 215.638 57.5194 215.746C57.4555 215.853 57.3703 215.938 57.2637 216.002C57.1572 216.066 57.0388 216.098 56.9086 216.098ZM56.9086 212.455C56.7145 212.455 56.5476 212.386 56.4079 212.249C56.2682 212.109 56.1984 211.941 56.1984 211.744C56.1984 211.55 56.2682 211.384 56.4079 211.247C56.5476 211.107 56.7145 211.038 56.9086 211.038C57.1028 211.038 57.2697 211.107 57.4093 211.247C57.549 211.384 57.6189 211.55 57.6189 211.744C57.6189 211.875 57.5857 211.994 57.5194 212.103C57.4555 212.21 57.3703 212.295 57.2637 212.359C57.1572 212.423 57.0388 212.455 56.9086 212.455ZM61.5588 217.121C60.9978 217.118 60.5184 216.97 60.1206 216.677C59.7229 216.383 59.4187 215.956 59.208 215.395C58.9973 214.834 58.8919 214.158 58.8919 213.367C58.8919 212.579 58.9973 211.905 59.208 211.347C59.4211 210.788 59.7265 210.362 60.1242 210.068C60.5243 209.775 61.0025 209.628 61.5588 209.628C62.1152 209.628 62.5922 209.776 62.99 210.072C63.3877 210.365 63.6919 210.791 63.9026 211.35C64.1157 211.906 64.2222 212.579 64.2222 213.367C64.2222 214.16 64.1168 214.837 63.9061 215.398C63.6954 215.957 63.3912 216.384 62.9935 216.68C62.5958 216.974 62.1176 217.121 61.5588 217.121ZM61.5588 216.173C62.0513 216.173 62.436 215.932 62.713 215.452C62.9923 214.971 63.132 214.276 63.132 213.367C63.132 212.763 63.0681 212.253 62.9402 211.837C62.8148 211.418 62.6337 211.1 62.3969 210.885C62.1625 210.667 61.8832 210.558 61.5588 210.558C61.0688 210.558 60.6841 210.8 60.4047 211.283C60.1254 211.766 59.9845 212.46 59.9821 213.367C59.9821 213.973 60.0449 214.486 60.1703 214.905C60.2982 215.321 60.4793 215.638 60.7137 215.853C60.948 216.066 61.2298 216.173 61.5588 216.173ZM68.0139 217.121C67.4528 217.118 66.9734 216.97 66.5757 216.677C66.178 216.383 65.8738 215.956 65.6631 215.395C65.4524 214.834 65.347 214.158 65.347 213.367C65.347 212.579 65.4524 211.905 65.6631 211.347C65.8761 210.788 66.1815 210.362 66.5793 210.068C66.9794 209.775 67.4576 209.628 68.0139 209.628C68.5703 209.628 69.0473 209.776 69.445 210.072C69.8428 210.365 70.147 210.791 70.3577 211.35C70.5707 211.906 70.6773 212.579 70.6773 213.367C70.6773 214.16 70.5719 214.837 70.3612 215.398C70.1505 215.957 69.8463 216.384 69.4486 216.68C69.0509 216.974 68.5726 217.121 68.0139 217.121ZM68.0139 216.173C68.5063 216.173 68.8911 215.932 69.168 215.452C69.4474 214.971 69.5871 214.276 69.5871 213.367C69.5871 212.763 69.5232 212.253 69.3953 211.837C69.2698 211.418 69.0887 211.1 68.852 210.885C68.6176 210.667 68.3383 210.558 68.0139 210.558C67.5239 210.558 67.1392 210.8 66.8598 211.283C66.5804 211.766 66.4396 212.46 66.4372 213.367C66.4372 213.973 66.5 214.486 66.6254 214.905C66.7533 215.321 66.9344 215.638 67.1688 215.853C67.4031 216.066 67.6848 216.173 68.0139 216.173Z" fill="black"/>
<path d="M19.1559 120.573L22.3306 114.295V114.241H18.6587V113.3H23.467V114.273L20.3029 120.573H19.1559ZM25.0739 119.671C24.8797 119.671 24.7128 119.602 24.5731 119.465C24.4335 119.325 24.3636 119.157 24.3636 118.961C24.3636 118.767 24.4335 118.601 24.5731 118.464C24.7128 118.324 24.8797 118.254 25.0739 118.254C25.268 118.254 25.4349 118.324 25.5746 118.464C25.7142 118.601 25.7841 118.767 25.7841 118.961C25.7841 119.091 25.7509 119.211 25.6846 119.319C25.6207 119.426 25.5355 119.511 25.429 119.575C25.3224 119.639 25.2041 119.671 25.0739 119.671ZM25.0739 116.028C24.8797 116.028 24.7128 115.959 24.5731 115.822C24.4335 115.682 24.3636 115.514 24.3636 115.317C24.3636 115.123 24.4335 114.957 24.5731 114.82C24.7128 114.68 24.8797 114.611 25.0739 114.611C25.268 114.611 25.4349 114.68 25.5746 114.82C25.7142 114.957 25.7841 115.123 25.7841 115.317C25.7841 115.448 25.7509 115.567 25.6846 115.676C25.6207 115.783 25.5355 115.868 25.429 115.932C25.3224 115.996 25.2041 116.028 25.0739 116.028ZM29.7241 120.672C29.2364 120.672 28.8008 120.588 28.4172 120.42C28.0361 120.252 27.7342 120.019 27.5117 119.721C27.2915 119.42 27.1732 119.072 27.1566 118.677H28.2717C28.2859 118.892 28.3581 119.079 28.4883 119.238C28.6208 119.394 28.7937 119.515 29.0067 119.6C29.2198 119.685 29.4565 119.728 29.717 119.728C30.0034 119.728 30.2567 119.678 30.4769 119.579C30.6994 119.479 30.8735 119.341 30.9989 119.163C31.1244 118.983 31.1871 118.776 31.1871 118.542C31.1871 118.298 31.1244 118.084 30.9989 117.899C30.8758 117.712 30.6947 117.565 30.4556 117.459C30.2189 117.352 29.9324 117.299 29.5962 117.299H28.9819V116.404H29.5962C29.8661 116.404 30.1029 116.355 30.3065 116.258C30.5124 116.161 30.6734 116.026 30.7894 115.854C30.9054 115.678 30.9634 115.474 30.9634 115.239C30.9634 115.014 30.9125 114.819 30.8107 114.653C30.7113 114.485 30.5692 114.354 30.3846 114.259C30.2023 114.164 29.9869 114.117 29.7383 114.117C29.5015 114.117 29.2802 114.161 29.0742 114.248C28.8706 114.334 28.7049 114.457 28.577 114.618C28.4492 114.776 28.3806 114.967 28.3711 115.189H27.3093C27.3211 114.796 27.4371 114.451 27.6573 114.153C27.8798 113.854 28.1734 113.621 28.538 113.453C28.9026 113.285 29.3074 113.201 29.7525 113.201C30.2189 113.201 30.6213 113.292 30.9599 113.474C31.3008 113.654 31.5636 113.894 31.7482 114.195C31.9352 114.496 32.0276 114.825 32.0252 115.182C32.0276 115.59 31.9139 115.935 31.6843 116.219C31.457 116.503 31.154 116.694 30.7752 116.791V116.848C31.2582 116.921 31.6322 117.113 31.8974 117.423C32.1649 117.733 32.2975 118.118 32.2951 118.577C32.2975 118.977 32.1862 119.336 31.9613 119.653C31.7387 119.97 31.4345 120.22 31.0486 120.403C30.6628 120.582 30.2212 120.672 29.7241 120.672ZM36.1694 120.694C35.6083 120.691 35.1289 120.543 34.7312 120.25C34.3334 119.956 34.0292 119.529 33.8185 118.968C33.6078 118.407 33.5025 117.731 33.5025 116.94C33.5025 116.152 33.6078 115.478 33.8185 114.92C34.0316 114.361 34.337 113.935 34.7347 113.641C35.1348 113.348 35.613 113.201 36.1694 113.201C36.7257 113.201 37.2028 113.349 37.6005 113.645C37.9982 113.938 38.3024 114.364 38.5131 114.923C38.7262 115.479 38.8327 116.152 38.8327 116.94C38.8327 117.733 38.7274 118.41 38.5167 118.971C38.306 119.53 38.0018 119.957 37.604 120.253C37.2063 120.547 36.7281 120.694 36.1694 120.694ZM36.1694 119.746C36.6618 119.746 37.0465 119.505 37.3235 119.025C37.6029 118.544 37.7425 117.849 37.7425 116.94C37.7425 116.336 37.6786 115.826 37.5508 115.41C37.4253 114.991 37.2442 114.673 37.0074 114.458C36.7731 114.24 36.4937 114.131 36.1694 114.131C35.6793 114.131 35.2946 114.373 35.0153 114.856C34.7359 115.339 34.595 116.033 34.5927 116.94C34.5927 117.546 34.6554 118.059 34.7809 118.478C34.9087 118.894 35.0898 119.211 35.3242 119.426C35.5586 119.639 35.8403 119.746 36.1694 119.746ZM42.842 117.739C42.8325 117.33 42.8929 116.993 43.0231 116.731C43.1556 116.468 43.3332 116.274 43.5557 116.148C43.7783 116.02 44.0233 115.957 44.2908 115.957C44.5276 115.957 44.7466 116.007 44.9478 116.109C45.149 116.209 45.3787 116.372 45.6367 116.599C45.7977 116.739 45.9291 116.841 46.0309 116.905C46.1327 116.966 46.2463 116.997 46.3718 116.997C46.5636 116.997 46.7163 116.926 46.8299 116.784C46.9459 116.64 47.0015 116.426 46.9968 116.145H47.8952C47.9047 116.557 47.8431 116.894 47.7106 117.157C47.5804 117.42 47.4028 117.614 47.1779 117.739C46.9554 117.865 46.7115 117.927 46.4464 117.927C46.2073 117.927 45.9871 117.877 45.7859 117.775C45.5846 117.671 45.3562 117.507 45.1005 117.285C44.9348 117.14 44.8022 117.038 44.7028 116.979C44.6033 116.918 44.4909 116.887 44.3654 116.887C44.1831 116.887 44.0316 116.953 43.9109 117.086C43.7925 117.216 43.7357 117.434 43.7404 117.739H42.842ZM54.503 120.672C53.994 120.672 53.5442 120.585 53.1536 120.41C52.7653 120.234 52.4611 119.993 52.2409 119.685C52.0208 119.377 51.9119 119.027 51.9142 118.634C51.9119 118.326 51.9746 118.043 52.1024 117.785C52.2326 117.525 52.409 117.308 52.6316 117.135C52.8541 116.96 53.1027 116.849 53.3773 116.802V116.759C53.0151 116.671 52.7251 116.477 52.5073 116.177C52.2895 115.876 52.1817 115.53 52.1841 115.14C52.1817 114.768 52.28 114.437 52.4789 114.145C52.6801 113.852 52.9559 113.621 53.3063 113.453C53.6567 113.285 54.0556 113.201 54.503 113.201C54.9457 113.201 55.3411 113.286 55.6891 113.457C56.0395 113.625 56.3153 113.855 56.5165 114.149C56.7177 114.44 56.8195 114.77 56.8219 115.14C56.8195 115.53 56.7083 115.876 56.4881 116.177C56.2679 116.477 55.9815 116.671 55.6287 116.759V116.802C55.901 116.849 56.146 116.96 56.3638 117.135C56.584 117.308 56.7592 117.525 56.8894 117.785C57.0219 118.043 57.0894 118.326 57.0918 118.634C57.0894 119.027 56.9781 119.377 56.758 119.685C56.5378 119.993 56.2324 120.234 55.8418 120.41C55.4535 120.585 55.0073 120.672 54.503 120.672ZM54.503 119.774C54.8037 119.774 55.0641 119.724 55.2843 119.625C55.5044 119.523 55.6749 119.382 55.7956 119.202C55.9164 119.02 55.9779 118.807 55.9803 118.563C55.9779 118.31 55.9116 118.086 55.7814 117.892C55.6536 117.698 55.4796 117.545 55.2594 117.434C55.0392 117.323 54.7871 117.267 54.503 117.267C54.2165 117.267 53.9621 117.323 53.7395 117.434C53.517 117.545 53.3418 117.698 53.2139 117.892C53.0861 118.086 53.0234 118.31 53.0257 118.563C53.0234 118.807 53.0814 119.02 53.1997 119.202C53.3205 119.382 53.4921 119.523 53.7147 119.625C53.9372 119.724 54.2 119.774 54.503 119.774ZM54.503 116.39C54.7445 116.39 54.9587 116.341 55.1458 116.244C55.3328 116.147 55.4796 116.012 55.5861 115.839C55.695 115.667 55.7506 115.464 55.753 115.232C55.7506 115.005 55.6962 114.806 55.5897 114.635C55.4855 114.465 55.3399 114.334 55.1529 114.241C54.9658 114.147 54.7492 114.099 54.503 114.099C54.2521 114.099 54.0319 114.147 53.8425 114.241C53.6555 114.334 53.5099 114.465 53.4057 114.635C53.3015 114.806 53.2506 115.005 53.253 115.232C53.2506 115.464 53.3027 115.667 53.4093 115.839C53.5158 116.012 53.6626 116.147 53.8496 116.244C54.039 116.341 54.2568 116.39 54.503 116.39ZM59.0778 119.671C58.8836 119.671 58.7167 119.602 58.577 119.465C58.4374 119.325 58.3675 119.157 58.3675 118.961C58.3675 118.767 58.4374 118.601 58.577 118.464C58.7167 118.324 58.8836 118.254 59.0778 118.254C59.2719 118.254 59.4388 118.324 59.5785 118.464C59.7181 118.601 59.788 118.767 59.788 118.961C59.788 119.091 59.7548 119.211 59.6886 119.319C59.6246 119.426 59.5394 119.511 59.4329 119.575C59.3263 119.639 59.208 119.671 59.0778 119.671ZM59.0778 116.028C58.8836 116.028 58.7167 115.959 58.577 115.822C58.4374 115.682 58.3675 115.514 58.3675 115.317C58.3675 115.123 58.4374 114.957 58.577 114.82C58.7167 114.68 58.8836 114.611 59.0778 114.611C59.2719 114.611 59.4388 114.68 59.5785 114.82C59.7181 114.957 59.788 115.123 59.788 115.317C59.788 115.448 59.7548 115.567 59.6886 115.676C59.6246 115.783 59.5394 115.868 59.4329 115.932C59.3263 115.996 59.208 116.028 59.0778 116.028ZM63.728 120.694C63.1669 120.691 62.6875 120.543 62.2898 120.25C61.892 119.956 61.5878 119.529 61.3771 118.968C61.1664 118.407 61.0611 117.731 61.0611 116.94C61.0611 116.152 61.1664 115.478 61.3771 114.92C61.5902 114.361 61.8956 113.935 62.2933 113.641C62.6934 113.348 63.1716 113.201 63.728 113.201C64.2843 113.201 64.7614 113.349 65.1591 113.645C65.5568 113.938 65.861 114.364 66.0717 114.923C66.2848 115.479 66.3913 116.152 66.3913 116.94C66.3913 117.733 66.286 118.41 66.0753 118.971C65.8646 119.53 65.5604 119.957 65.1626 120.253C64.7649 120.547 64.2867 120.694 63.728 120.694ZM63.728 119.746C64.2204 119.746 64.6051 119.505 64.8821 119.025C65.1614 118.544 65.3011 117.849 65.3011 116.94C65.3011 116.336 65.2372 115.826 65.1094 115.41C64.9839 114.991 64.8028 114.673 64.566 114.458C64.3317 114.24 64.0523 114.131 63.728 114.131C63.2379 114.131 62.8532 114.373 62.5739 114.856C62.2945 115.339 62.1536 116.033 62.1513 116.94C62.1513 117.546 62.214 118.059 62.3395 118.478C62.4673 118.894 62.6484 119.211 62.8828 119.426C63.1172 119.639 63.3989 119.746 63.728 119.746ZM70.183 120.694C69.622 120.691 69.1426 120.543 68.7448 120.25C68.3471 119.956 68.0429 119.529 67.8322 118.968C67.6215 118.407 67.5161 117.731 67.5161 116.94C67.5161 116.152 67.6215 115.478 67.8322 114.92C68.0453 114.361 68.3507 113.935 68.7484 113.641C69.1485 113.348 69.6267 113.201 70.183 113.201C70.7394 113.201 71.2164 113.349 71.6142 113.645C72.0119 113.938 72.3161 114.364 72.5268 114.923C72.7399 115.479 72.8464 116.152 72.8464 116.94C72.8464 117.733 72.7411 118.41 72.5304 118.971C72.3196 119.53 72.0154 119.957 71.6177 120.253C71.22 120.547 70.7418 120.694 70.183 120.694ZM70.183 119.746C70.6755 119.746 71.0602 119.505 71.3372 119.025C71.6165 118.544 71.7562 117.849 71.7562 116.94C71.7562 116.336 71.6923 115.826 71.5644 115.41C71.439 114.991 71.2579 114.673 71.0211 114.458C70.7867 114.24 70.5074 114.131 70.183 114.131C69.693 114.131 69.3083 114.373 69.0289 114.856C68.7496 115.339 68.6087 116.033 68.6063 116.94C68.6063 117.546 68.6691 118.059 68.7946 118.478C68.9224 118.894 69.1035 119.211 69.3379 119.426C69.5723 119.639 69.854 119.746 70.183 119.746Z" fill="black"/>
<path d="M5 0.5H345C347.485 0.5 349.5 2.51472 349.5 5V250C349.5 252.485 347.485 254.5 345 254.5H4.99999C2.51471 254.5 0.5 252.485 0.5 250V5C0.5 2.51472 2.51472 0.5 5 0.5Z" stroke="#8A8A8A"/>
</svg>
