<svg width="335" height="206" viewBox="0 0 335 206" fill="none" xmlns="http://www.w3.org/2000/svg">
<rect x="0.25" y="0.25" width="334.5" height="205.5" rx="4.75" stroke="black" stroke-width="0.5"/>
<line x1="5" y1="44.6348" x2="328" y2="44.6348" stroke="black"/>
<line x1="5" y1="146.478" x2="328" y2="146.478" stroke="black"/>
<line y1="-0.5" x2="322.884" y2="-0.5" transform="matrix(0.999994 -0.00358426 0.00272456 0.999996 5.04504 96.0562)" stroke="black"/>
<line x1="5" y1="193.927" x2="328" y2="193.927" stroke="black"/>
<line x1="82.5" y1="45.1348" x2="82.5" y2="194.427" stroke="black"/>
<line y1="-0.5" x2="149.295" y2="-0.5" transform="matrix(0.00675847 0.999977 -0.99996 0.00889089 250.234 45.1348)" stroke="black"/>
<line x1="164.5" y1="45.1348" x2="164.5" y2="194.427" stroke="black"/>
<path d="M17.1214 74.9084C16.7971 74.9037 16.4775 74.8445 16.1626 74.7308C15.8501 74.6172 15.5661 74.4278 15.3104 74.1627C15.0547 73.8975 14.8499 73.5412 14.696 73.0938C14.5445 72.6463 14.4688 72.0876 14.4688 71.4176C14.4688 70.7832 14.5315 70.2197 14.657 69.7273C14.7848 69.2349 14.9683 68.8194 15.2074 68.4808C15.4465 68.1399 15.7353 67.8807 16.0739 67.7031C16.4124 67.5256 16.7924 67.4368 17.2138 67.4368C17.647 67.4368 18.0317 67.522 18.3679 67.6925C18.7041 67.8629 18.9763 68.0985 19.1847 68.3992C19.3954 68.6998 19.5291 69.0419 19.5859 69.4254H18.5028C18.4295 69.1224 18.2839 68.875 18.0661 68.6832C17.8482 68.4915 17.5642 68.3956 17.2138 68.3956C16.6811 68.3956 16.2656 68.6276 15.9673 69.0916C15.6714 69.5556 15.5223 70.2008 15.5199 71.027H15.5732C15.6986 70.821 15.8525 70.6458 16.0348 70.5014C16.2195 70.3547 16.4254 70.2422 16.6527 70.1641C16.8823 70.0836 17.1238 70.0433 17.3771 70.0433C17.7985 70.0433 18.1797 70.1463 18.5206 70.3523C18.8639 70.5559 19.1373 70.8376 19.3409 71.1975C19.5445 71.5573 19.6463 71.9692 19.6463 72.4332C19.6463 72.8973 19.541 73.3175 19.3303 73.6939C19.1219 74.0703 18.8284 74.3686 18.4496 74.5888C18.0708 74.8066 17.6281 74.9131 17.1214 74.9084ZM17.1179 73.9851C17.3973 73.9851 17.647 73.9164 17.8672 73.7791C18.0874 73.6418 18.2614 73.4572 18.3892 73.2252C18.517 72.9931 18.581 72.7339 18.581 72.4475C18.581 72.1681 18.5182 71.9136 18.3928 71.684C18.2696 71.4543 18.0992 71.272 17.8814 71.1371C17.666 71.0021 17.4197 70.9347 17.1428 70.9347C16.9321 70.9347 16.7367 70.9749 16.5568 71.0554C16.3793 71.1359 16.223 71.2472 16.0881 71.3892C15.9531 71.5313 15.8466 71.6946 15.7685 71.8793C15.6927 72.0616 15.6548 72.2545 15.6548 72.4581C15.6548 72.7304 15.7176 72.9825 15.843 73.2145C15.9709 73.4465 16.1449 73.6335 16.3651 73.7756C16.5876 73.9153 16.8385 73.9851 17.1179 73.9851ZM21.6536 73.907C21.4595 73.907 21.2926 73.8383 21.1529 73.701C21.0132 73.5613 20.9434 73.3932 20.9434 73.1967C20.9434 73.0026 21.0132 72.8369 21.1529 72.6996C21.2926 72.5599 21.4595 72.4901 21.6536 72.4901C21.8477 72.4901 22.0146 72.5599 22.1543 72.6996C22.294 72.8369 22.3638 73.0026 22.3638 73.1967C22.3638 73.327 22.3307 73.4465 22.2644 73.5554C22.2005 73.6619 22.1152 73.7472 22.0087 73.8111C21.9022 73.875 21.7838 73.907 21.6536 73.907ZM21.6536 70.2635C21.4595 70.2635 21.2926 70.1948 21.1529 70.0575C21.0132 69.9179 20.9434 69.7498 20.9434 69.5533C20.9434 69.3591 21.0132 69.1934 21.1529 69.0561C21.2926 68.9164 21.4595 68.8466 21.6536 68.8466C21.8477 68.8466 22.0146 68.9164 22.1543 69.0561C22.294 69.1934 22.3638 69.3591 22.3638 69.5533C22.3638 69.6835 22.3307 69.803 22.2644 69.9119C22.2005 70.0185 22.1152 70.1037 22.0087 70.1676C21.9022 70.2315 21.7838 70.2635 21.6536 70.2635ZM26.3038 74.9297C25.7427 74.9273 25.2633 74.7794 24.8656 74.4858C24.4679 74.1922 24.1636 73.7649 23.9529 73.2038C23.7422 72.6428 23.6369 71.9669 23.6369 71.1761C23.6369 70.3878 23.7422 69.7143 23.9529 69.1556C24.166 68.5968 24.4714 68.1707 24.8691 67.8771C25.2692 67.5836 25.7475 67.4368 26.3038 67.4368C26.8601 67.4368 27.3372 67.5848 27.7349 67.8807C28.1326 68.1743 28.4368 68.6004 28.6475 69.1591C28.8606 69.7154 28.9672 70.3878 28.9672 71.1761C28.9672 71.9692 28.8618 72.6463 28.6511 73.2074C28.4404 73.7661 28.1362 74.1934 27.7385 74.4894C27.3407 74.7829 26.8625 74.9297 26.3038 74.9297ZM26.3038 73.9815C26.7962 73.9815 27.1809 73.7413 27.4579 73.2607C27.7373 72.7801 27.877 72.0852 27.877 71.1761C27.877 70.5725 27.813 70.0623 27.6852 69.6456C27.5597 69.2266 27.3786 68.9093 27.1419 68.6939C26.9075 68.4761 26.6281 68.3672 26.3038 68.3672C25.8137 68.3672 25.429 68.6087 25.1497 69.0916C24.8703 69.5746 24.7295 70.2694 24.7271 71.1761C24.7271 71.7822 24.7898 72.2948 24.9153 72.7138C25.0431 73.1305 25.2243 73.4465 25.4586 73.6619C25.693 73.875 25.9747 73.9815 26.3038 73.9815ZM32.7589 74.9297C32.1978 74.9273 31.7184 74.7794 31.3207 74.4858C30.9229 74.1922 30.6187 73.7649 30.408 73.2038C30.1973 72.6428 30.092 71.9669 30.092 71.1761C30.092 70.3878 30.1973 69.7143 30.408 69.1556C30.6211 68.5968 30.9265 68.1707 31.3242 67.8771C31.7243 67.5836 32.2025 67.4368 32.7589 67.4368C33.3152 67.4368 33.7923 67.5848 34.19 67.8807C34.5877 68.1743 34.8919 68.6004 35.1026 69.1591C35.3157 69.7154 35.4222 70.3878 35.4222 71.1761C35.4222 71.9692 35.3169 72.6463 35.1062 73.2074C34.8955 73.7661 34.5913 74.1934 34.1935 74.4894C33.7958 74.7829 33.3176 74.9297 32.7589 74.9297ZM32.7589 73.9815C33.2513 73.9815 33.636 73.7413 33.913 73.2607C34.1924 72.7801 34.332 72.0852 34.332 71.1761C34.332 70.5725 34.2681 70.0623 34.1403 69.6456C34.0148 69.2266 33.8337 68.9093 33.5969 68.6939C33.3626 68.4761 33.0832 68.3672 32.7589 68.3672C32.2688 68.3672 31.8841 68.6087 31.6048 69.0916C31.3254 69.5746 31.1845 70.2694 31.1822 71.1761C31.1822 71.7822 31.2449 72.2948 31.3704 72.7138C31.4982 73.1305 31.6793 73.4465 31.9137 73.6619C32.1481 73.875 32.4298 73.9815 32.7589 73.9815ZM39.4315 71.9752C39.422 71.5656 39.4824 71.2294 39.6126 70.9666C39.7451 70.7038 39.9227 70.5097 40.1452 70.3842C40.3678 70.2564 40.6128 70.1925 40.8803 70.1925C41.1171 70.1925 41.3361 70.2434 41.5373 70.3452C41.7385 70.4446 41.9682 70.608 42.2262 70.8352C42.3872 70.9749 42.5186 71.0767 42.6204 71.1406C42.7222 71.2022 42.8358 71.233 42.9613 71.233C43.1531 71.233 43.3058 71.1619 43.4194 71.0199C43.5354 70.8755 43.591 70.6624 43.5863 70.3807H44.4847C44.4942 70.7926 44.4326 71.13 44.3001 71.3928C44.1699 71.6556 43.9923 71.8497 43.7674 71.9752C43.5449 72.1006 43.301 72.1634 43.0359 72.1634C42.7968 72.1634 42.5766 72.1125 42.3754 72.0107C42.1741 71.9065 41.9457 71.7431 41.69 71.5206C41.5243 71.3762 41.3917 71.2744 41.2923 71.2152C41.1928 71.1537 41.0804 71.1229 40.9549 71.1229C40.7726 71.1229 40.6211 71.1892 40.5004 71.3217C40.382 71.452 40.3252 71.6698 40.3299 71.9752H39.4315ZM48.8801 74.809L52.0549 68.5306V68.4773H48.383V67.5362H53.1912V68.5092L50.0272 74.809H48.8801ZM54.7981 73.907C54.604 73.907 54.4371 73.8383 54.2974 73.701C54.1577 73.5613 54.0879 73.3932 54.0879 73.1967C54.0879 73.0026 54.1577 72.8369 54.2974 72.6996C54.4371 72.5599 54.604 72.4901 54.7981 72.4901C54.9922 72.4901 55.1592 72.5599 55.2988 72.6996C55.4385 72.8369 55.5083 73.0026 55.5083 73.1967C55.5083 73.327 55.4752 73.4465 55.4089 73.5554C55.345 73.6619 55.2598 73.7472 55.1532 73.8111C55.0467 73.875 54.9283 73.907 54.7981 73.907ZM54.7981 70.2635C54.604 70.2635 54.4371 70.1948 54.2974 70.0575C54.1577 69.9179 54.0879 69.7498 54.0879 69.5533C54.0879 69.3591 54.1577 69.1934 54.2974 69.0561C54.4371 68.9164 54.604 68.8466 54.7981 68.8466C54.9922 68.8466 55.1592 68.9164 55.2988 69.0561C55.4385 69.1934 55.5083 69.3591 55.5083 69.5533C55.5083 69.6835 55.4752 69.803 55.4089 69.9119C55.345 70.0185 55.2598 70.1037 55.1532 70.1676C55.0467 70.2315 54.9283 70.2635 54.7981 70.2635ZM59.4483 74.9084C58.9606 74.9084 58.525 74.8243 58.1415 74.6563C57.7604 74.4882 57.4585 74.255 57.236 73.9567C57.0158 73.656 56.8974 73.308 56.8809 72.9127H57.9959C58.0101 73.1281 58.0823 73.3151 58.2125 73.4737C58.3451 73.63 58.5179 73.7507 58.731 73.8359C58.9441 73.9212 59.1808 73.9638 59.4412 73.9638C59.7277 73.9638 59.981 73.9141 60.2012 73.8146C60.4237 73.7152 60.5977 73.5767 60.7232 73.3992C60.8487 73.2192 60.9114 73.0121 60.9114 72.7777C60.9114 72.5339 60.8487 72.3196 60.7232 72.135C60.6001 71.9479 60.419 71.8011 60.1799 71.6946C59.9431 71.5881 59.6567 71.5348 59.3205 71.5348H58.7061V70.6399H59.3205C59.5904 70.6399 59.8271 70.5914 60.0307 70.4943C60.2367 70.3973 60.3977 70.2623 60.5137 70.0895C60.6297 69.9143 60.6877 69.7095 60.6877 69.4752C60.6877 69.2502 60.6368 69.0549 60.535 68.8892C60.4355 68.7211 60.2935 68.5897 60.1088 68.495C59.9266 68.4003 59.7111 68.353 59.4625 68.353C59.2258 68.353 59.0044 68.3968 58.7985 68.4844C58.5949 68.5696 58.4292 68.6927 58.3013 68.8537C58.1735 69.0123 58.1048 69.2029 58.0953 69.4254H57.0336C57.0454 69.0324 57.1614 68.6868 57.3816 68.3885C57.6041 68.0902 57.8977 67.857 58.2623 67.6889C58.6268 67.5208 59.0317 67.4368 59.4767 67.4368C59.9431 67.4368 60.3456 67.5279 60.6841 67.7102C61.025 67.8902 61.2878 68.1305 61.4725 68.4311C61.6595 68.7318 61.7518 69.0609 61.7495 69.4183C61.7518 69.8255 61.6382 70.1712 61.4086 70.4553C61.1813 70.7394 60.8783 70.9299 60.4995 71.027V71.0838C60.9824 71.1572 61.3565 71.349 61.6216 71.6591C61.8891 71.9692 62.0217 72.3539 62.0194 72.8132C62.0217 73.2133 61.9105 73.572 61.6855 73.8892C61.463 74.2065 61.1588 74.4562 60.7729 74.6385C60.387 74.8184 59.9455 74.9084 59.4483 74.9084ZM65.8936 74.9297C65.3326 74.9273 64.8532 74.7794 64.4554 74.4858C64.0577 74.1922 63.7535 73.7649 63.5428 73.2038C63.3321 72.6428 63.2267 71.9669 63.2267 71.1761C63.2267 70.3878 63.3321 69.7143 63.5428 69.1556C63.7559 68.5968 64.0613 68.1707 64.459 67.8771C64.8591 67.5836 65.3373 67.4368 65.8936 67.4368C66.45 67.4368 66.927 67.5848 67.3248 67.8807C67.7225 68.1743 68.0267 68.6004 68.2374 69.1591C68.4505 69.7154 68.557 70.3878 68.557 71.1761C68.557 71.9692 68.4516 72.6463 68.2409 73.2074C68.0302 73.7661 67.726 74.1934 67.3283 74.4894C66.9306 74.7829 66.4524 74.9297 65.8936 74.9297ZM65.8936 73.9815C66.3861 73.9815 66.7708 73.7413 67.0478 73.2607C67.3271 72.7801 67.4668 72.0852 67.4668 71.1761C67.4668 70.5725 67.4029 70.0623 67.275 69.6456C67.1496 69.2266 66.9685 68.9093 66.7317 68.6939C66.4973 68.4761 66.218 68.3672 65.8936 68.3672C65.4036 68.3672 65.0189 68.6087 64.7395 69.0916C64.4602 69.5746 64.3193 70.2694 64.3169 71.1761C64.3169 71.7822 64.3797 72.2948 64.5051 72.7138C64.633 73.1305 64.8141 73.4465 65.0485 73.6619C65.2828 73.875 65.5646 73.9815 65.8936 73.9815Z" fill="black"/>
<path d="M17.1052 173.279C16.5962 173.279 16.1464 173.192 15.7558 173.016C15.3675 172.841 15.0633 172.6 14.8431 172.292C14.623 171.984 14.5141 171.634 14.5164 171.241C14.5141 170.933 14.5768 170.65 14.7046 170.392C14.8348 170.132 15.0112 169.915 15.2338 169.742C15.4563 169.567 15.7049 169.456 15.9795 169.409V169.366C15.6173 169.278 15.3273 169.084 15.1095 168.784C14.8917 168.483 14.7839 168.137 14.7863 167.747C14.7839 167.375 14.8822 167.043 15.0811 166.752C15.2823 166.459 15.5581 166.228 15.9085 166.06C16.2588 165.892 16.6578 165.808 17.1052 165.808C17.5479 165.808 17.9433 165.893 18.2913 166.063C18.6417 166.231 18.9175 166.462 19.1187 166.756C19.3199 167.047 19.4217 167.377 19.4241 167.747C19.4217 168.137 19.3105 168.483 19.0903 168.784C18.8701 169.084 18.5837 169.278 18.2309 169.366V169.409C18.5032 169.456 18.7482 169.567 18.966 169.742C19.1862 169.915 19.3614 170.132 19.4916 170.392C19.6241 170.65 19.6916 170.933 19.694 171.241C19.6916 171.634 19.5803 171.984 19.3602 172.292C19.14 172.6 18.8346 172.841 18.444 173.016C18.0557 173.192 17.6095 173.279 17.1052 173.279ZM17.1052 172.381C17.4059 172.381 17.6663 172.331 17.8865 172.232C18.1066 172.13 18.2771 171.989 18.3978 171.809C18.5186 171.627 18.5801 171.414 18.5825 171.17C18.5801 170.917 18.5138 170.693 18.3836 170.499C18.2558 170.305 18.0818 170.152 17.8616 170.041C17.6414 169.929 17.3893 169.874 17.1052 169.874C16.8187 169.874 16.5642 169.929 16.3417 170.041C16.1192 170.152 15.944 170.305 15.8161 170.499C15.6883 170.693 15.6256 170.917 15.6279 171.17C15.6256 171.414 15.6836 171.627 15.8019 171.809C15.9227 171.989 16.0943 172.13 16.3169 172.232C16.5394 172.331 16.8022 172.381 17.1052 172.381ZM17.1052 168.997C17.3467 168.997 17.5609 168.948 17.748 168.851C17.935 168.754 18.0818 168.619 18.1883 168.446C18.2972 168.273 18.3528 168.071 18.3552 167.839C18.3528 167.612 18.2984 167.413 18.1919 167.242C18.0877 167.072 17.9421 166.94 17.7551 166.848C17.568 166.753 17.3514 166.706 17.1052 166.706C16.8543 166.706 16.6341 166.753 16.4447 166.848C16.2577 166.94 16.1121 167.072 16.0079 167.242C15.9037 167.413 15.8528 167.612 15.8552 167.839C15.8528 168.071 15.9049 168.273 16.0115 168.446C16.118 168.619 16.2648 168.754 16.4518 168.851C16.6412 168.948 16.859 168.997 17.1052 168.997ZM21.68 172.278C21.4858 172.278 21.3189 172.209 21.1792 172.072C21.0396 171.932 20.9697 171.764 20.9697 171.568C20.9697 171.373 21.0396 171.208 21.1792 171.07C21.3189 170.931 21.4858 170.861 21.68 170.861C21.8741 170.861 22.041 170.931 22.1807 171.07C22.3203 171.208 22.3902 171.373 22.3902 171.568C22.3902 171.698 22.357 171.817 22.2907 171.926C22.2268 172.033 22.1416 172.118 22.0351 172.182C21.9285 172.246 21.8102 172.278 21.68 172.278ZM21.68 168.634C21.4858 168.634 21.3189 168.566 21.1792 168.428C21.0396 168.289 20.9697 168.121 20.9697 167.924C20.9697 167.73 21.0396 167.564 21.1792 167.427C21.3189 167.287 21.4858 167.217 21.68 167.217C21.8741 167.217 22.041 167.287 22.1807 167.427C22.3203 167.564 22.3902 167.73 22.3902 167.924C22.3902 168.054 22.357 168.174 22.2907 168.283C22.2268 168.389 22.1416 168.475 22.0351 168.538C21.9285 168.602 21.8102 168.634 21.68 168.634ZM26.3302 173.301C25.7691 173.298 25.2897 173.15 24.892 172.857C24.4942 172.563 24.19 172.136 23.9793 171.575C23.7686 171.014 23.6633 170.338 23.6633 169.547C23.6633 168.759 23.7686 168.085 23.9793 167.526C24.1924 166.968 24.4978 166.542 24.8955 166.248C25.2956 165.954 25.7738 165.808 26.3302 165.808C26.8865 165.808 27.3635 165.956 27.7613 166.252C28.159 166.545 28.4632 166.971 28.6739 167.53C28.887 168.086 28.9935 168.759 28.9935 169.547C28.9935 170.34 28.8882 171.017 28.6775 171.578C28.4668 172.137 28.1626 172.564 27.7648 172.86C27.3671 173.154 26.8889 173.301 26.3302 173.301ZM26.3302 172.352C26.8226 172.352 27.2073 172.112 27.4843 171.632C27.7636 171.151 27.9033 170.456 27.9033 169.547C27.9033 168.943 27.8394 168.433 27.7116 168.016C27.5861 167.597 27.405 167.28 27.1682 167.065C26.9339 166.847 26.6545 166.738 26.3302 166.738C25.8401 166.738 25.4554 166.98 25.176 167.462C24.8967 167.945 24.7558 168.64 24.7535 169.547C24.7535 170.153 24.8162 170.666 24.9417 171.085C25.0695 171.501 25.2506 171.817 25.485 172.033C25.7194 172.246 26.0011 172.352 26.3302 172.352ZM32.7852 173.301C32.2242 173.298 31.7448 173.15 31.347 172.857C30.9493 172.563 30.6451 172.136 30.4344 171.575C30.2237 171.014 30.1183 170.338 30.1183 169.547C30.1183 168.759 30.2237 168.085 30.4344 167.526C30.6475 166.968 30.9529 166.542 31.3506 166.248C31.7507 165.954 32.2289 165.808 32.7852 165.808C33.3416 165.808 33.8186 165.956 34.2164 166.252C34.6141 166.545 34.9183 166.971 35.129 167.53C35.3421 168.086 35.4486 168.759 35.4486 169.547C35.4486 170.34 35.3432 171.017 35.1325 171.578C34.9218 172.137 34.6176 172.564 34.2199 172.86C33.8222 173.154 33.344 173.301 32.7852 173.301ZM32.7852 172.352C33.2777 172.352 33.6624 172.112 33.9394 171.632C34.2187 171.151 34.3584 170.456 34.3584 169.547C34.3584 168.943 34.2945 168.433 34.1666 168.016C34.0412 167.597 33.8601 167.28 33.6233 167.065C33.3889 166.847 33.1096 166.738 32.7852 166.738C32.2952 166.738 31.9105 166.98 31.6311 167.462C31.3518 167.945 31.2109 168.64 31.2085 169.547C31.2085 170.153 31.2713 170.666 31.3968 171.085C31.5246 171.501 31.7057 171.817 31.9401 172.033C32.1744 172.246 32.4562 172.352 32.7852 172.352ZM39.4578 170.346C39.4484 169.936 39.5087 169.6 39.6389 169.337C39.7715 169.075 39.9491 168.881 40.1716 168.755C40.3941 168.627 40.6392 168.563 40.9067 168.563C41.1434 168.563 41.3624 168.614 41.5637 168.716C41.7649 168.815 41.9945 168.979 42.2526 169.206C42.4136 169.346 42.545 169.448 42.6468 169.511C42.7486 169.573 42.8622 169.604 42.9877 169.604C43.1794 169.604 43.3321 169.533 43.4458 169.391C43.5618 169.246 43.6174 169.033 43.6127 168.752H44.5111C44.5206 169.163 44.459 169.501 44.3264 169.764C44.1962 170.026 44.0187 170.221 43.7938 170.346C43.5712 170.471 43.3274 170.534 43.0622 170.534C42.8231 170.534 42.603 170.483 42.4017 170.382C42.2005 170.277 41.972 170.114 41.7164 169.891C41.5506 169.747 41.4181 169.645 41.3186 169.586C41.2192 169.525 41.1067 169.494 40.9813 169.494C40.799 169.494 40.6475 169.56 40.5267 169.693C40.4084 169.823 40.3515 170.041 40.3563 170.346H39.4578ZM51.0798 165.808C51.4041 165.81 51.7238 165.869 52.0386 165.985C52.3535 166.101 52.6376 166.291 52.8909 166.553C53.1466 166.816 53.3502 167.171 53.5017 167.619C53.6556 168.064 53.7337 168.618 53.7361 169.281C53.7361 169.917 53.6721 170.484 53.5443 170.982C53.4165 171.476 53.233 171.894 52.9939 172.235C52.7571 172.576 52.4695 172.835 52.1309 173.013C51.7924 173.19 51.4113 173.279 50.9875 173.279C50.5542 173.279 50.1695 173.194 49.8334 173.024C49.4972 172.853 49.2238 172.618 49.0131 172.317C48.8023 172.014 48.671 171.666 48.6189 171.273H49.702C49.773 171.585 49.9174 171.839 50.1352 172.033C50.3554 172.225 50.6395 172.32 50.9875 172.32C51.5202 172.32 51.9356 172.088 52.2339 171.624C52.5322 171.158 52.6826 170.507 52.6849 169.671H52.6281C52.505 169.875 52.3511 170.05 52.1665 170.197C51.9842 170.344 51.7794 170.457 51.5521 170.538C51.3248 170.618 51.0822 170.659 50.8241 170.659C50.4051 170.659 50.0239 170.556 49.6807 170.35C49.3374 170.144 49.064 169.861 48.8604 169.501C48.6568 169.141 48.555 168.73 48.555 168.269C48.555 167.809 48.6591 167.393 48.8675 167.019C49.0782 166.645 49.3717 166.349 49.7481 166.131C50.1269 165.911 50.5708 165.803 51.0798 165.808ZM51.0834 166.731C50.8064 166.731 50.5566 166.8 50.3341 166.937C50.1139 167.072 49.9399 167.255 49.8121 167.487C49.6842 167.717 49.6203 167.973 49.6203 168.254C49.6203 168.536 49.6818 168.792 49.805 169.021C49.9304 169.249 50.1009 169.43 50.3163 169.565C50.5341 169.697 50.7827 169.764 51.0621 169.764C51.2704 169.764 51.4645 169.723 51.6444 169.643C51.8244 169.562 51.9818 169.451 52.1167 169.309C52.2517 169.165 52.357 169.001 52.4328 168.819C52.5086 168.637 52.5464 168.445 52.5464 168.244C52.5464 167.976 52.4825 167.728 52.3547 167.498C52.2292 167.268 52.0564 167.084 51.8362 166.944C51.616 166.802 51.3651 166.731 51.0834 166.731ZM55.7327 172.278C55.5386 172.278 55.3717 172.209 55.232 172.072C55.0923 171.932 55.0225 171.764 55.0225 171.568C55.0225 171.373 55.0923 171.208 55.232 171.07C55.3717 170.931 55.5386 170.861 55.7327 170.861C55.9268 170.861 56.0937 170.931 56.2334 171.07C56.3731 171.208 56.4429 171.373 56.4429 171.568C56.4429 171.698 56.4098 171.817 56.3435 171.926C56.2796 172.033 56.1943 172.118 56.0878 172.182C55.9813 172.246 55.8629 172.278 55.7327 172.278ZM55.7327 168.634C55.5386 168.634 55.3717 168.566 55.232 168.428C55.0923 168.289 55.0225 168.121 55.0225 167.924C55.0225 167.73 55.0923 167.564 55.232 167.427C55.3717 167.287 55.5386 167.217 55.7327 167.217C55.9268 167.217 56.0937 167.287 56.2334 167.427C56.3731 167.564 56.4429 167.73 56.4429 167.924C56.4429 168.054 56.4098 168.174 56.3435 168.283C56.2796 168.389 56.1943 168.475 56.0878 168.538C55.9813 168.602 55.8629 168.634 55.7327 168.634ZM60.3829 173.279C59.8952 173.279 59.4596 173.195 59.0761 173.027C58.6949 172.859 58.3931 172.626 58.1705 172.328C57.9504 172.027 57.832 171.679 57.8154 171.284H58.9305C58.9447 171.499 59.0169 171.686 59.1471 171.845C59.2797 172.001 59.4525 172.122 59.6656 172.207C59.8786 172.292 60.1154 172.335 60.3758 172.335C60.6623 172.335 60.9156 172.285 61.1357 172.185C61.3583 172.086 61.5323 171.948 61.6578 171.77C61.7832 171.59 61.846 171.383 61.846 171.149C61.846 170.905 61.7832 170.69 61.6578 170.506C61.5347 170.319 61.3535 170.172 61.1144 170.065C60.8777 169.959 60.5912 169.906 60.2551 169.906H59.6407V169.011H60.2551C60.5249 169.011 60.7617 168.962 60.9653 168.865C61.1713 168.768 61.3322 168.633 61.4482 168.46C61.5642 168.285 61.6222 168.08 61.6222 167.846C61.6222 167.621 61.5713 167.426 61.4695 167.26C61.3701 167.092 61.2281 166.961 61.0434 166.866C60.8611 166.771 60.6457 166.724 60.3971 166.724C60.1604 166.724 59.939 166.768 59.733 166.855C59.5294 166.94 59.3637 167.064 59.2359 167.225C59.108 167.383 59.0394 167.574 59.0299 167.796H57.9681C57.98 167.403 58.096 167.058 58.3161 166.759C58.5387 166.461 58.8322 166.228 59.1968 166.06C59.5614 165.892 59.9662 165.808 60.4113 165.808C60.8777 165.808 61.2802 165.899 61.6187 166.081C61.9596 166.261 62.2224 166.501 62.407 166.802C62.5941 167.103 62.6864 167.432 62.684 167.789C62.6864 168.196 62.5728 168.542 62.3431 168.826C62.1159 169.11 61.8128 169.301 61.434 169.398V169.455C61.917 169.528 62.291 169.72 62.5562 170.03C62.8237 170.34 62.9563 170.725 62.9539 171.184C62.9563 171.584 62.845 171.943 62.6201 172.26C62.3976 172.577 62.0934 172.827 61.7075 173.009C61.3216 173.189 60.8801 173.279 60.3829 173.279ZM66.8282 173.301C66.2671 173.298 65.7877 173.15 65.39 172.857C64.9923 172.563 64.6881 172.136 64.4774 171.575C64.2667 171.014 64.1613 170.338 64.1613 169.547C64.1613 168.759 64.2667 168.085 64.4774 167.526C64.6904 166.968 64.9958 166.542 65.3936 166.248C65.7936 165.954 66.2719 165.808 66.8282 165.808C67.3846 165.808 67.8616 165.956 68.2593 166.252C68.657 166.545 68.9613 166.971 69.172 167.53C69.385 168.086 69.4916 168.759 69.4916 169.547C69.4916 170.34 69.3862 171.017 69.1755 171.578C68.9648 172.137 68.6606 172.564 68.2629 172.86C67.8651 173.154 67.3869 173.301 66.8282 173.301ZM66.8282 172.352C67.3206 172.352 67.7053 172.112 67.9823 171.632C68.2617 171.151 68.4014 170.456 68.4014 169.547C68.4014 168.943 68.3374 168.433 68.2096 168.016C68.0841 167.597 67.903 167.28 67.6663 167.065C67.4319 166.847 67.1526 166.738 66.8282 166.738C66.3382 166.738 65.9535 166.98 65.6741 167.462C65.3947 167.945 65.2539 168.64 65.2515 169.547C65.2515 170.153 65.3142 170.666 65.4397 171.085C65.5676 171.501 65.7487 171.817 65.983 172.033C66.2174 172.246 66.4991 172.352 66.8282 172.352Z" fill="black"/>
<path d="M14.8469 124.573L18.0217 118.295V118.241H14.3498V117.3H19.158V118.273L15.994 124.573H14.8469ZM20.7649 123.671C20.5708 123.671 20.4039 123.602 20.2642 123.465C20.1245 123.325 20.0547 123.157 20.0547 122.961C20.0547 122.767 20.1245 122.601 20.2642 122.464C20.4039 122.324 20.5708 122.254 20.7649 122.254C20.959 122.254 21.1259 122.324 21.2656 122.464C21.4053 122.601 21.4751 122.767 21.4751 122.961C21.4751 123.091 21.442 123.211 21.3757 123.32C21.3118 123.426 21.2266 123.511 21.12 123.575C21.0135 123.639 20.8951 123.671 20.7649 123.671ZM20.7649 120.028C20.5708 120.028 20.4039 119.959 20.2642 119.822C20.1245 119.682 20.0547 119.514 20.0547 119.317C20.0547 119.123 20.1245 118.958 20.2642 118.82C20.4039 118.681 20.5708 118.611 20.7649 118.611C20.959 118.611 21.1259 118.681 21.2656 118.82C21.4053 118.958 21.4751 119.123 21.4751 119.317C21.4751 119.448 21.442 119.567 21.3757 119.676C21.3118 119.783 21.2266 119.868 21.12 119.932C21.0135 119.996 20.8951 120.028 20.7649 120.028ZM25.4151 124.672C24.9274 124.672 24.4918 124.588 24.1083 124.42C23.7272 124.252 23.4253 124.019 23.2028 123.721C22.9826 123.42 22.8642 123.072 22.8477 122.677H23.9627C23.9769 122.892 24.0491 123.079 24.1793 123.238C24.3119 123.394 24.4847 123.515 24.6978 123.6C24.9109 123.685 25.1476 123.728 25.408 123.728C25.6945 123.728 25.9478 123.678 26.168 123.579C26.3905 123.479 26.5645 123.341 26.69 123.163C26.8155 122.983 26.8782 122.776 26.8782 122.542C26.8782 122.298 26.8155 122.084 26.69 121.899C26.5669 121.712 26.3858 121.565 26.1467 121.459C25.9099 121.352 25.6235 121.299 25.2873 121.299H24.6729V120.404H25.2873C25.5572 120.404 25.7939 120.355 25.9975 120.258C26.2035 120.161 26.3645 120.026 26.4805 119.854C26.5965 119.678 26.6545 119.474 26.6545 119.239C26.6545 119.014 26.6036 118.819 26.5018 118.653C26.4023 118.485 26.2603 118.354 26.0756 118.259C25.8933 118.164 25.6779 118.117 25.4293 118.117C25.1926 118.117 24.9712 118.161 24.7653 118.248C24.5617 118.334 24.396 118.457 24.2681 118.618C24.1403 118.776 24.0716 118.967 24.0621 119.19H23.0004C23.0122 118.797 23.1282 118.451 23.3484 118.153C23.5709 117.854 23.8645 117.621 24.229 117.453C24.5936 117.285 24.9985 117.201 25.4435 117.201C25.9099 117.201 26.3124 117.292 26.6509 117.474C26.9918 117.654 27.2546 117.895 27.4393 118.195C27.6263 118.496 27.7186 118.825 27.7163 119.182C27.7186 119.59 27.605 119.935 27.3754 120.219C27.1481 120.503 26.8451 120.694 26.4663 120.791V120.848C26.9492 120.921 27.3233 121.113 27.5884 121.423C27.8559 121.733 27.9885 122.118 27.9862 122.577C27.9885 122.977 27.8772 123.336 27.6523 123.653C27.4298 123.971 27.1256 124.22 26.7397 124.403C26.3538 124.583 25.9123 124.672 25.4151 124.672ZM31.8604 124.694C31.2994 124.691 30.82 124.543 30.4222 124.25C30.0245 123.956 29.7203 123.529 29.5096 122.968C29.2989 122.407 29.1935 121.731 29.1935 120.94C29.1935 120.152 29.2989 119.478 29.5096 118.92C29.7227 118.361 30.0281 117.935 30.4258 117.641C30.8259 117.348 31.3041 117.201 31.8604 117.201C32.4168 117.201 32.8938 117.349 33.2915 117.645C33.6893 117.938 33.9935 118.364 34.2042 118.923C34.4173 119.48 34.5238 120.152 34.5238 120.94C34.5238 121.733 34.4184 122.41 34.2077 122.971C33.997 123.53 33.6928 123.958 33.2951 124.253C32.8974 124.547 32.4192 124.694 31.8604 124.694ZM31.8604 123.746C32.3529 123.746 32.7376 123.505 33.0146 123.025C33.2939 122.544 33.4336 121.849 33.4336 120.94C33.4336 120.337 33.3697 119.826 33.2418 119.41C33.1164 118.991 32.9353 118.673 32.6985 118.458C32.4641 118.24 32.1848 118.131 31.8604 118.131C31.3704 118.131 30.9857 118.373 30.7063 118.856C30.427 119.339 30.2861 120.034 30.2837 120.94C30.2837 121.546 30.3465 122.059 30.4719 122.478C30.5998 122.895 30.7809 123.211 31.0153 123.426C31.2496 123.639 31.5314 123.746 31.8604 123.746ZM38.533 121.739C38.5236 121.33 38.5839 120.994 38.7141 120.731C38.8467 120.468 39.0243 120.274 39.2468 120.148C39.4693 120.021 39.7144 119.957 39.9819 119.957C40.2186 119.957 40.4376 120.007 40.6388 120.109C40.8401 120.209 41.0697 120.372 41.3278 120.599C41.4888 120.739 41.6201 120.841 41.7219 120.905C41.8237 120.966 41.9374 120.997 42.0629 120.997C42.2546 120.997 42.4073 120.926 42.521 120.784C42.637 120.64 42.6926 120.427 42.6879 120.145H43.5863C43.5958 120.557 43.5342 120.894 43.4016 121.157C43.2714 121.42 43.0939 121.614 42.869 121.739C42.6464 121.865 42.4026 121.927 42.1374 121.927C41.8983 121.927 41.6781 121.877 41.4769 121.775C41.2757 121.671 41.0472 121.507 40.7915 121.285C40.6258 121.14 40.4933 121.038 40.3938 120.979C40.2944 120.918 40.1819 120.887 40.0565 120.887C39.8742 120.887 39.7227 120.953 39.6019 121.086C39.4835 121.216 39.4267 121.434 39.4315 121.739H38.533ZM50.1941 124.672C49.6851 124.672 49.2353 124.585 48.8446 124.41C48.4564 124.235 48.1522 123.993 47.932 123.685C47.7118 123.378 47.6029 123.027 47.6053 122.634C47.6029 122.326 47.6657 122.043 47.7935 121.785C47.9237 121.525 48.1001 121.308 48.3226 121.136C48.5452 120.96 48.7937 120.849 49.0684 120.802V120.759C48.7061 120.672 48.4161 120.477 48.1983 120.177C47.9805 119.876 47.8728 119.53 47.8752 119.14C47.8728 118.768 47.9711 118.437 48.1699 118.146C48.3712 117.852 48.647 117.621 48.9973 117.453C49.3477 117.285 49.7466 117.201 50.1941 117.201C50.6368 117.201 51.0321 117.286 51.3801 117.457C51.7305 117.625 52.0063 117.855 52.2076 118.149C52.4088 118.44 52.5106 118.771 52.513 119.14C52.5106 119.53 52.3993 119.876 52.1792 120.177C51.959 120.477 51.6725 120.672 51.3198 120.759V120.802C51.592 120.849 51.8371 120.96 52.0549 121.136C52.275 121.308 52.4502 121.525 52.5804 121.785C52.713 122.043 52.7805 122.326 52.7828 122.634C52.7805 123.027 52.6692 123.378 52.449 123.685C52.2289 123.993 51.9235 124.235 51.5328 124.41C51.1446 124.585 50.6983 124.672 50.1941 124.672ZM50.1941 123.774C50.4947 123.774 50.7551 123.724 50.9753 123.625C51.1955 123.523 51.3659 123.382 51.4867 123.202C51.6074 123.02 51.669 122.807 51.6713 122.563C51.669 122.31 51.6027 122.086 51.4725 121.892C51.3446 121.698 51.1706 121.545 50.9505 121.434C50.7303 121.323 50.4782 121.267 50.1941 121.267C49.9076 121.267 49.6531 121.323 49.4306 121.434C49.208 121.545 49.0328 121.698 48.905 121.892C48.7772 122.086 48.7144 122.31 48.7168 122.563C48.7144 122.807 48.7724 123.02 48.8908 123.202C49.0115 123.382 49.1832 123.523 49.4057 123.625C49.6283 123.724 49.891 123.774 50.1941 123.774ZM50.1941 120.39C50.4355 120.39 50.6498 120.341 50.8368 120.244C51.0239 120.147 51.1706 120.012 51.2772 119.839C51.3861 119.667 51.4417 119.464 51.4441 119.232C51.4417 119.005 51.3873 118.806 51.2807 118.636C51.1766 118.465 51.031 118.334 50.8439 118.241C50.6569 118.147 50.4403 118.099 50.1941 118.099C49.9431 118.099 49.723 118.147 49.5336 118.241C49.3465 118.334 49.2009 118.465 49.0968 118.636C48.9926 118.806 48.9417 119.005 48.9441 119.232C48.9417 119.464 48.9938 119.667 49.1003 119.839C49.2069 120.012 49.3536 120.147 49.5407 120.244C49.7301 120.341 49.9479 120.39 50.1941 120.39ZM54.7688 123.671C54.5747 123.671 54.4078 123.602 54.2681 123.465C54.1284 123.325 54.0586 123.157 54.0586 122.961C54.0586 122.767 54.1284 122.601 54.2681 122.464C54.4078 122.324 54.5747 122.254 54.7688 122.254C54.9629 122.254 55.1299 122.324 55.2695 122.464C55.4092 122.601 55.479 122.767 55.479 122.961C55.479 123.091 55.4459 123.211 55.3796 123.32C55.3157 123.426 55.2305 123.511 55.1239 123.575C55.0174 123.639 54.899 123.671 54.7688 123.671ZM54.7688 120.028C54.5747 120.028 54.4078 119.959 54.2681 119.822C54.1284 119.682 54.0586 119.514 54.0586 119.317C54.0586 119.123 54.1284 118.958 54.2681 118.82C54.4078 118.681 54.5747 118.611 54.7688 118.611C54.9629 118.611 55.1299 118.681 55.2695 118.82C55.4092 118.958 55.479 119.123 55.479 119.317C55.479 119.448 55.4459 119.567 55.3796 119.676C55.3157 119.783 55.2305 119.868 55.1239 119.932C55.0174 119.996 54.899 120.028 54.7688 120.028ZM59.419 124.694C58.858 124.691 58.3786 124.543 57.9808 124.25C57.5831 123.956 57.2789 123.529 57.0682 122.968C56.8575 122.407 56.7521 121.731 56.7521 120.94C56.7521 120.152 56.8575 119.478 57.0682 118.92C57.2813 118.361 57.5866 117.935 57.9844 117.641C58.3845 117.348 58.8627 117.201 59.419 117.201C59.9754 117.201 60.4524 117.349 60.8501 117.645C61.2479 117.938 61.5521 118.364 61.7628 118.923C61.9759 119.48 62.0824 120.152 62.0824 120.94C62.0824 121.733 61.977 122.41 61.7663 122.971C61.5556 123.53 61.2514 123.958 60.8537 124.253C60.456 124.547 59.9777 124.694 59.419 124.694ZM59.419 123.746C59.9115 123.746 60.2962 123.505 60.5732 123.025C60.8525 122.544 60.9922 121.849 60.9922 120.94C60.9922 120.337 60.9283 119.826 60.8004 119.41C60.675 118.991 60.4938 118.673 60.2571 118.458C60.0227 118.24 59.7434 118.131 59.419 118.131C58.929 118.131 58.5443 118.373 58.2649 118.856C57.9856 119.339 57.8447 120.034 57.8423 120.94C57.8423 121.546 57.9051 122.059 58.0305 122.478C58.1584 122.895 58.3395 123.211 58.5739 123.426C58.8082 123.639 59.09 123.746 59.419 123.746ZM65.8741 124.694C65.313 124.691 64.8336 124.543 64.4359 124.25C64.0382 123.956 63.734 123.529 63.5233 122.968C63.3126 122.407 63.2072 121.731 63.2072 120.94C63.2072 120.152 63.3126 119.478 63.5233 118.92C63.7363 118.361 64.0417 117.935 64.4395 117.641C64.8395 117.348 65.3178 117.201 65.8741 117.201C66.4305 117.201 66.9075 117.349 67.3052 117.645C67.7029 117.938 68.0072 118.364 68.2179 118.923C68.4309 119.48 68.5375 120.152 68.5375 120.94C68.5375 121.733 68.4321 122.41 68.2214 122.971C68.0107 123.53 67.7065 123.958 67.3088 124.253C66.911 124.547 66.4328 124.694 65.8741 124.694ZM65.8741 123.746C66.3665 123.746 66.7512 123.505 67.0282 123.025C67.3076 122.544 67.4473 121.849 67.4473 120.94C67.4473 120.337 67.3833 119.826 67.2555 119.41C67.13 118.991 66.9489 118.673 66.7122 118.458C66.4778 118.24 66.1984 118.131 65.8741 118.131C65.3841 118.131 64.9993 118.373 64.72 118.856C64.4406 119.339 64.2998 120.034 64.2974 120.94C64.2974 121.546 64.3601 122.059 64.4856 122.478C64.6135 122.895 64.7946 123.211 65.0289 123.426C65.2633 123.639 65.545 123.746 65.8741 123.746Z" fill="black"/>
</svg>
