<svg width="332" height="516" viewBox="0 0 332 516" fill="none" xmlns="http://www.w3.org/2000/svg">
<rect y="1" width="332" height="514" fill="#FFFBFB"/>
<rect x="0.5" y="1.5" width="331" height="513" stroke="black" stroke-opacity="0.18"/>
<path d="M11.6052 338.099C11.0962 338.099 10.6464 338.012 10.2558 337.837C9.86751 337.661 9.5633 337.42 9.34313 337.112C9.12296 336.804 9.01406 336.454 9.01642 336.061C9.01406 335.753 9.07679 335.47 9.20463 335.212C9.33484 334.952 9.51122 334.735 9.73375 334.562C9.95629 334.387 10.2049 334.276 10.4795 334.229V334.186C10.1173 334.098 9.82727 333.904 9.60946 333.604C9.39166 333.303 9.28394 332.957 9.28631 332.567C9.28394 332.195 9.38219 331.864 9.58105 331.572C9.78229 331.279 10.0581 331.048 10.4085 330.88C10.7588 330.712 11.1578 330.628 11.6052 330.628C12.0479 330.628 12.4433 330.713 12.7913 330.884C13.1417 331.052 13.4175 331.282 13.6187 331.576C13.8199 331.867 13.9217 332.197 13.9241 332.567C13.9217 332.957 13.8105 333.303 13.5903 333.604C13.3701 333.904 13.0837 334.098 12.7309 334.186V334.229C13.0032 334.276 13.2482 334.387 13.466 334.562C13.6862 334.735 13.8614 334.952 13.9916 335.212C14.1241 335.47 14.1916 335.753 14.194 336.061C14.1916 336.454 14.0803 336.804 13.8602 337.112C13.64 337.42 13.3346 337.661 12.944 337.837C12.5557 338.012 12.1095 338.099 11.6052 338.099ZM11.6052 337.201C11.9059 337.201 12.1663 337.151 12.3865 337.052C12.6066 336.95 12.7771 336.809 12.8978 336.629C13.0186 336.447 13.0801 336.234 13.0825 335.99C13.0801 335.737 13.0138 335.513 12.8836 335.319C12.7558 335.125 12.5818 334.972 12.3616 334.861C12.1414 334.75 11.8893 334.694 11.6052 334.694C11.3187 334.694 11.0642 334.75 10.8417 334.861C10.6192 334.972 10.444 335.125 10.3161 335.319C10.1883 335.513 10.1256 335.737 10.1279 335.99C10.1256 336.234 10.1836 336.447 10.3019 336.629C10.4227 336.809 10.5943 336.95 10.8169 337.052C11.0394 337.151 11.3022 337.201 11.6052 337.201ZM11.6052 333.817C11.8467 333.817 12.0609 333.768 12.248 333.671C12.435 333.574 12.5818 333.439 12.6883 333.266C12.7972 333.094 12.8528 332.891 12.8552 332.659C12.8528 332.432 12.7984 332.233 12.6919 332.062C12.5877 331.892 12.4421 331.761 12.2551 331.668C12.068 331.574 11.8514 331.526 11.6052 331.526C11.3543 331.526 11.1341 331.574 10.9447 331.668C10.7577 331.761 10.6121 331.892 10.5079 332.062C10.4037 332.233 10.3528 332.432 10.3552 332.659C10.3528 332.891 10.4049 333.094 10.5115 333.266C10.618 333.439 10.7648 333.574 10.9518 333.671C11.1412 333.768 11.359 333.817 11.6052 333.817ZM16.18 337.098C15.9858 337.098 15.8189 337.029 15.6792 336.892C15.5396 336.752 15.4697 336.584 15.4697 336.388C15.4697 336.194 15.5396 336.028 15.6792 335.891C15.8189 335.751 15.9858 335.681 16.18 335.681C16.3741 335.681 16.541 335.751 16.6807 335.891C16.8203 336.028 16.8902 336.194 16.8902 336.388C16.8902 336.518 16.857 336.638 16.7907 336.746C16.7268 336.853 16.6416 336.938 16.5351 337.002C16.4285 337.066 16.3102 337.098 16.18 337.098ZM16.18 333.455C15.9858 333.455 15.8189 333.386 15.6792 333.249C15.5396 333.109 15.4697 332.941 15.4697 332.744C15.4697 332.55 15.5396 332.384 15.6792 332.247C15.8189 332.107 15.9858 332.038 16.18 332.038C16.3741 332.038 16.541 332.107 16.6807 332.247C16.8203 332.384 16.8902 332.55 16.8902 332.744C16.8902 332.875 16.857 332.994 16.7907 333.103C16.7268 333.21 16.6416 333.295 16.5351 333.359C16.4285 333.423 16.3102 333.455 16.18 333.455ZM20.8302 338.121C20.2691 338.118 19.7897 337.97 19.392 337.677C18.9942 337.383 18.69 336.956 18.4793 336.395C18.2686 335.834 18.1633 335.158 18.1633 334.367C18.1633 333.579 18.2686 332.905 18.4793 332.347C18.6924 331.788 18.9978 331.362 19.3955 331.068C19.7956 330.775 20.2738 330.628 20.8302 330.628C21.3865 330.628 21.8635 330.776 22.2613 331.072C22.659 331.365 22.9632 331.791 23.1739 332.35C23.387 332.906 23.4935 333.579 23.4935 334.367C23.4935 335.16 23.3882 335.837 23.1775 336.398C22.9668 336.957 22.6626 337.384 22.2648 337.68C21.8671 337.974 21.3889 338.121 20.8302 338.121ZM20.8302 337.173C21.3226 337.173 21.7073 336.932 21.9843 336.452C22.2636 335.971 22.4033 335.276 22.4033 334.367C22.4033 333.763 22.3394 333.253 22.2116 332.837C22.0861 332.418 21.905 332.1 21.6682 331.885C21.4339 331.667 21.1545 331.558 20.8302 331.558C20.3401 331.558 19.9554 331.8 19.676 332.283C19.3967 332.766 19.2558 333.46 19.2535 334.367C19.2535 334.973 19.3162 335.486 19.4417 335.905C19.5695 336.321 19.7506 336.638 19.985 336.853C20.2194 337.066 20.5011 337.173 20.8302 337.173ZM27.2852 338.121C26.7242 338.118 26.2448 337.97 25.847 337.677C25.4493 337.383 25.1451 336.956 24.9344 336.395C24.7237 335.834 24.6183 335.158 24.6183 334.367C24.6183 333.579 24.7237 332.905 24.9344 332.347C25.1475 331.788 25.4529 331.362 25.8506 331.068C26.2507 330.775 26.7289 330.628 27.2852 330.628C27.8416 330.628 28.3186 330.776 28.7164 331.072C29.1141 331.365 29.4183 331.791 29.629 332.35C29.8421 332.906 29.9486 333.579 29.9486 334.367C29.9486 335.16 29.8432 335.837 29.6325 336.398C29.4218 336.957 29.1176 337.384 28.7199 337.68C28.3222 337.974 27.844 338.121 27.2852 338.121ZM27.2852 337.173C27.7777 337.173 28.1624 336.932 28.4394 336.452C28.7187 335.971 28.8584 335.276 28.8584 334.367C28.8584 333.763 28.7945 333.253 28.6666 332.837C28.5412 332.418 28.3601 332.1 28.1233 331.885C27.8889 331.667 27.6096 331.558 27.2852 331.558C26.7952 331.558 26.4105 331.8 26.1311 332.283C25.8518 332.766 25.7109 333.46 25.7085 334.367C25.7085 334.973 25.7713 335.486 25.8968 335.905C26.0246 336.321 26.2057 336.638 26.4401 336.853C26.6744 337.066 26.9562 337.173 27.2852 337.173ZM33.9578 335.166C33.9484 334.757 34.0087 334.42 34.1389 334.158C34.2715 333.895 34.4491 333.701 34.6716 333.575C34.8941 333.447 35.1392 333.384 35.4067 333.384C35.6434 333.384 35.8624 333.434 36.0637 333.536C36.2649 333.636 36.4945 333.799 36.7526 334.026C36.9136 334.166 37.045 334.268 37.1468 334.332C37.2486 334.393 37.3622 334.424 37.4877 334.424C37.6794 334.424 37.8321 334.353 37.9458 334.211C38.0618 334.067 38.1174 333.853 38.1127 333.572H39.0111C39.0206 333.984 38.959 334.321 38.8264 334.584C38.6962 334.847 38.5187 335.041 38.2938 335.166C38.0712 335.292 37.8274 335.354 37.5622 335.354C37.3231 335.354 37.103 335.304 36.9017 335.202C36.7005 335.098 36.472 334.934 36.2164 334.712C36.0506 334.567 35.9181 334.465 35.8186 334.406C35.7192 334.345 35.6067 334.314 35.4813 334.314C35.299 334.314 35.1475 334.38 35.0267 334.513C34.9084 334.643 34.8515 334.861 34.8563 335.166H33.9578ZM45.5798 330.628C45.9041 330.63 46.2238 330.689 46.5386 330.805C46.8535 330.921 47.1376 331.111 47.3909 331.374C47.6466 331.636 47.8502 331.991 48.0017 332.439C48.1556 332.884 48.2337 333.438 48.2361 334.101C48.2361 334.738 48.1721 335.305 48.0443 335.802C47.9165 336.297 47.733 336.714 47.4939 337.055C47.2571 337.396 46.9695 337.656 46.6309 337.833C46.2924 338.011 45.9113 338.099 45.4875 338.099C45.0542 338.099 44.6695 338.014 44.3334 337.844C43.9972 337.673 43.7238 337.438 43.5131 337.137C43.3023 336.834 43.171 336.486 43.1189 336.093H44.202C44.273 336.406 44.4174 336.659 44.6352 336.853C44.8554 337.045 45.1395 337.141 45.4875 337.141C46.0202 337.141 46.4356 336.909 46.7339 336.445C47.0322 335.978 47.1826 335.327 47.1849 334.491H47.1281C47.005 334.695 46.8511 334.87 46.6665 335.017C46.4842 335.164 46.2794 335.277 46.0521 335.358C45.8248 335.438 45.5822 335.479 45.3241 335.479C44.9051 335.479 44.5239 335.376 44.1807 335.17C43.8374 334.964 43.564 334.681 43.3604 334.321C43.1568 333.961 43.055 333.55 43.055 333.089C43.055 332.629 43.1591 332.213 43.3675 331.839C43.5782 331.465 43.8717 331.169 44.2481 330.951C44.6269 330.731 45.0708 330.623 45.5798 330.628ZM45.5834 331.551C45.3064 331.551 45.0566 331.62 44.8341 331.757C44.6139 331.892 44.4399 332.076 44.3121 332.308C44.1842 332.537 44.1203 332.793 44.1203 333.075C44.1203 333.356 44.1818 333.612 44.305 333.842C44.4304 334.069 44.6009 334.25 44.8163 334.385C45.0341 334.518 45.2827 334.584 45.5621 334.584C45.7704 334.584 45.9645 334.544 46.1444 334.463C46.3244 334.383 46.4818 334.271 46.6167 334.129C46.7517 333.985 46.857 333.821 46.9328 333.639C47.0086 333.457 47.0464 333.265 47.0464 333.064C47.0464 332.796 46.9825 332.548 46.8547 332.318C46.7292 332.089 46.5564 331.904 46.3362 331.764C46.116 331.622 45.8651 331.551 45.5834 331.551ZM50.2327 337.098C50.0386 337.098 49.8717 337.029 49.732 336.892C49.5923 336.752 49.5225 336.584 49.5225 336.388C49.5225 336.194 49.5923 336.028 49.732 335.891C49.8717 335.751 50.0386 335.681 50.2327 335.681C50.4268 335.681 50.5937 335.751 50.7334 335.891C50.8731 336.028 50.9429 336.194 50.9429 336.388C50.9429 336.518 50.9098 336.638 50.8435 336.746C50.7796 336.853 50.6943 336.938 50.5878 337.002C50.4813 337.066 50.3629 337.098 50.2327 337.098ZM50.2327 333.455C50.0386 333.455 49.8717 333.386 49.732 333.249C49.5923 333.109 49.5225 332.941 49.5225 332.744C49.5225 332.55 49.5923 332.384 49.732 332.247C49.8717 332.107 50.0386 332.038 50.2327 332.038C50.4268 332.038 50.5937 332.107 50.7334 332.247C50.8731 332.384 50.9429 332.55 50.9429 332.744C50.9429 332.875 50.9098 332.994 50.8435 333.103C50.7796 333.21 50.6943 333.295 50.5878 333.359C50.4813 333.423 50.3629 333.455 50.2327 333.455ZM54.8829 338.099C54.3952 338.099 53.9596 338.015 53.5761 337.847C53.1949 337.679 52.8931 337.446 52.6705 337.148C52.4504 336.847 52.332 336.499 52.3154 336.104H53.4305C53.4447 336.319 53.5169 336.506 53.6471 336.665C53.7797 336.821 53.9525 336.942 54.1656 337.027C54.3786 337.112 54.6154 337.155 54.8758 337.155C55.1623 337.155 55.4156 337.105 55.6357 337.006C55.8583 336.906 56.0323 336.768 56.1578 336.59C56.2832 336.41 56.346 336.203 56.346 335.969C56.346 335.725 56.2832 335.511 56.1578 335.326C56.0347 335.139 55.8535 334.992 55.6144 334.886C55.3777 334.779 55.0912 334.726 54.7551 334.726H54.1407V333.831H54.7551C55.0249 333.831 55.2617 333.782 55.4653 333.685C55.6713 333.588 55.8322 333.453 55.9482 333.281C56.0642 333.105 56.1222 332.901 56.1222 332.666C56.1222 332.441 56.0713 332.246 55.9695 332.08C55.8701 331.912 55.7281 331.781 55.5434 331.686C55.3611 331.591 55.1457 331.544 54.8971 331.544C54.6604 331.544 54.439 331.588 54.233 331.675C54.0294 331.761 53.8637 331.884 53.7359 332.045C53.608 332.203 53.5394 332.394 53.5299 332.616H52.4681C52.48 332.223 52.596 331.878 52.8161 331.58C53.0387 331.281 53.3322 331.048 53.6968 330.88C54.0614 330.712 54.4662 330.628 54.9113 330.628C55.3777 330.628 55.7802 330.719 56.1187 330.901C56.4596 331.081 56.7224 331.321 56.907 331.622C57.0941 331.923 57.1864 332.252 57.184 332.609C57.1864 333.017 57.0728 333.362 56.8431 333.646C56.6159 333.93 56.3128 334.121 55.934 334.218V334.275C56.417 334.348 56.791 334.54 57.0562 334.85C57.3237 335.16 57.4563 335.545 57.4539 336.004C57.4563 336.404 57.345 336.763 57.1201 337.08C56.8976 337.397 56.5934 337.647 56.2075 337.83C55.8216 338.009 55.3801 338.099 54.8829 338.099ZM61.3282 338.121C60.7671 338.118 60.2877 337.97 59.89 337.677C59.4923 337.383 59.1881 336.956 58.9774 336.395C58.7667 335.834 58.6613 335.158 58.6613 334.367C58.6613 333.579 58.7667 332.905 58.9774 332.347C59.1904 331.788 59.4958 331.362 59.8936 331.068C60.2936 330.775 60.7719 330.628 61.3282 330.628C61.8846 330.628 62.3616 330.776 62.7593 331.072C63.157 331.365 63.4613 331.791 63.672 332.35C63.885 332.906 63.9916 333.579 63.9916 334.367C63.9916 335.16 63.8862 335.837 63.6755 336.398C63.4648 336.957 63.1606 337.384 62.7629 337.68C62.3651 337.974 61.8869 338.121 61.3282 338.121ZM61.3282 337.173C61.8206 337.173 62.2053 336.932 62.4823 336.452C62.7617 335.971 62.9014 335.276 62.9014 334.367C62.9014 333.763 62.8374 333.253 62.7096 332.837C62.5841 332.418 62.403 332.1 62.1663 331.885C61.9319 331.667 61.6526 331.558 61.3282 331.558C60.8382 331.558 60.4535 331.8 60.1741 332.283C59.8947 332.766 59.7539 333.46 59.7515 334.367C59.7515 334.973 59.8142 335.486 59.9397 335.905C60.0676 336.321 60.2487 336.638 60.483 336.853C60.7174 337.066 60.9991 337.173 61.3282 337.173Z" fill="black"/>
<path d="M13.1452 444.628C13.4696 444.63 13.7892 444.689 14.104 444.805C14.4189 444.921 14.703 445.111 14.9563 445.374C15.212 445.636 15.4156 445.991 15.5671 446.439C15.721 446.884 15.7991 447.438 15.8015 448.101C15.8015 448.738 15.7376 449.305 15.6097 449.802C15.4819 450.297 15.2984 450.714 15.0593 451.055C14.8226 451.396 14.5349 451.656 14.1964 451.833C13.8578 452.011 13.4767 452.099 13.0529 452.099C12.6197 452.099 12.235 452.014 11.8988 451.844C11.5626 451.673 11.2892 451.438 11.0785 451.137C10.8678 450.834 10.7364 450.486 10.6843 450.093H11.7674C11.8384 450.406 11.9828 450.659 12.2006 450.853C12.4208 451.045 12.7049 451.141 13.0529 451.141C13.5856 451.141 14.0011 450.909 14.2994 450.445C14.5977 449.978 14.748 449.327 14.7504 448.491H14.6935C14.5704 448.695 14.4165 448.87 14.2319 449.017C14.0496 449.164 13.8448 449.277 13.6175 449.358C13.3903 449.438 13.1476 449.479 12.8896 449.479C12.4705 449.479 12.0894 449.376 11.7461 449.17C11.4028 448.964 11.1294 448.681 10.9258 448.321C10.7222 447.961 10.6204 447.55 10.6204 447.089C10.6204 446.629 10.7246 446.213 10.9329 445.839C11.1436 445.465 11.4371 445.169 11.8136 444.951C12.1924 444.731 12.6362 444.623 13.1452 444.628ZM13.1488 445.551C12.8718 445.551 12.622 445.62 12.3995 445.757C12.1793 445.892 12.0053 446.076 11.8775 446.308C11.7496 446.537 11.6857 446.793 11.6857 447.075C11.6857 447.356 11.7473 447.612 11.8704 447.842C11.9959 448.069 12.1663 448.25 12.3817 448.385C12.5996 448.518 12.8481 448.584 13.1275 448.584C13.3358 448.584 13.5299 448.544 13.7099 448.463C13.8898 448.383 14.0472 448.271 14.1822 448.129C14.3171 447.985 14.4225 447.821 14.4982 447.639C14.574 447.457 14.6119 447.265 14.6119 447.064C14.6119 446.796 14.5479 446.548 14.4201 446.318C14.2946 446.089 14.1218 445.904 13.9016 445.764C13.6815 445.622 13.4305 445.551 13.1488 445.551ZM17.7981 451.098C17.604 451.098 17.4371 451.029 17.2974 450.892C17.1577 450.752 17.0879 450.584 17.0879 450.388C17.0879 450.194 17.1577 450.028 17.2974 449.891C17.4371 449.751 17.604 449.681 17.7981 449.681C17.9922 449.681 18.1592 449.751 18.2988 449.891C18.4385 450.028 18.5083 450.194 18.5083 450.388C18.5083 450.518 18.4752 450.638 18.4089 450.746C18.345 450.853 18.2598 450.938 18.1532 451.002C18.0467 451.066 17.9283 451.098 17.7981 451.098ZM17.7981 447.455C17.604 447.455 17.4371 447.386 17.2974 447.249C17.1577 447.109 17.0879 446.941 17.0879 446.744C17.0879 446.55 17.1577 446.384 17.2974 446.247C17.4371 446.107 17.604 446.038 17.7981 446.038C17.9922 446.038 18.1592 446.107 18.2988 446.247C18.4385 446.384 18.5083 446.55 18.5083 446.744C18.5083 446.875 18.4752 446.994 18.4089 447.103C18.345 447.21 18.2598 447.295 18.1532 447.359C18.0467 447.423 17.9283 447.455 17.7981 447.455ZM22.4483 452.099C21.9606 452.099 21.525 452.015 21.1415 451.847C20.7604 451.679 20.4585 451.446 20.236 451.148C20.0158 450.847 19.8974 450.499 19.8809 450.104H20.9959C21.0101 450.319 21.0823 450.506 21.2125 450.665C21.3451 450.821 21.5179 450.942 21.731 451.027C21.9441 451.112 22.1808 451.155 22.4412 451.155C22.7277 451.155 22.981 451.105 23.2012 451.006C23.4237 450.906 23.5977 450.768 23.7232 450.59C23.8487 450.41 23.9114 450.203 23.9114 449.969C23.9114 449.725 23.8487 449.511 23.7232 449.326C23.6001 449.139 23.419 448.992 23.1799 448.886C22.9431 448.779 22.6567 448.726 22.3205 448.726H21.7061V447.831H22.3205C22.5904 447.831 22.8271 447.782 23.0307 447.685C23.2367 447.588 23.3977 447.453 23.5137 447.281C23.6297 447.105 23.6877 446.901 23.6877 446.666C23.6877 446.441 23.6368 446.246 23.535 446.08C23.4355 445.912 23.2935 445.781 23.1088 445.686C22.9266 445.591 22.7111 445.544 22.4625 445.544C22.2258 445.544 22.0044 445.588 21.7985 445.675C21.5949 445.761 21.4292 445.884 21.3013 446.045C21.1735 446.203 21.1048 446.394 21.0953 446.616H20.0336C20.0454 446.223 20.1614 445.878 20.3816 445.58C20.6041 445.281 20.8977 445.048 21.2623 444.88C21.6268 444.712 22.0317 444.628 22.4767 444.628C22.9431 444.628 23.3456 444.719 23.6841 444.901C24.025 445.081 24.2878 445.321 24.4725 445.622C24.6595 445.923 24.7518 446.252 24.7495 446.609C24.7518 447.017 24.6382 447.362 24.4086 447.646C24.1813 447.93 23.8783 448.121 23.4995 448.218V448.275C23.9824 448.348 24.3565 448.54 24.6216 448.85C24.8891 449.16 25.0217 449.545 25.0194 450.004C25.0217 450.404 24.9105 450.763 24.6855 451.08C24.463 451.397 24.1588 451.647 23.7729 451.83C23.387 452.009 22.9455 452.099 22.4483 452.099ZM28.8936 452.121C28.3326 452.118 27.8532 451.97 27.4554 451.677C27.0577 451.383 26.7535 450.956 26.5428 450.395C26.3321 449.834 26.2267 449.158 26.2267 448.367C26.2267 447.579 26.3321 446.905 26.5428 446.347C26.7559 445.788 27.0613 445.362 27.459 445.068C27.8591 444.775 28.3373 444.628 28.8936 444.628C29.45 444.628 29.927 444.776 30.3248 445.072C30.7225 445.365 31.0267 445.791 31.2374 446.35C31.4505 446.906 31.557 447.579 31.557 448.367C31.557 449.16 31.4516 449.837 31.2409 450.398C31.0302 450.957 30.726 451.384 30.3283 451.68C29.9306 451.974 29.4524 452.121 28.8936 452.121ZM28.8936 451.173C29.3861 451.173 29.7708 450.932 30.0478 450.452C30.3271 449.971 30.4668 449.276 30.4668 448.367C30.4668 447.763 30.4029 447.253 30.275 446.837C30.1496 446.418 29.9685 446.1 29.7317 445.885C29.4973 445.667 29.218 445.558 28.8936 445.558C28.4036 445.558 28.0189 445.8 27.7395 446.283C27.4602 446.766 27.3193 447.46 27.3169 448.367C27.3169 448.973 27.3797 449.486 27.5051 449.905C27.633 450.321 27.8141 450.638 28.0485 450.853C28.2828 451.066 28.5646 451.173 28.8936 451.173ZM32.9197 449.166C32.9103 448.757 32.9706 448.42 33.1009 448.158C33.2334 447.895 33.411 447.701 33.6335 447.575C33.8561 447.447 34.1011 447.384 34.3686 447.384C34.6054 447.384 34.8243 447.434 35.0256 447.536C35.2268 447.636 35.4564 447.799 35.7145 448.026C35.8755 448.166 36.0069 448.268 36.1087 448.332C36.2105 448.393 36.3241 448.424 36.4496 448.424C36.6413 448.424 36.794 448.353 36.9077 448.211C37.0237 448.067 37.0793 447.853 37.0746 447.572H37.973C37.9825 447.984 37.9209 448.321 37.7884 448.584C37.6581 448.847 37.4806 449.041 37.2557 449.166C37.0331 449.292 36.7893 449.354 36.5241 449.354C36.285 449.354 36.0649 449.304 35.8636 449.202C35.6624 449.098 35.4339 448.934 35.1783 448.712C35.0125 448.567 34.88 448.465 34.7805 448.406C34.6811 448.345 34.5687 448.314 34.4432 448.314C34.2609 448.314 34.1094 448.38 33.9886 448.513C33.8703 448.643 33.8134 448.861 33.8182 449.166H32.9197ZM42.2362 444.727V452H41.1353V445.828H41.0927L39.3526 446.964V445.913L41.1673 444.727H42.2362ZM46.9627 444.727V452H45.8619V445.828H45.8192L44.0792 446.964V445.913L45.8938 444.727H46.9627ZM49.6438 451.098C49.4497 451.098 49.2828 451.029 49.1431 450.892C49.0034 450.752 48.9336 450.584 48.9336 450.388C48.9336 450.194 49.0034 450.028 49.1431 449.891C49.2828 449.751 49.4497 449.681 49.6438 449.681C49.8379 449.681 50.0049 449.751 50.1445 449.891C50.2842 450.028 50.354 450.194 50.354 450.388C50.354 450.518 50.3209 450.638 50.2546 450.746C50.1907 450.853 50.1055 450.938 49.9989 451.002C49.8924 451.066 49.774 451.098 49.6438 451.098ZM49.6438 447.455C49.4497 447.455 49.2828 447.386 49.1431 447.249C49.0034 447.109 48.9336 446.941 48.9336 446.744C48.9336 446.55 49.0034 446.384 49.1431 446.247C49.2828 446.107 49.4497 446.038 49.6438 446.038C49.8379 446.038 50.0049 446.107 50.1445 446.247C50.2842 446.384 50.354 446.55 50.354 446.744C50.354 446.875 50.3209 446.994 50.2546 447.103C50.1907 447.21 50.1055 447.295 49.9989 447.359C49.8924 447.423 49.774 447.455 49.6438 447.455ZM54.294 452.121C53.733 452.118 53.2536 451.97 52.8558 451.677C52.4581 451.383 52.1539 450.956 51.9432 450.395C51.7325 449.834 51.6271 449.158 51.6271 448.367C51.6271 447.579 51.7325 446.905 51.9432 446.347C52.1563 445.788 52.4616 445.362 52.8594 445.068C53.2595 444.775 53.7377 444.628 54.294 444.628C54.8504 444.628 55.3274 444.776 55.7251 445.072C56.1229 445.365 56.4271 445.791 56.6378 446.35C56.8509 446.906 56.9574 447.579 56.9574 448.367C56.9574 449.16 56.852 449.837 56.6413 450.398C56.4306 450.957 56.1264 451.384 55.7287 451.68C55.331 451.974 54.8527 452.121 54.294 452.121ZM54.294 451.173C54.7865 451.173 55.1712 450.932 55.4482 450.452C55.7275 449.971 55.8672 449.276 55.8672 448.367C55.8672 447.763 55.8033 447.253 55.6754 446.837C55.55 446.418 55.3688 446.1 55.1321 445.885C54.8977 445.667 54.6184 445.558 54.294 445.558C53.804 445.558 53.4193 445.8 53.1399 446.283C52.8606 446.766 52.7197 447.46 52.7173 448.367C52.7173 448.973 52.7801 449.486 52.9055 449.905C53.0334 450.321 53.2145 450.638 53.4489 450.853C53.6832 451.066 53.965 451.173 54.294 451.173ZM60.7491 452.121C60.188 452.118 59.7086 451.97 59.3109 451.677C58.9132 451.383 58.609 450.956 58.3983 450.395C58.1876 449.834 58.0822 449.158 58.0822 448.367C58.0822 447.579 58.1876 446.905 58.3983 446.347C58.6113 445.788 58.9167 445.362 59.3145 445.068C59.7145 444.775 60.1928 444.628 60.7491 444.628C61.3055 444.628 61.7825 444.776 62.1802 445.072C62.5779 445.365 62.8822 445.791 63.0929 446.35C63.3059 446.906 63.4125 447.579 63.4125 448.367C63.4125 449.16 63.3071 449.837 63.0964 450.398C62.8857 450.957 62.5815 451.384 62.1838 451.68C61.786 451.974 61.3078 452.121 60.7491 452.121ZM60.7491 451.173C61.2415 451.173 61.6262 450.932 61.9032 450.452C62.1826 449.971 62.3223 449.276 62.3223 448.367C62.3223 447.763 62.2583 447.253 62.1305 446.837C62.005 446.418 61.8239 446.1 61.5872 445.885C61.3528 445.667 61.0734 445.558 60.7491 445.558C60.2591 445.558 59.8743 445.8 59.595 446.283C59.3156 446.766 59.1748 447.46 59.1724 448.367C59.1724 448.973 59.2351 449.486 59.3606 449.905C59.4885 450.321 59.6696 450.638 59.9039 450.853C60.1383 451.066 60.42 451.173 60.7491 451.173Z" fill="black"/>
<path d="M10.6214 109.099C10.2971 109.095 9.97751 109.036 9.66264 108.922C9.35014 108.808 9.06605 108.619 8.81037 108.354C8.55469 108.089 8.34991 107.732 8.19602 107.285C8.04451 106.837 7.96875 106.279 7.96875 105.609C7.96875 104.974 8.03149 104.411 8.15696 103.918C8.2848 103.426 8.46828 103.01 8.70739 102.672C8.9465 102.331 9.23532 102.072 9.57386 101.894C9.91241 101.717 10.2924 101.628 10.7138 101.628C11.147 101.628 11.5317 101.713 11.8679 101.884C12.2041 102.054 12.4763 102.29 12.6847 102.59C12.8954 102.891 13.0291 103.233 13.0859 103.616H12.0028C11.9295 103.313 11.7839 103.066 11.5661 102.874C11.3482 102.683 11.0642 102.587 10.7138 102.587C10.1811 102.587 9.76563 102.819 9.46733 103.283C9.1714 103.747 9.02225 104.392 9.01989 105.218H9.07315C9.19863 105.012 9.35251 104.837 9.5348 104.692C9.71946 104.546 9.92543 104.433 10.1527 104.355C10.3823 104.275 10.6238 104.234 10.8771 104.234C11.2985 104.234 11.6797 104.337 12.0206 104.543C12.3639 104.747 12.6373 105.029 12.8409 105.388C13.0445 105.748 13.1463 106.16 13.1463 106.624C13.1463 107.088 13.041 107.509 12.8303 107.885C12.6219 108.261 12.3284 108.56 11.9496 108.78C11.5708 108.998 11.1281 109.104 10.6214 109.099ZM10.6179 108.176C10.8973 108.176 11.147 108.107 11.3672 107.97C11.5874 107.833 11.7614 107.648 11.8892 107.416C12.017 107.184 12.081 106.925 12.081 106.638C12.081 106.359 12.0182 106.105 11.8928 105.875C11.7696 105.645 11.5992 105.463 11.3814 105.328C11.166 105.193 10.9197 105.126 10.6428 105.126C10.4321 105.126 10.2367 105.166 10.0568 105.246C9.87926 105.327 9.72301 105.438 9.58807 105.58C9.45313 105.722 9.34659 105.886 9.26847 106.07C9.19271 106.253 9.15483 106.446 9.15483 106.649C9.15483 106.921 9.21757 107.174 9.34304 107.406C9.47088 107.638 9.64489 107.825 9.86506 107.967C10.0876 108.106 10.3385 108.176 10.6179 108.176ZM15.1536 108.098C14.9595 108.098 14.7926 108.029 14.6529 107.892C14.5132 107.752 14.4434 107.584 14.4434 107.388C14.4434 107.194 14.5132 107.028 14.6529 106.891C14.7926 106.751 14.9595 106.681 15.1536 106.681C15.3477 106.681 15.5146 106.751 15.6543 106.891C15.794 107.028 15.8638 107.194 15.8638 107.388C15.8638 107.518 15.8307 107.638 15.7644 107.746C15.7005 107.853 15.6152 107.938 15.5087 108.002C15.4022 108.066 15.2838 108.098 15.1536 108.098ZM15.1536 104.455C14.9595 104.455 14.7926 104.386 14.6529 104.249C14.5132 104.109 14.4434 103.941 14.4434 103.744C14.4434 103.55 14.5132 103.384 14.6529 103.247C14.7926 103.107 14.9595 103.038 15.1536 103.038C15.3477 103.038 15.5146 103.107 15.6543 103.247C15.794 103.384 15.8638 103.55 15.8638 103.744C15.8638 103.875 15.8307 103.994 15.7644 104.103C15.7005 104.21 15.6152 104.295 15.5087 104.359C15.4022 104.423 15.2838 104.455 15.1536 104.455ZM19.8038 109.121C19.2427 109.118 18.7633 108.97 18.3656 108.677C17.9679 108.383 17.6636 107.956 17.4529 107.395C17.2422 106.834 17.1369 106.158 17.1369 105.367C17.1369 104.579 17.2422 103.905 17.4529 103.347C17.666 102.788 17.9714 102.362 18.3691 102.068C18.7692 101.775 19.2475 101.628 19.8038 101.628C20.3601 101.628 20.8372 101.776 21.2349 102.072C21.6326 102.365 21.9368 102.791 22.1475 103.35C22.3606 103.906 22.4672 104.579 22.4672 105.367C22.4672 106.16 22.3618 106.837 22.1511 107.398C21.9404 107.957 21.6362 108.384 21.2385 108.68C20.8407 108.974 20.3625 109.121 19.8038 109.121ZM19.8038 108.173C20.2962 108.173 20.6809 107.932 20.9579 107.452C21.2373 106.971 21.377 106.276 21.377 105.367C21.377 104.763 21.313 104.253 21.1852 103.837C21.0597 103.418 20.8786 103.1 20.6419 102.885C20.4075 102.667 20.1281 102.558 19.8038 102.558C19.3137 102.558 18.929 102.8 18.6497 103.283C18.3703 103.766 18.2295 104.46 18.2271 105.367C18.2271 105.973 18.2898 106.486 18.4153 106.905C18.5431 107.321 18.7243 107.638 18.9586 107.853C19.193 108.066 19.4747 108.173 19.8038 108.173ZM26.2589 109.121C25.6978 109.118 25.2184 108.97 24.8207 108.677C24.4229 108.383 24.1187 107.956 23.908 107.395C23.6973 106.834 23.592 106.158 23.592 105.367C23.592 104.579 23.6973 103.905 23.908 103.347C24.1211 102.788 24.4265 102.362 24.8242 102.068C25.2243 101.775 25.7025 101.628 26.2589 101.628C26.8152 101.628 27.2923 101.776 27.69 102.072C28.0877 102.365 28.3919 102.791 28.6026 103.35C28.8157 103.906 28.9222 104.579 28.9222 105.367C28.9222 106.16 28.8169 106.837 28.6062 107.398C28.3955 107.957 28.0913 108.384 27.6935 108.68C27.2958 108.974 26.8176 109.121 26.2589 109.121ZM26.2589 108.173C26.7513 108.173 27.136 107.932 27.413 107.452C27.6924 106.971 27.832 106.276 27.832 105.367C27.832 104.763 27.7681 104.253 27.6403 103.837C27.5148 103.418 27.3337 103.1 27.0969 102.885C26.8626 102.667 26.5832 102.558 26.2589 102.558C25.7688 102.558 25.3841 102.8 25.1048 103.283C24.8254 103.766 24.6845 104.46 24.6822 105.367C24.6822 105.973 24.7449 106.486 24.8704 106.905C24.9982 107.321 25.1793 107.638 25.4137 107.853C25.6481 108.066 25.9298 108.173 26.2589 108.173ZM32.9315 106.166C32.922 105.757 32.9824 105.42 33.1126 105.158C33.2451 104.895 33.4227 104.701 33.6452 104.575C33.8678 104.447 34.1128 104.384 34.3803 104.384C34.6171 104.384 34.8361 104.434 35.0373 104.536C35.2385 104.636 35.4682 104.799 35.7262 105.026C35.8872 105.166 36.0186 105.268 36.1204 105.332C36.2222 105.393 36.3358 105.424 36.4613 105.424C36.6531 105.424 36.8058 105.353 36.9194 105.211C37.0354 105.067 37.091 104.853 37.0863 104.572H37.9847C37.9942 104.984 37.9326 105.321 37.8001 105.584C37.6699 105.847 37.4923 106.041 37.2674 106.166C37.0449 106.292 36.801 106.354 36.5359 106.354C36.2968 106.354 36.0766 106.304 35.8754 106.202C35.6741 106.098 35.4457 105.934 35.19 105.712C35.0243 105.567 34.8917 105.465 34.7923 105.406C34.6928 105.345 34.5804 105.314 34.4549 105.314C34.2726 105.314 34.1211 105.38 34.0004 105.513C33.882 105.643 33.8252 105.861 33.8299 106.166H32.9315ZM42.3801 109L45.5549 102.722V102.668H41.883V101.727H46.6912V102.7L43.5272 109H42.3801ZM48.2981 108.098C48.104 108.098 47.9371 108.029 47.7974 107.892C47.6577 107.752 47.5879 107.584 47.5879 107.388C47.5879 107.194 47.6577 107.028 47.7974 106.891C47.9371 106.751 48.104 106.681 48.2981 106.681C48.4922 106.681 48.6592 106.751 48.7988 106.891C48.9385 107.028 49.0083 107.194 49.0083 107.388C49.0083 107.518 48.9752 107.638 48.9089 107.746C48.845 107.853 48.7598 107.938 48.6532 108.002C48.5467 108.066 48.4283 108.098 48.2981 108.098ZM48.2981 104.455C48.104 104.455 47.9371 104.386 47.7974 104.249C47.6577 104.109 47.5879 103.941 47.5879 103.744C47.5879 103.55 47.6577 103.384 47.7974 103.247C47.9371 103.107 48.104 103.038 48.2981 103.038C48.4922 103.038 48.6592 103.107 48.7988 103.247C48.9385 103.384 49.0083 103.55 49.0083 103.744C49.0083 103.875 48.9752 103.994 48.9089 104.103C48.845 104.21 48.7598 104.295 48.6532 104.359C48.5467 104.423 48.4283 104.455 48.2981 104.455ZM52.9483 109.099C52.4606 109.099 52.025 109.015 51.6415 108.847C51.2604 108.679 50.9585 108.446 50.736 108.148C50.5158 107.847 50.3974 107.499 50.3809 107.104H51.4959C51.5101 107.319 51.5823 107.506 51.7125 107.665C51.8451 107.821 52.0179 107.942 52.231 108.027C52.4441 108.112 52.6808 108.155 52.9412 108.155C53.2277 108.155 53.481 108.105 53.7012 108.006C53.9237 107.906 54.0977 107.768 54.2232 107.59C54.3487 107.41 54.4114 107.203 54.4114 106.969C54.4114 106.725 54.3487 106.511 54.2232 106.326C54.1001 106.139 53.919 105.992 53.6799 105.886C53.4431 105.779 53.1567 105.726 52.8205 105.726H52.2061V104.831H52.8205C53.0904 104.831 53.3271 104.782 53.5307 104.685C53.7367 104.588 53.8977 104.453 54.0137 104.281C54.1297 104.105 54.1877 103.901 54.1877 103.666C54.1877 103.441 54.1368 103.246 54.035 103.08C53.9355 102.912 53.7935 102.781 53.6088 102.686C53.4266 102.591 53.2111 102.544 52.9625 102.544C52.7258 102.544 52.5044 102.588 52.2985 102.675C52.0949 102.761 51.9292 102.884 51.8013 103.045C51.6735 103.203 51.6048 103.394 51.5953 103.616H50.5336C50.5454 103.223 50.6614 102.878 50.8816 102.58C51.1041 102.281 51.3977 102.048 51.7623 101.88C52.1268 101.712 52.5317 101.628 52.9767 101.628C53.4431 101.628 53.8456 101.719 54.1841 101.901C54.525 102.081 54.7878 102.321 54.9725 102.622C55.1595 102.923 55.2518 103.252 55.2495 103.609C55.2518 104.017 55.1382 104.362 54.9086 104.646C54.6813 104.93 54.3783 105.121 53.9995 105.218V105.275C54.4824 105.348 54.8565 105.54 55.1216 105.85C55.3891 106.16 55.5217 106.545 55.5194 107.004C55.5217 107.404 55.4105 107.763 55.1855 108.08C54.963 108.397 54.6588 108.647 54.2729 108.83C53.887 109.009 53.4455 109.099 52.9483 109.099ZM59.3936 109.121C58.8326 109.118 58.3532 108.97 57.9554 108.677C57.5577 108.383 57.2535 107.956 57.0428 107.395C56.8321 106.834 56.7267 106.158 56.7267 105.367C56.7267 104.579 56.8321 103.905 57.0428 103.347C57.2559 102.788 57.5613 102.362 57.959 102.068C58.3591 101.775 58.8373 101.628 59.3936 101.628C59.95 101.628 60.427 101.776 60.8248 102.072C61.2225 102.365 61.5267 102.791 61.7374 103.35C61.9505 103.906 62.057 104.579 62.057 105.367C62.057 106.16 61.9516 106.837 61.7409 107.398C61.5302 107.957 61.226 108.384 60.8283 108.68C60.4306 108.974 59.9524 109.121 59.3936 109.121ZM59.3936 108.173C59.8861 108.173 60.2708 107.932 60.5478 107.452C60.8271 106.971 60.9668 106.276 60.9668 105.367C60.9668 104.763 60.9029 104.253 60.775 103.837C60.6496 103.418 60.4685 103.1 60.2317 102.885C59.9973 102.667 59.718 102.558 59.3936 102.558C58.9036 102.558 58.5189 102.8 58.2395 103.283C57.9602 103.766 57.8193 104.46 57.8169 105.367C57.8169 105.973 57.8797 106.486 58.0051 106.905C58.133 107.321 58.3141 107.638 58.5485 107.853C58.7828 108.066 59.0646 108.173 59.3936 108.173Z" fill="black"/>
<line y1="49" x2="331.001" y2="49" stroke="black" stroke-opacity="0.09" stroke-width="2"/>
<line x1="1" y1="395" x2="332.001" y2="395" stroke="black" stroke-opacity="0.09" stroke-width="2"/>
<line y1="275" x2="331.001" y2="275" stroke="black" stroke-opacity="0.09" stroke-width="2"/>
<line x1="1" y1="160" x2="332.001" y2="160" stroke="black" stroke-opacity="0.09" stroke-width="2"/>
<path d="M8.34695 220L11.5217 213.722V213.668H7.84979V212.727H12.658V213.7L9.49396 220H8.34695ZM14.2649 219.098C14.0708 219.098 13.9039 219.029 13.7642 218.892C13.6245 218.752 13.5547 218.584 13.5547 218.388C13.5547 218.194 13.6245 218.028 13.7642 217.891C13.9039 217.751 14.0708 217.681 14.2649 217.681C14.459 217.681 14.6259 217.751 14.7656 217.891C14.9053 218.028 14.9751 218.194 14.9751 218.388C14.9751 218.518 14.942 218.638 14.8757 218.746C14.8118 218.853 14.7266 218.938 14.62 219.002C14.5135 219.066 14.3951 219.098 14.2649 219.098ZM14.2649 215.455C14.0708 215.455 13.9039 215.386 13.7642 215.249C13.6245 215.109 13.5547 214.941 13.5547 214.744C13.5547 214.55 13.6245 214.384 13.7642 214.247C13.9039 214.107 14.0708 214.038 14.2649 214.038C14.459 214.038 14.6259 214.107 14.7656 214.247C14.9053 214.384 14.9751 214.55 14.9751 214.744C14.9751 214.875 14.942 214.994 14.8757 215.103C14.8118 215.21 14.7266 215.295 14.62 215.359C14.5135 215.423 14.3951 215.455 14.2649 215.455ZM18.9151 220.099C18.4274 220.099 17.9918 220.015 17.6083 219.847C17.2272 219.679 16.9253 219.446 16.7028 219.148C16.4826 218.847 16.3642 218.499 16.3477 218.104H17.4627C17.4769 218.319 17.5491 218.506 17.6793 218.665C17.8119 218.821 17.9847 218.942 18.1978 219.027C18.4109 219.112 18.6476 219.155 18.908 219.155C19.1945 219.155 19.4478 219.105 19.668 219.006C19.8905 218.906 20.0645 218.768 20.19 218.59C20.3155 218.41 20.3782 218.203 20.3782 217.969C20.3782 217.725 20.3155 217.511 20.19 217.326C20.0669 217.139 19.8858 216.992 19.6467 216.886C19.4099 216.779 19.1235 216.726 18.7873 216.726H18.1729V215.831H18.7873C19.0572 215.831 19.2939 215.782 19.4975 215.685C19.7035 215.588 19.8645 215.453 19.9805 215.281C20.0965 215.105 20.1545 214.901 20.1545 214.666C20.1545 214.441 20.1036 214.246 20.0018 214.08C19.9023 213.912 19.7603 213.781 19.5756 213.686C19.3933 213.591 19.1779 213.544 18.9293 213.544C18.6926 213.544 18.4712 213.588 18.2653 213.675C18.0617 213.761 17.896 213.884 17.7681 214.045C17.6403 214.203 17.5716 214.394 17.5621 214.616H16.5004C16.5122 214.223 16.6282 213.878 16.8484 213.58C17.0709 213.281 17.3645 213.048 17.729 212.88C18.0936 212.712 18.4985 212.628 18.9435 212.628C19.4099 212.628 19.8124 212.719 20.1509 212.901C20.4918 213.081 20.7546 213.321 20.9393 213.622C21.1263 213.923 21.2186 214.252 21.2163 214.609C21.2186 215.017 21.105 215.362 20.8754 215.646C20.6481 215.93 20.3451 216.121 19.9663 216.218V216.275C20.4492 216.348 20.8233 216.54 21.0884 216.85C21.3559 217.16 21.4885 217.545 21.4862 218.004C21.4885 218.404 21.3772 218.763 21.1523 219.08C20.9298 219.397 20.6256 219.647 20.2397 219.83C19.8538 220.009 19.4123 220.099 18.9151 220.099ZM25.3604 220.121C24.7994 220.118 24.32 219.97 23.9222 219.677C23.5245 219.383 23.2203 218.956 23.0096 218.395C22.7989 217.834 22.6935 217.158 22.6935 216.367C22.6935 215.579 22.7989 214.905 23.0096 214.347C23.2227 213.788 23.5281 213.362 23.9258 213.068C24.3259 212.775 24.8041 212.628 25.3604 212.628C25.9168 212.628 26.3938 212.776 26.7915 213.072C27.1893 213.365 27.4935 213.791 27.7042 214.35C27.9173 214.906 28.0238 215.579 28.0238 216.367C28.0238 217.16 27.9184 217.837 27.7077 218.398C27.497 218.957 27.1928 219.384 26.7951 219.68C26.3974 219.974 25.9192 220.121 25.3604 220.121ZM25.3604 219.173C25.8529 219.173 26.2376 218.932 26.5146 218.452C26.7939 217.971 26.9336 217.276 26.9336 216.367C26.9336 215.763 26.8697 215.253 26.7418 214.837C26.6164 214.418 26.4353 214.1 26.1985 213.885C25.9641 213.667 25.6848 213.558 25.3604 213.558C24.8704 213.558 24.4857 213.8 24.2063 214.283C23.927 214.766 23.7861 215.46 23.7837 216.367C23.7837 216.973 23.8465 217.486 23.9719 217.905C24.0998 218.321 24.2809 218.638 24.5153 218.853C24.7496 219.066 25.0314 219.173 25.3604 219.173ZM32.033 217.166C32.0236 216.757 32.0839 216.42 32.2141 216.158C32.3467 215.895 32.5243 215.701 32.7468 215.575C32.9693 215.447 33.2144 215.384 33.4819 215.384C33.7186 215.384 33.9376 215.434 34.1388 215.536C34.3401 215.636 34.5697 215.799 34.8278 216.026C34.9888 216.166 35.1201 216.268 35.2219 216.332C35.3237 216.393 35.4374 216.424 35.5629 216.424C35.7546 216.424 35.9073 216.353 36.021 216.211C36.137 216.067 36.1926 215.853 36.1879 215.572H37.0863C37.0958 215.984 37.0342 216.321 36.9016 216.584C36.7714 216.847 36.5939 217.041 36.369 217.166C36.1464 217.292 35.9026 217.354 35.6374 217.354C35.3983 217.354 35.1781 217.304 34.9769 217.202C34.7757 217.098 34.5472 216.934 34.2915 216.712C34.1258 216.567 33.9933 216.465 33.8938 216.406C33.7944 216.345 33.6819 216.314 33.5565 216.314C33.3742 216.314 33.2227 216.38 33.1019 216.513C32.9835 216.643 32.9267 216.861 32.9315 217.166H32.033ZM43.6941 220.099C43.1851 220.099 42.7353 220.012 42.3446 219.837C41.9564 219.661 41.6522 219.42 41.432 219.112C41.2118 218.804 41.1029 218.454 41.1053 218.061C41.1029 217.753 41.1657 217.47 41.2935 217.212C41.4237 216.952 41.6001 216.735 41.8226 216.562C42.0452 216.387 42.2937 216.276 42.5684 216.229V216.186C42.2061 216.098 41.9161 215.904 41.6983 215.604C41.4805 215.303 41.3728 214.957 41.3752 214.567C41.3728 214.195 41.4711 213.864 41.6699 213.572C41.8712 213.279 42.147 213.048 42.4973 212.88C42.8477 212.712 43.2466 212.628 43.6941 212.628C44.1368 212.628 44.5321 212.713 44.8801 212.884C45.2305 213.052 45.5063 213.282 45.7076 213.576C45.9088 213.867 46.0106 214.197 46.013 214.567C46.0106 214.957 45.8993 215.303 45.6792 215.604C45.459 215.904 45.1725 216.098 44.8198 216.186V216.229C45.092 216.276 45.3371 216.387 45.5549 216.562C45.775 216.735 45.9502 216.952 46.0804 217.212C46.213 217.47 46.2805 217.753 46.2828 218.061C46.2805 218.454 46.1692 218.804 45.949 219.112C45.7289 219.42 45.4235 219.661 45.0328 219.837C44.6446 220.012 44.1983 220.099 43.6941 220.099ZM43.6941 219.201C43.9947 219.201 44.2551 219.151 44.4753 219.052C44.6955 218.95 44.8659 218.809 44.9867 218.629C45.1074 218.447 45.169 218.234 45.1713 217.99C45.169 217.737 45.1027 217.513 44.9725 217.319C44.8446 217.125 44.6706 216.972 44.4505 216.861C44.2303 216.75 43.9782 216.694 43.6941 216.694C43.4076 216.694 43.1531 216.75 42.9306 216.861C42.708 216.972 42.5328 217.125 42.405 217.319C42.2772 217.513 42.2144 217.737 42.2168 217.99C42.2144 218.234 42.2724 218.447 42.3908 218.629C42.5115 218.809 42.6832 218.95 42.9057 219.052C43.1283 219.151 43.391 219.201 43.6941 219.201ZM43.6941 215.817C43.9355 215.817 44.1498 215.768 44.3368 215.671C44.5239 215.574 44.6706 215.439 44.7772 215.266C44.8861 215.094 44.9417 214.891 44.9441 214.659C44.9417 214.432 44.8873 214.233 44.7807 214.062C44.6766 213.892 44.531 213.761 44.3439 213.668C44.1569 213.574 43.9403 213.526 43.6941 213.526C43.4431 213.526 43.223 213.574 43.0336 213.668C42.8465 213.761 42.7009 213.892 42.5968 214.062C42.4926 214.233 42.4417 214.432 42.4441 214.659C42.4417 214.891 42.4938 215.094 42.6003 215.266C42.7069 215.439 42.8536 215.574 43.0407 215.671C43.2301 215.768 43.4479 215.817 43.6941 215.817ZM48.2688 219.098C48.0747 219.098 47.9078 219.029 47.7681 218.892C47.6284 218.752 47.5586 218.584 47.5586 218.388C47.5586 218.194 47.6284 218.028 47.7681 217.891C47.9078 217.751 48.0747 217.681 48.2688 217.681C48.4629 217.681 48.6299 217.751 48.7695 217.891C48.9092 218.028 48.979 218.194 48.979 218.388C48.979 218.518 48.9459 218.638 48.8796 218.746C48.8157 218.853 48.7305 218.938 48.6239 219.002C48.5174 219.066 48.399 219.098 48.2688 219.098ZM48.2688 215.455C48.0747 215.455 47.9078 215.386 47.7681 215.249C47.6284 215.109 47.5586 214.941 47.5586 214.744C47.5586 214.55 47.6284 214.384 47.7681 214.247C47.9078 214.107 48.0747 214.038 48.2688 214.038C48.4629 214.038 48.6299 214.107 48.7695 214.247C48.9092 214.384 48.979 214.55 48.979 214.744C48.979 214.875 48.9459 214.994 48.8796 215.103C48.8157 215.21 48.7305 215.295 48.6239 215.359C48.5174 215.423 48.399 215.455 48.2688 215.455ZM52.919 220.121C52.358 220.118 51.8786 219.97 51.4808 219.677C51.0831 219.383 50.7789 218.956 50.5682 218.395C50.3575 217.834 50.2521 217.158 50.2521 216.367C50.2521 215.579 50.3575 214.905 50.5682 214.347C50.7813 213.788 51.0866 213.362 51.4844 213.068C51.8845 212.775 52.3627 212.628 52.919 212.628C53.4754 212.628 53.9524 212.776 54.3501 213.072C54.7479 213.365 55.0521 213.791 55.2628 214.35C55.4759 214.906 55.5824 215.579 55.5824 216.367C55.5824 217.16 55.477 217.837 55.2663 218.398C55.0556 218.957 54.7514 219.384 54.3537 219.68C53.956 219.974 53.4777 220.121 52.919 220.121ZM52.919 219.173C53.4115 219.173 53.7962 218.932 54.0732 218.452C54.3525 217.971 54.4922 217.276 54.4922 216.367C54.4922 215.763 54.4283 215.253 54.3004 214.837C54.175 214.418 53.9938 214.1 53.7571 213.885C53.5227 213.667 53.2434 213.558 52.919 213.558C52.429 213.558 52.0443 213.8 51.7649 214.283C51.4856 214.766 51.3447 215.46 51.3423 216.367C51.3423 216.973 51.4051 217.486 51.5305 217.905C51.6584 218.321 51.8395 218.638 52.0739 218.853C52.3082 219.066 52.59 219.173 52.919 219.173ZM59.3741 220.121C58.813 220.118 58.3336 219.97 57.9359 219.677C57.5382 219.383 57.234 218.956 57.0233 218.395C56.8126 217.834 56.7072 217.158 56.7072 216.367C56.7072 215.579 56.8126 214.905 57.0233 214.347C57.2363 213.788 57.5417 213.362 57.9395 213.068C58.3395 212.775 58.8178 212.628 59.3741 212.628C59.9305 212.628 60.4075 212.776 60.8052 213.072C61.2029 213.365 61.5072 213.791 61.7179 214.35C61.9309 214.906 62.0375 215.579 62.0375 216.367C62.0375 217.16 61.9321 217.837 61.7214 218.398C61.5107 218.957 61.2065 219.384 60.8088 219.68C60.411 219.974 59.9328 220.121 59.3741 220.121ZM59.3741 219.173C59.8665 219.173 60.2512 218.932 60.5282 218.452C60.8076 217.971 60.9473 217.276 60.9473 216.367C60.9473 215.763 60.8833 215.253 60.7555 214.837C60.63 214.418 60.4489 214.1 60.2122 213.885C59.9778 213.667 59.6984 213.558 59.3741 213.558C58.8841 213.558 58.4993 213.8 58.22 214.283C57.9406 214.766 57.7998 215.46 57.7974 216.367C57.7974 216.973 57.8601 217.486 57.9856 217.905C58.1135 218.321 58.2946 218.638 58.5289 218.853C58.7633 219.066 59.045 219.173 59.3741 219.173Z" fill="black"/>
<line x1="72" y1="515" x2="72" y2="1" stroke="black" stroke-opacity="0.14" stroke-width="2"/>
<line x1="247" y1="515.018" x2="247" y2="0.982483" stroke="black" stroke-opacity="0.14" stroke-width="2"/>
<line x1="160.5" y1="515.024" x2="160.5" y2="0.976135" stroke="black" stroke-opacity="0.14" stroke-width="2"/>
<path d="M115.961 19.0909V30H113.654V21.2802H113.591L111.092 22.8462V20.8008L113.793 19.0909H115.961Z" fill="black"/>
<path d="M197.16 30V28.3381L201.043 24.7425C201.374 24.4229 201.651 24.1353 201.874 23.8796C202.102 23.6239 202.274 23.3736 202.391 23.1286C202.508 22.88 202.567 22.6119 202.567 22.3242C202.567 22.0046 202.494 21.7294 202.348 21.4986C202.203 21.2642 202.004 21.0849 201.752 20.9606C201.5 20.8327 201.214 20.7688 200.894 20.7688C200.56 20.7688 200.269 20.8363 200.021 20.9712C199.772 21.1062 199.58 21.2997 199.445 21.5518C199.31 21.804 199.243 22.104 199.243 22.4521H197.054C197.054 21.7383 197.215 21.1186 197.538 20.593C197.861 20.0675 198.314 19.6609 198.897 19.3732C199.479 19.0856 200.15 18.9418 200.91 18.9418C201.691 18.9418 202.371 19.0803 202.95 19.3572C203.533 19.6307 203.985 20.0107 204.309 20.4972C204.632 20.9837 204.793 21.5412 204.793 22.1697C204.793 22.5817 204.712 22.9883 204.548 23.3896C204.388 23.7908 204.103 24.2365 203.691 24.7266C203.279 25.2131 202.698 25.7972 201.949 26.479L200.356 28.0398V28.1143H204.937V30H197.16Z" fill="black"/>
<path d="M286.973 30.1491C286.177 30.1491 285.469 30.0124 284.847 29.739C284.229 29.462 283.741 29.082 283.383 28.5991C283.027 28.1126 282.845 27.5515 282.834 26.9158H285.156C285.17 27.1822 285.258 27.4165 285.417 27.619C285.581 27.8178 285.797 27.9723 286.067 28.0824C286.337 28.1925 286.641 28.2475 286.978 28.2475C287.33 28.2475 287.64 28.1854 287.91 28.0611C288.18 27.9368 288.391 27.7646 288.544 27.5444C288.697 27.3242 288.773 27.0703 288.773 26.7827C288.773 26.4915 288.691 26.234 288.528 26.0103C288.368 25.783 288.137 25.6055 287.836 25.4776C287.537 25.3498 287.182 25.2859 286.77 25.2859H285.753V23.592H286.77C287.118 23.592 287.425 23.5316 287.692 23.4109C287.962 23.2901 288.171 23.1232 288.32 22.9102C288.47 22.6935 288.544 22.4414 288.544 22.1538C288.544 21.8803 288.478 21.6406 288.347 21.4347C288.219 21.2251 288.038 21.0618 287.804 20.9446C287.573 20.8274 287.303 20.7688 286.994 20.7688C286.682 20.7688 286.396 20.8256 286.136 20.9393C285.877 21.0494 285.669 21.2074 285.513 21.4134C285.357 21.6193 285.273 21.8608 285.263 22.1378H283.052C283.063 21.5092 283.242 20.9553 283.59 20.4759C283.938 19.9964 284.407 19.6218 284.996 19.3519C285.59 19.0785 286.259 18.9418 287.005 18.9418C287.758 18.9418 288.416 19.0785 288.981 19.3519C289.545 19.6254 289.984 19.9947 290.297 20.4599C290.613 20.9215 290.769 21.44 290.765 22.0153C290.769 22.6261 290.579 23.1357 290.195 23.544C289.815 23.9524 289.32 24.2116 288.709 24.3217V24.407C289.512 24.5099 290.123 24.7887 290.542 25.2433C290.964 25.6942 291.174 26.2589 291.17 26.9371C291.174 27.5586 290.994 28.1108 290.632 28.5938C290.273 29.0767 289.778 29.4567 289.146 29.7337C288.514 30.0107 287.789 30.1491 286.973 30.1491Z" fill="black"/>
</svg>
